<svg xmlns="http://www.w3.org/2000/svg" width="400.443" height="368.189" viewBox="0 0 400.443 368.189"><defs><clipPath id="a"><path data-name="Rectangle 884" transform="translate(257 4290)" fill="#fff" stroke="#707070" d="M0 0h157v203H0z"/></clipPath></defs><g data-name="Group 3140"><path data-name="Path 10992" d="M1.065 368.186a1.104 1.104 0 11.08-2.206c.932.034 1.633-.788 2.353-1.637 1.095-1.284 2.22-2.608 4.4-2.608s3.3 1.324 4.4 2.608c.719.846 1.418 1.666 2.349 1.637h.092c.93.03 1.631-.79 2.347-1.637 1.1-1.284 2.224-2.608 4.4-2.608s3.307 1.324 4.4 2.608c.721.846 1.42 1.666 2.349 1.637h.094c.93.03 1.627-.79 2.349-1.637 1.091-1.284 2.218-2.608 4.4-2.608s3.3 1.324 4.4 2.608c.719.846 1.418 1.666 2.347 1.637h.092c.932.03 1.633-.79 2.349-1.637 1.095-1.284 2.22-2.608 4.4-2.608s3.3 1.324 4.4 2.608c.719.846 1.418 1.666 2.349 1.637h.092c.93.03 1.629-.79 2.347-1.637 1.095-1.284 2.22-2.608 4.4-2.608s3.3 1.324 4.4 2.608c.721.846 1.418 1.666 2.349 1.637h.092c.932.03 1.629-.79 2.347-1.637 1.093-1.284 2.222-2.608 4.4-2.608s3.3 1.324 4.4 2.608c.721.846 1.418 1.666 2.349 1.637h.092c.932.03 1.629-.79 2.349-1.637 1.1-1.284 2.22-2.608 4.4-2.608s3.3 1.324 4.4 2.608c.719.846 1.418 1.666 2.347 1.637h.092c.932.03 1.631-.79 2.349-1.637 1.1-1.284 2.22-2.608 4.4-2.608s3.305 1.324 4.4 2.608c.719.846 1.42 1.666 2.349 1.637h.094c.928.03 1.627-.79 2.345-1.637 1.095-1.284 2.22-2.608 4.4-2.608s3.3 1.324 4.4 2.608c.721.846 1.418 1.666 2.349 1.637h.094c.93.03 1.629-.79 2.347-1.637 1.093-1.284 2.222-2.608 4.4-2.608s3.3 1.324 4.4 2.608c.719.846 1.416 1.666 2.347 1.637h.092c.932.03 1.631-.79 2.349-1.637 1.1-1.284 2.222-2.608 4.4-2.608s3.3 1.324 4.4 2.608c.719.846 1.42 1.666 2.347 1.637h.092c.932.03 1.633-.79 2.351-1.637 1.093-1.284 2.218-2.608 4.4-2.608s3.3 1.324 4.4 2.608c.719.846 1.419 1.666 2.349 1.637h.094c.928.03 1.627-.79 2.347-1.637 1.093-1.284 2.222-2.608 4.4-2.608s3.3 1.324 4.4 2.608c.721.846 1.418 1.666 2.349 1.637h.094c.93.03 1.629-.79 2.347-1.637 1.093-1.284 2.222-2.608 4.4-2.608s3.3 1.324 4.4 2.608c.719.846 1.418 1.666 2.347 1.637h.094c.93.03 1.63-.79 2.349-1.637 1.093-1.284 2.22-2.608 4.4-2.608s3.3 1.324 4.4 2.608c.721.848 1.422 1.67 2.355 1.637a1.104 1.104 0 11.08 2.206c-1.995.072-3.04-1.155-4.113-2.413-.765-.9-1.549-1.824-2.718-1.824s-1.957.926-2.718 1.824c-1.069 1.252-2.1 2.467-4.073 2.415-1.973.052-3.006-1.163-4.074-2.415-.763-.9-1.551-1.824-2.718-1.824s-1.955.926-2.722 1.824c-1.065 1.252-2.1 2.467-4.072 2.415-1.971.052-3-1.163-4.071-2.415-.765-.9-1.551-1.824-2.72-1.824s-1.953.926-2.718 1.824c-1.067 1.252-2.1 2.467-4.073 2.415-1.969.052-3.006-1.163-4.073-2.415-.765-.9-1.551-1.824-2.718-1.824s-1.955.926-2.718 1.824c-1.067 1.252-2.1 2.467-4.074 2.415-1.971.052-3.008-1.163-4.073-2.415-.764-.9-1.549-1.824-2.718-1.824s-1.957.926-2.72 1.824c-1.067 1.252-2.1 2.467-4.072 2.415-1.973.052-3.006-1.163-4.073-2.415-.764-.9-1.551-1.824-2.718-1.824s-1.957.926-2.722 1.824c-1.065 1.252-2.1 2.467-4.072 2.415-1.969.052-3-1.163-4.073-2.415-.763-.9-1.551-1.824-2.718-1.824s-1.955.926-2.718 1.824c-1.067 1.252-2.1 2.467-4.073 2.415-1.971.052-3.008-1.163-4.074-2.415-.764-.9-1.549-1.824-2.72-1.824s-1.953.926-2.718 1.824c-1.065 1.252-2.1 2.467-4.072 2.415-1.971.052-3.008-1.163-4.073-2.415-.765-.9-1.551-1.824-2.718-1.824s-1.957.926-2.72 1.824c-1.067 1.252-2.1 2.467-4.072 2.415-1.973.052-3.008-1.163-4.073-2.415-.765-.9-1.553-1.824-2.722-1.824s-1.953.926-2.718 1.824c-1.065 1.252-2.1 2.467-4.072 2.415-1.971.052-3.006-1.163-4.073-2.415-.763-.9-1.549-1.824-2.718-1.824s-1.955.926-2.72 1.824c-1.065 1.252-2.1 2.467-4.071 2.415-1.971.052-3.006-1.163-4.074-2.415-.765-.9-1.551-1.824-2.718-1.824s-1.957.926-2.72 1.824c-1.065 1.252-2.1 2.467-4.074 2.415-1.969.052-3.006-1.163-4.072-2.415-.764-.9-1.551-1.824-2.718-1.824s-1.957.926-2.72 1.824c-1.067 1.252-2.1 2.467-4.072 2.415-1.973.052-3.006-1.163-4.074-2.415-.765-.9-1.553-1.824-2.722-1.824s-1.953.926-2.718 1.824c-1.065 1.252-2.1 2.467-4.072 2.415-1.971.052-3.006-1.163-4.074-2.415-.763-.9-1.551-1.824-2.718-1.824s-1.955.926-2.72 1.824c-1.154 1.262-2.198 2.484-4.193 2.413z" fill="#ffa7ad" fill-rule="evenodd"/><path data-name="Path 10995" d="M220.845 15.869a1.107 1.107 0 11-1.565-1.565l6.206-6.208-6.206-6.206a1.107 1.107 0 011.565-1.565l6.988 6.988a1.1 1.1 0 010 1.565l-6.988 6.99zM209.933 1.89l6.2 6.206-6.2 6.208a1.107 1.107 0 101.565 1.565l6.988-6.99a1.107 1.107 0 000-1.565L211.498.326a1.107 1.107 0 00-1.565 1.565zm38.959 13.979a1.107 1.107 0 11-1.565-1.565l6.2-6.208-6.2-6.206a1.107 1.107 0 011.565-1.565l6.988 6.988a1.1 1.1 0 010 1.565l-6.988 6.99zm-9.348 0l6.988-6.99a1.11 1.11 0 000-1.565L239.544.326a1.107 1.107 0 00-1.567 1.565l6.206 6.206-6.206 6.208a1.107 1.107 0 101.567 1.565zm-9.349 0l6.986-6.99a1.1 1.1 0 000-1.565L230.195.326a1.107 1.107 0 00-1.567 1.565l6.208 6.206-6.208 6.208a1.107 1.107 0 101.567 1.565z" fill="#ffa7ad" fill-rule="evenodd"/><path data-name="Path 10993" d="M60.641 308.304a6.184 6.184 0 014.386 1.818 6.21 6.21 0 010 8.78l-.066.062a6.207 6.207 0 11-4.324-10.66zm2.827 3.381a3.993 3.993 0 10-.05 5.7l.048-.052a4 4 0 000-5.65z" fill="#ffa7ad" fill-rule="evenodd"/><g data-name="Mask Group 62" clip-path="url(#a)" transform="translate(-13.557 -4159)"><g data-name="Group 2466" fill="#ffa7ad"><path data-name="Path 11208" d="M292.372 4476.533a1.239 1.239 0 112.478 0v3.994h3.994a1.239 1.239 0 110 2.478h-3.994v4a1.239 1.239 0 01-2.478 0v-4h-4a1.239 1.239 0 110-2.478h4z" fill-rule="evenodd"/><path data-name="Path 11209" d="M434.372 4476.533a1.239 1.239 0 112.478 0v3.994h3.994a1.239 1.239 0 110 2.478h-3.994v4a1.239 1.239 0 01-2.478 0v-4h-4a1.239 1.239 0 110-2.478h4z" fill-rule="evenodd"/><path data-name="Path 11171" d="M283.31 4341.432l-3.377-2.325a36.123 36.123 0 00-2.242 3.72l3.631 1.9a32.076 32.076 0 011.988-3.3z"/><path data-name="Path 11172" d="M294.689 4331.246l-1.934-3.615a36.156 36.156 0 00-3.7 2.273l2.352 3.357a32.279 32.279 0 013.279-2.015z"/><path data-name="Path 11173" d="M288.393 4335.659l-2.735-3.057a36.4 36.4 0 00-3.055 3.082l3.075 2.708a32.476 32.476 0 012.715-2.733z"/><path data-name="Path 11174" d="M279.746 4348.243l-3.833-1.451a35.7 35.7 0 00-1.289 4.154l3.982.975a31.9 31.9 0 011.14-3.678z"/><path data-name="Path 11175" d="M301.851 4328.463l-1.015-3.972a36.138 36.138 0 00-4.138 1.326l1.483 3.822a32.4 32.4 0 013.67-1.176z"/><path data-name="Path 11176" d="M273.589 4359.553h4.1a32.5 32.5 0 01.229-3.846l-4.072-.486a36.865 36.865 0 00-.257 4.332z"/><path data-name="Path 11177" d="M284.715 4416.932a25.978 25.978 0 0027.835 32.507 25.929 25.929 0 0051.623-3.476v-110.287a25.927 25.927 0 00-51.781-1.934 25.976 25.976 0 00-26.748 35.331 25.946 25.946 0 00-.929 47.859zm3.845-44.534a22.851 22.851 0 0027.478-16.417l-3.958-1.067a18.966 18.966 0 01-22.178 13.6 21.825 21.825 0 0124.079-30.392l2.44.473v-2.918a21.826 21.826 0 0143.652 0v39.568a18.969 18.969 0 01-16.858-17.868 22.889 22.889 0 006.94-11.229l-3.957-1.066a18.959 18.959 0 01-23.24 13.373l-1.067 3.958a22.913 22.913 0 0017.5-2.276 23.076 23.076 0 0020.683 19.218v66.607a21.827 21.827 0 01-43.63 1.011l-.044-.979a18.955 18.955 0 0118.4-17.817 22.907 22.907 0 0012.559 3.746v-4.1a18.978 18.978 0 01-18.872-17.238 22.884 22.884 0 007.84-2.745l-2.044-3.553a18.98 18.98 0 01-25.887-6.98l-3.558 2.048a23.046 23.046 0 0019.559 11.526 22.948 22.948 0 006.112 13.683 23.088 23.088 0 00-18.176 20.77 21.864 21.864 0 01-23.166-28.925l.674-1.928-1.924-.682a21.836 21.836 0 01.643-41.4z"/><path data-name="Path 11178" d="M436.891 4329.555a32.128 32.128 0 013.51 1.581l1.908-3.629a36.249 36.249 0 00-3.962-1.787z"/><path data-name="Path 11179" d="M446.731 4335.503l2.715-3.073a36.674 36.674 0 00-3.419-2.675l-2.33 3.373a32.447 32.447 0 013.034 2.375z"/><path data-name="Path 11180" d="M451.851 4341.248l3.363-2.344a36.314 36.314 0 00-2.692-3.406l-3.059 2.729a32.418 32.418 0 012.387 3.022z"/><path data-name="Path 11181" d="M429.428 4327.712a32.11 32.11 0 013.79.7l.981-3.982a36.309 36.309 0 00-4.274-.784z"/><path data-name="Path 11182" d="M459.286 4346.554a36.167 36.167 0 00-1.806-3.95l-3.619 1.928a31.992 31.992 0 011.6 3.5z"/><path data-name="Path 11183" d="M449.651 4369.066a25.974 25.974 0 00-26.751-35.324 25.927 25.927 0 00-51.786 1.934v110.287a25.929 25.929 0 0051.624 3.475 25.1 25.1 0 002.922.169 25.936 25.936 0 0021.044-11.04 25.518 25.518 0 003.868-21.631 25.983 25.983 0 00-.928-47.87zm-2.275 44.729l-1.924.682.674 1.928a21.52 21.52 0 01-2.758 19.79 21.83 21.83 0 01-17.7 9.313 21.4 21.4 0 01-2.706-.194 23.089 23.089 0 00-18.179-20.759 22.95 22.95 0 006.112-13.683 23.047 23.047 0 0019.559-11.517l-3.553-2.044a18.981 18.981 0 01-25.887 6.98l-2.044 3.553a22.893 22.893 0 007.84 2.745 18.978 18.978 0 01-18.872 17.238v4.1a22.907 22.907 0 0012.559-3.746 18.955 18.955 0 0118.4 17.817l-.044.979a21.827 21.827 0 01-43.63-1.011v-66.611a23.077 23.077 0 0020.673-19.225 22.921 22.921 0 0011.461 3.082 23.187 23.187 0 006.04-.806l-1.063-3.951a18.959 18.959 0 01-23.24-13.37l-3.958 1.067a22.886 22.886 0 006.94 11.229 18.97 18.97 0 01-16.862 17.863v-39.568a21.826 21.826 0 0143.652 0v2.918l2.44-.473a21.823 21.823 0 0124.079 30.391 18.972 18.972 0 01-22.178-13.6l-3.953 1.068a22.851 22.851 0 0027.481 16.417 21.857 21.857 0 01.641 41.4z"/><path data-name="Path 11184" d="M277.976 4305.661h4.1v4.1h-4.1z"/><path data-name="Path 11185" d="M294.376 4305.661h4.1v4.1h-4.1z"/><path data-name="Path 11186" d="M286.176 4305.661h4.1v4.1h-4.1z"/><path data-name="Path 11187" d="M375.168 4299.319h4.1v4.1h-4.1z"/><path data-name="Path 11188" d="M383.368 4299.319h4.1v4.1h-4.1z"/><path data-name="Path 11189" d="M366.968 4299.319h4.1v4.1h-4.1z"/><path data-name="Path 11190" d="M332.515 4295.859h4.1v4.1h-4.1z"/><path data-name="Path 11191" d="M316.115 4295.859h4.1v4.1h-4.1z"/><path data-name="Path 11192" d="M324.315 4295.859h4.1v4.1h-4.1z"/><path data-name="Path 11193" d="M449.515 4305.661h4.1v4.1h-4.1z"/><path data-name="Path 11194" d="M433.116 4305.661h4.1v4.1h-4.1z"/><path data-name="Path 11195" d="M441.316 4305.661h4.1v4.1h-4.1z"/><path data-name="Path 11196" d="M457.977 4453.645h4.1v4.1h-4.1z"/><path data-name="Path 11197" d="M449.778 4453.645h4.1v4.1h-4.1z"/><path data-name="Path 11198" d="M441.578 4453.645h4.1v4.1h-4.1z"/><path data-name="Path 11199" d="M414.139 4487.245h4.1v4.1h-4.1z"/><path data-name="Path 11200" d="M397.74 4487.245h4.1v4.1h-4.1z"/><path data-name="Path 11201" d="M405.94 4487.245h4.1v4.1h-4.1z"/><path data-name="Path 11202" d="M329.987 4485.987h4.1v4.1h-4.1z"/><path data-name="Path 11203" d="M321.788 4485.987h4.1v4.1h-4.1z"/><path data-name="Path 11204" d="M313.588 4485.987h4.1v4.1h-4.1z"/><path data-name="Path 11205" d="M279.497 4454.002h4.1v4.1h-4.1z"/><path data-name="Path 11206" d="M287.697 4454.002h4.1v4.1h-4.1z"/><path data-name="Path 11207" d="M271.298 4454.002h4.1v4.1h-4.1z"/></g></g><path data-name="Path 10994" d="M187.429 189.206a1.107 1.107 0 112.214 0v3.568h3.568a1.107 1.107 0 110 2.214h-3.568v3.57a1.107 1.107 0 01-2.214 0v-3.57h-3.57a1.107 1.107 0 110-2.214h3.57z" fill="#ffa7ad" fill-rule="evenodd"/></g></svg>