<svg version="1.1" id="Layer_1" xmlns="http://www.w3.org/2000/svg" x="0" y="0" viewBox="0 0 1582 602" xml:space="preserve"><style>.st0,.st1{fill-rule:evenodd;clip-rule:evenodd;fill:#d1d4eb}.st1{fill:#f6cccf}</style><g id="Group_3138" transform="translate(-177 -1837)"><g id="Group_2283" transform="translate(0 -114)"><path id="Path_48" class="st0" d="M1501.4 2036.3c-5.4 1.7-10.3 4.5-14.4 8.3l-8.6-5h-.1c-2.3-1.3-5.2-.5-6.5 1.8v.1l-6.6 11.5c-1.3 2.3-.5 5.3 1.8 6.6h.1l8.5 4.9c-.3 1.2-.5 2.4-.6 3.7-.4 3.1-.4 6.2 0 9.3.2 1.2.4 2.5.6 3.7l-8.6 5c-2.3 1.3-3.1 4.3-1.8 6.6l6.6 11.5c0 .1.1.1.1.2 1.3 2.2 4.2 3 6.4 1.7.1 0 .1-.1.2-.1l8.5-4.9c2.1 1.9 4.3 3.6 6.8 5 2.4 1.4 5 2.5 7.7 3.4v9.9c0 2.7 2.2 4.8 4.8 4.8h13.3c2.7 0 4.8-2.2 4.8-4.8v-9.9c2.7-.8 5.2-2 7.7-3.4 2.4-1.4 4.7-3.1 6.8-5l8.5 4.9c.1 0 .1.1.2.1 2.3 1.2 5.1.5 6.4-1.7 0-.1.1-.1.1-.2l6.6-11.5c1.3-2.3.5-5.3-1.8-6.6l-8.6-5c.3-1.2.5-2.4.6-3.7.4-3.1.4-6.2 0-9.3-.2-1.2-.4-2.5-.6-3.7l8.6-5c2.3-1.3 3.1-4.3 1.8-6.6v-.1l-6.6-11.5c-1.3-2.3-4.3-3.1-6.6-1.8l-8.6 5c-4.1-3.8-9.1-6.7-14.4-8.3v-9.9c0-2.7-2.2-4.8-4.8-4.8h-13.3c-2.7 0-4.8 2.2-4.8 4.8v10zm-39.4 80.2c-2.4.8-4.7 2.1-6.6 3.8l-3.9-2.2c-1.4-.8-3.3-.3-4.1 1.1l-3.3 5.7c-.8 1.4-.3 3.3 1.1 4.1h.1l3.8 2.2c-.1.5-.2.9-.2 1.4-.2 1.6-.2 3.2 0 4.8.1.5.1 1 .2 1.4l-3.9 2.2 16.8-24.5zm-2.2 3.8c1.2-.7 2.4-1.2 3.8-1.6.6-.1 1-.6 1-1.2v-5.4c0-.1 0-.2.1-.3.1-.1.2-.2.4-.2h6.6c.1 0 .3.1.4.2.1.1.2.2.2.4v5.4c0 .6.4 1 .9 1.2 2.7.8 5.1 2.2 7.1 4.1.4.4 1 .5 1.5.2l4.7-2.7c.3-.1.6 0 .7.2l3.3 5.7c.1.1.1.3 0 .4 0 .1-.1.2-.2.3l-4.6 2.6c-.5.3-.8.8-.7 1.4.2.7.3 1.4.4 2 .2 1.4.2 2.8 0 4.2-.1.7-.2 1.4-.4 2-.1.5.1 1.1.6 1.4l4.7 2.7c.1.1.2.2.2.3v.4l-3.3 5.7c-.1.1-.2.2-.3.2h-.4l-4.7-2.7c-.5-.3-1.1-.2-1.5.2-1 1-2.1 1.8-3.3 2.5-1.2.7-2.4 1.2-3.8 1.6-.6.1-1 .6-1 1.2v5.4c0 .1-.1.3-.2.4-.1.1-.2.2-.4.2h-6.6c-.1 0-.2 0-.3-.1-.1-.1-.2-.2-.2-.4v-5.4c0-.6-.4-1-.9-1.2-1.3-.4-2.6-.9-3.8-1.6-1.2-.7-2.3-1.5-3.3-2.5-.4-.4-1-.5-1.5-.2l-4.7 2.7c-.3.1-.6.1-.7-.2l-3.3-5.7c-.1-.3-.1-.6.2-.7l4.6-2.6c.5-.3.8-.8.7-1.4-.2-.7-.3-1.4-.4-2-.2-1.4-.2-2.8 0-4.2.1-.7.2-1.4.4-2 .1-.5-.1-1.1-.6-1.4l-4.6-2.6-.1-.1c-.1-.1-.2-.2-.2-.3v-.3s.1-.1.1-.2l3.2-5.6c.1-.1.2-.2.3-.2h.4l4.6 2.7c.5.3 1.1.3 1.5-.1 1-1.3 2.2-2.1 3.4-2.8zm-14.6 20.8l16.8-24.6v-4.5c0-.8.3-1.5.8-2 0 0 0-.1.1-.1.6-.6 1.3-.9 2.1-.9h6.6c.8 0 1.6.3 2.1.9.6.6.9 1.3.9 2.1v4.5c1.2.4 2.4.9 3.5 1.6 1.1.6 2.1 1.4 3.1 2.2l3.9-2.2c1.4-.8 3.3-.3 4.1 1.1l3.3 5.7c.8 1.4.3 3.3-1.1 4.1l-3.9 2.2c.1.5.2.9.2 1.4.2 1.6.2 3.2 0 4.8-.1.5-.1 1-.2 1.4l3.9 2.2c1.4.8 1.9 2.7 1.1 4.1l-3.3 5.7c-.8 1.4-2.6 1.9-4 1.2h-.1l-3.9-2.2c-1.9 1.7-4.2 3-6.6 3.8v4.5c0 1.7-1.4 3-3 3h-6.6c-.8 0-1.5-.3-2-.8l-.1-.1c-.6-.6-.9-1.3-.9-2.1v-4.5c-2.4-.8-4.7-2.1-6.6-3.8l-3.9 2.2c-1.4.8-3.3.3-4.1-1.1l-3.3-5.7c-.8-1.4-.3-3.2 1.1-4.1zm0 0zm23.1-16.7c5.9 0 10.7 4.8 10.7 10.7 0 5.9-4.8 10.7-10.7 10.7s-10.7-4.8-10.7-10.7c0-2.8 1.1-5.5 3.1-7.5 2.1-2.1 4.8-3.2 7.6-3.2zm-5.8 4.9c3.2-3.2 8.4-3.2 11.5 0 3.2 3.2 3.2 8.4 0 11.6-3.2 3.2-8.4 3.2-11.5 0-1.5-1.5-2.4-3.6-2.4-5.8 0-2.2.9-4.3 2.4-5.8zm50.4-33.7c-12.6 0-22.7-10.2-22.7-22.7 0-12.6 10.2-22.7 22.7-22.7 12.6 0 22.7 10.2 22.7 22.7 0 6-2.4 11.8-6.7 16.1-4.2 4.2-10 6.6-16 6.6zm-17.4-5.4c-9.6-9.6-9.6-25.2 0-34.8 9.6-9.6 25.2-9.6 34.8 0 9.6 9.6 9.6 25.2 0 34.8-4.6 4.6-10.9 7.2-17.4 7.2-6.6.1-12.8-2.5-17.4-7.2zm-.6-48.4c2.5-1.4 5.2-2.6 8-3.4.6-.1 1-.6 1-1.2v-10.9c0-1.3 1-2.3 2.3-2.3h13.3c1.3 0 2.3 1 2.3 2.3v10.9c0 .6.4 1 .9 1.2 5.6 1.6 10.7 4.6 14.9 8.6.4.4 1 .5 1.5.2l9.4-5.4c1.1-.6 2.5-.3 3.2.9l6.6 11.5v.1c.6 1.1.3 2.5-.9 3.2l-9.3 5.4c-.5.3-.8.8-.7 1.4 1.4 5.7 1.4 11.6 0 17.3-.1.5.1 1.1.6 1.4l9.4 5.4c1.1.7 1.5 2.1.9 3.2l-6.6 11.5v.1c-.7 1.1-2.1 1.5-3.2.9l-9.4-5.4c-.5-.3-1.1-.3-1.5.1-4.2 4.1-9.3 7-14.9 8.6-.6.1-1 .6-1 1.2v10.9c0 1.3-1 2.3-2.3 2.3h-13.3c-1.3 0-2.3-1-2.3-2.3v-10.9c0-.6-.4-1-.9-1.2-2.8-.8-5.5-1.9-8-3.4s-4.9-3.2-7-5.3c-.4-.4-1-.5-1.5-.2l-9.4 5.4h-.1c-1.1.6-2.5.3-3.2-.9l-6.7-11.5c-.6-1.1-.3-2.5.9-3.2l9.3-5.4c.5-.3.8-.8.7-1.4-1.4-5.7-1.4-11.6 0-17.3.1-.5-.1-1.1-.6-1.4l-9.3-5.4h-.1c-1.1-.7-1.5-2.1-.9-3.2l6.6-11.5v-.1c.6-1.1 2-1.5 3.1-.9l9.4 5.4c.5.3 1.1.2 1.5-.2 2.5-1.9 4.8-3.7 7.3-5.1zm18 10.8c11.2 0 20.3 9.1 20.3 20.3 0 11.2-9.1 20.3-20.3 20.3-11.2 0-20.3-9.1-20.3-20.3 0-5.4 2.1-10.5 5.9-14.3 3.8-3.9 9-6 14.4-6zm-12.6 7.7c6.9-6.9 18.2-7 25.2 0s7 18.2 0 25.2c-6.9 6.9-18.2 7-25.2 0-3.3-3.3-5.2-7.9-5.2-12.6 0-4.8 1.8-9.3 5.2-12.6z"/><path id="Path_49" class="st1" d="M262.5 2496.2c-.8 0-1.4-.7-1.4-1.4s.7-1.4 1.4-1.4h.1c1.2 0 2.1-1 3.1-2.1 1.4-1.7 2.9-3.4 5.7-3.4s4.3 1.7 5.7 3.4c.9 1.1 1.8 2.2 3.1 2.1h.1c1.2 0 2.1-1 3.1-2.1 1.4-1.7 2.9-3.4 5.7-3.4s4.3 1.7 5.7 3.4c.9 1.1 1.8 2.2 3.1 2.1h.1c1.2 0 2.1-1 3.1-2.1 1.4-1.7 2.9-3.4 5.7-3.4s4.3 1.7 5.7 3.4c.9 1.1 1.8 2.2 3.1 2.1h.1c1.2 0 2.1-1 3.1-2.1 1.4-1.7 2.9-3.4 5.7-3.4s4.3 1.7 5.7 3.4c.9 1.1 1.8 2.2 3.1 2.1h.1c1.2 0 2.1-1 3.1-2.1 1.4-1.7 2.9-3.4 5.7-3.4s4.3 1.7 5.7 3.4c.9 1.1 1.8 2.2 3.1 2.1h.1c1.2 0 2.1-1 3.1-2.1 1.4-1.7 2.9-3.4 5.7-3.4s4.3 1.7 5.7 3.4c.9 1.1 1.8 2.2 3.1 2.1h.1c1.2 0 2.1-1 3.1-2.1 1.4-1.7 2.9-3.4 5.7-3.4s4.3 1.7 5.7 3.4c.9 1.1 1.8 2.2 3.1 2.1h.1c1.2 0 2.1-1 3.1-2.1 1.4-1.7 2.9-3.4 5.7-3.4s4.3 1.7 5.7 3.4c.9 1.1 1.8 2.2 3.1 2.1h.1c1.2 0 2.1-1 3.1-2.1 1.4-1.7 2.9-3.4 5.7-3.4 2.8 0 4.3 1.7 5.7 3.4.9 1.1 1.8 2.2 3.1 2.1h.1c1.2 0 2.1-1 3.1-2.1 1.4-1.7 2.9-3.4 5.7-3.4s4.3 1.7 5.7 3.4c.9 1.1 1.8 2.2 3.1 2.1h.1c1.2 0 2.1-1 3.1-2.1 1.4-1.7 2.9-3.4 5.7-3.4s4.3 1.7 5.7 3.4c.9 1.1 1.8 2.2 3.1 2.1h.1c1.2 0 2.1-1 3.1-2.1 1.4-1.7 2.9-3.4 5.7-3.4s4.3 1.7 5.7 3.4c.9 1.1 1.8 2.2 3.1 2.1h.1c1.2 0 2.1-1 3.1-2.1 1.4-1.7 2.9-3.4 5.7-3.4s4.3 1.7 5.7 3.4c.9 1.1 1.8 2.2 3.1 2.1h.1c1.2 0 2.1-1 3.1-2.1 1.4-1.7 2.9-3.4 5.7-3.4s4.3 1.7 5.7 3.4c.9 1.1 1.8 2.2 3.1 2.1h.1c1.2 0 2.1-1 3.1-2.1 1.4-1.7 2.9-3.4 5.7-3.4s4.3 1.7 5.7 3.4c.9 1.1 1.8 2.2 3.1 2.1.8 0 1.4.6 1.4 1.4 0 .8-.6 1.4-1.3 1.4-2.6.1-4-1.5-5.3-3.1-1-1.2-2-2.4-3.5-2.4s-2.5 1.2-3.5 2.4c-1.4 1.6-2.7 3.2-5.3 3.1-2.6.1-3.9-1.5-5.3-3.1-1-1.2-2-2.4-3.5-2.4s-2.5 1.2-3.5 2.4c-1.4 1.6-2.7 3.2-5.3 3.1-2.6.1-3.9-1.5-5.3-3.1-1-1.2-2-2.4-3.5-2.4s-2.5 1.2-3.5 2.4c-1.4 1.6-2.7 3.2-5.3 3.1-2.6.1-3.9-1.5-5.3-3.1-1-1.2-2-2.4-3.5-2.4s-2.5 1.2-3.5 2.4c-1.4 1.6-2.7 3.2-5.3 3.1-2.6.1-3.9-1.5-5.3-3.1-1-1.2-2-2.4-3.5-2.4s-2.5 1.2-3.5 2.4c-1.4 1.6-2.7 3.2-5.3 3.1-2.6.1-3.9-1.5-5.3-3.1-1-1.2-2-2.4-3.5-2.4s-2.5 1.2-3.5 2.4c-1.4 1.6-2.7 3.2-5.3 3.1-2.6.1-3.9-1.5-5.3-3.1-1-1.2-2-2.4-3.5-2.4s-2.5 1.2-3.5 2.4c-1.4 1.6-2.7 3.2-5.3 3.1-2.6.1-3.9-1.5-5.3-3.1-1-1.2-2-2.4-3.5-2.4s-2.5 1.2-3.5 2.4c-1.4 1.6-2.7 3.2-5.3 3.1-2.6.1-3.9-1.5-5.3-3.1-1-1.2-2-2.4-3.5-2.4s-2.5 1.2-3.5 2.4c-1.4 1.6-2.7 3.2-5.3 3.1-2.6.1-3.9-1.5-5.3-3.1-1-1.2-2-2.4-3.5-2.4s-2.5 1.2-3.5 2.4c-1.4 1.6-2.7 3.2-5.3 3.1-2.6.1-3.9-1.5-5.3-3.1-1-1.2-2-2.4-3.5-2.4s-2.5 1.2-3.5 2.4c-1.4 1.6-2.7 3.2-5.3 3.1-2.6.1-3.9-1.5-5.3-3.1-1-1.2-2-2.4-3.5-2.4s-2.5 1.2-3.5 2.4c-1.4 1.6-2.7 3.2-5.3 3.1-2.6.1-3.9-1.5-5.3-3.1-1-1.2-2-2.4-3.5-2.4s-2.5 1.2-3.5 2.4c-1.4 1.6-2.7 3.2-5.3 3.1-2.6.1-3.9-1.5-5.3-3.1-1-1.2-2-2.4-3.5-2.4s-2.5 1.2-3.5 2.4c-1.4 1.6-2.7 3.2-5.3 3.1-2.6.1-3.9-1.5-5.3-3.1-1-1.2-2-2.4-3.5-2.4s-2.5 1.2-3.5 2.4c-2.9 1.6-4.3 3.2-6.9 3.1z"/><path id="Path_50" class="st1" d="M646 2013.2c-.6.6-1.5.6-2 0s-.6-1.5 0-2l8.1-8.1-8.1-8.1c-.6-.6-.6-1.5 0-2s1.5-.6 2 0l9.1 9.1c.6.6.6 1.5 0 2l-9.1 9.1zm-14.2-18.1l8.1 8.1-8.1 8.1c-.6.6-.6 1.5 0 2 .6.6 1.5.6 2 0l9.1-9.1c.6-.6.6-1.5 0-2l-9.1-9.1c-.6-.6-1.5-.6-2 0-.5.5-.5 1.4 0 2zm50.7 18.1c-.6.6-1.5.6-2 0s-.6-1.5 0-2l8.1-8.1-8.1-8.1c-.6-.6-.6-1.5 0-2s1.5-.6 2 0l9.1 9.1c.6.6.6 1.5 0 2l-9.1 9.1zm-12.2 0l9.1-9.1c.6-.6.6-1.5 0-2l-9.1-9.1c-.6-.6-1.5-.6-2 0s-.6 1.5 0 2l8.1 8.1-8.1 8.1c-.6.6-.6 1.5 0 2 .6.6 1.5.6 2 0zm-12.1 0l9.1-9.1c.6-.6.6-1.5 0-2l-9.1-9.1c-.6-.6-1.5-.6-2 0s-.6 1.5 0 2l8.1 8.1-8.1 8.1c-.6.6-.6 1.5 0 2 .5.6 1.4.6 2 0z"/><path id="Path_51" class="st1" d="M1279.3 2101.9c-.6.6-1.5.6-2 0-.6-.6-.6-1.5 0-2l8.1-8.1-8.1-8.1c-.6-.6-.6-1.5 0-2 .6-.6 1.5-.6 2 0l9.1 9.1c.6.6.6 1.5 0 2l-9.1 9.1zm-14.2-18.2l8.1 8.1-8.1 8.1c-.6.5-.6 1.5 0 2 .5.6 1.5.6 2 0l9.1-9.1c.6-.6.6-1.5 0-2l-9.1-9.1c-.6-.6-1.5-.6-2 0s-.5 1.5 0 2zm50.7 18.2c-.6.6-1.5.6-2 0-.6-.6-.6-1.5 0-2l8.1-8.1-8.1-8.1c-.6-.6-.6-1.5 0-2 .6-.6 1.5-.6 2 0l9.1 9.1c.6.6.6 1.5 0 2l-9.1 9.1zm-12.2 0l9.1-9.1c.6-.6.6-1.5 0-2l-9.1-9.1c-.6-.6-1.5-.6-2 0-.6.6-.6 1.5 0 2l8.1 8.1-8.1 8.1c-.6.6-.6 1.5 0 2 .6.6 1.5.6 2 0zm-12.1 0l9.1-9.1c.6-.6.6-1.5 0-2l-9.1-9.1c-.6-.6-1.5-.6-2 0-.6.6-.6 1.5 0 2l8.1 8.1-8.1 8.1c-.6.6-.6 1.5 0 2 .5.6 1.4.6 2 0z"/><path id="Path_52" class="st1" d="M384.1 2046c.8 0 1.5.6 1.5 1.4 0 .8-.6 1.5-1.4 1.5-2.6.1-4-1.5-5.4-3.1-1-1.2-2-2.4-3.5-2.4s-2.5 1.2-3.5 2.4c-1.4 1.6-2.7 3.2-5.3 3.1-2.6.1-3.9-1.5-5.3-3.1-1-1.2-2-2.4-3.5-2.4s-2.5 1.2-3.5 2.4c-1.4 1.6-2.7 3.2-5.3 3.1-2.6.1-3.9-1.5-5.3-3.1-1-1.2-2-2.4-3.5-2.4s-2.5 1.2-3.5 2.4c-1.4 1.6-2.7 3.2-5.3 3.1-2.6.1-3.9-1.5-5.3-3.1-1-1.2-2-2.4-3.5-2.4s-2.5 1.2-3.5 2.4c-1.4 1.6-2.7 3.2-5.3 3.1-2.6.1-3.9-1.5-5.3-3.1-1-1.2-2-2.4-3.5-2.4s-2.5 1.2-3.5 2.4c-1.4 1.6-2.8 3.2-5.4 3.1-.8 0-1.4-.7-1.4-1.5s.7-1.4 1.5-1.4c1.2 0 2.1-1 3.1-2.1 1.4-1.7 2.9-3.4 5.7-3.4s4.3 1.7 5.7 3.4c.9 1.1 1.8 2.2 3.1 2.1h.1c1.2 0 2.1-1 3.1-2.1 1.4-1.7 2.9-3.4 5.7-3.4s4.3 1.7 5.7 3.4c.9 1.1 1.8 2.2 3.1 2.1h.1c1.2 0 2.1-1 3.1-2.1 1.4-1.7 2.9-3.4 5.7-3.4s4.3 1.7 5.7 3.4c.9 1.1 1.8 2.2 3.1 2.1h.1c1.2 0 2.1-1 3.1-2.1 1.4-1.7 2.9-3.4 5.7-3.4s4.3 1.7 5.7 3.4c.9 1.1 1.8 2.2 3.1 2.1h.1c1.2 0 2.1-1 3.1-2.1 1.4-1.7 2.9-3.4 5.7-3.4s4.3 1.7 5.7 3.4c.5 1.1 1.4 2.2 2.7 2.1z"/><path id="Path_53" class="st1" d="M340 2353.3c2.1 0 4.2.8 5.7 2.4 3.2 3.2 3.2 8.3 0 11.4l-.1.1c-3.2 3.1-8.3 3-11.4-.2-3.1-3.2-3-8.3.2-11.4 1.5-1.5 3.5-2.3 5.6-2.3zm3.7 4.4c-2-2-5.3-2-7.3 0s-2 5.3 0 7.3 5.2 2 7.3.1l.1-.1c1.9-2 1.9-5.3-.1-7.3z"/><path id="Path_10989" class="st1" d="M1407.8 2299.4c-2.1 0-4.2-.8-5.7-2.4-3.2-3.2-3.2-8.3 0-11.4l.1-.1c3.2-3.1 8.3-3 11.4.2s3 8.3-.2 11.4c-1.5 1.5-3.5 2.3-5.6 2.3zm-3.7-4.4c2 2 5.3 2 7.3 0s2-5.3 0-7.3-5.2-2-7.3-.1l-.1.1c-1.9 2-1.9 5.3.1 7.3z"/><path id="Path_56" class="st1" d="M857.7 2399.4c0-.8.6-1.4 1.4-1.4s1.4.6 1.4 1.4v4.6h4.6c.8 0 1.4.6 1.4 1.4 0 .8-.6 1.4-1.4 1.4h-4.6v4.6c0 .8-.6 1.4-1.4 1.4s-1.4-.6-1.4-1.4v-4.6H853c-.8 0-1.4-.6-1.4-1.4 0-.8.6-1.4 1.4-1.4h4.6l.1-4.6z"/><path id="Path_57" class="st1" d="M1560.1 2454c0-.8.6-1.4 1.4-1.4s1.4.6 1.4 1.4v4.6h4.6c.8 0 1.4.6 1.4 1.4 0 .8-.6 1.4-1.4 1.4h-4.6v4.6c0 .8-.6 1.4-1.4 1.4s-1.4-.6-1.4-1.4v-4.6h-4.6c-.8 0-1.4-.6-1.4-1.4 0-.8.6-1.4 1.4-1.4h4.6v-4.6z"/><path id="Path_58" class="st1" d="M504.9 2303.7c0-.8.6-1.4 1.4-1.4s1.4.6 1.4 1.4v4.6h4.6c.8 0 1.4.6 1.4 1.4 0 .8-.6 1.4-1.4 1.4h-4.6v4.6c0 .8-.6 1.4-1.4 1.4s-1.4-.6-1.4-1.4v-4.6h-4.6c-.8 0-1.4-.6-1.4-1.4 0-.8.6-1.4 1.4-1.4h4.6v-4.6z"/><path id="Path_10990" class="st1" d="M1242.9 2349c0 .8-.6 1.4-1.4 1.4-.8 0-1.4-.6-1.4-1.4v-4.6h-4.6c-.8 0-1.4-.6-1.4-1.4s.6-1.4 1.4-1.4h4.6v-4.6c0-.8.6-1.4 1.4-1.4.8 0 1.4.6 1.4 1.4v4.6h4.6c.8 0 1.4.6 1.4 1.4s-.6 1.4-1.4 1.4h-4.6v4.6z"/><path id="Path_63" class="st1" d="M1632.6 2412.6h-5.6c-.1 0-.2 0-.3.1-.1.1-.1.2-.1.3v4.6c0 .5-.3.9-.8 1-2.3.7-4.3 1.9-6 3.5-.4.3-.9.4-1.3.1l-3.9-2.3c-.2-.1-.5 0-.6.2l-2.8 4.8s0 .1-.1.1v.3c0 .1.1.2.2.2 0 0 .1 0 .1.1l3.9 2.2c.4.2.6.7.5 1.2-.1.6-.2 1.2-.3 1.7-.1 1.2-.1 2.4 0 3.6.1.6.2 1.2.3 1.7.1.5-.1 1-.6 1.2l-3.9 2.3c-.1.1-.2.2-.2.3v.3l2.8 4.9c.1.1.2.2.3.2h.3l4-2.3c.4-.2.9-.2 1.3.2 1.7 1.7 3.8 2.9 6.1 3.5.5.1.8.5.8 1v4.6c0 .1 0 .2.1.3.1.1.2.1.3.1h5.6c.1 0 .2 0 .3-.1.1-.1.1-.2.1-.3v-4.6c0-.5.3-.9.8-1 2.3-.7 4.3-1.9 6-3.5.3-.3.9-.4 1.3-.2l4 2.3c.1 0 .2.1.3 0 .1 0 .2-.1.3-.2l2.8-4.9c.1-.1.1-.2 0-.3 0-.1-.1-.2-.2-.3l-4-2.3c-.4-.2-.6-.7-.5-1.2.1-.6.3-1.2.3-1.7.1-1.2.1-2.4 0-3.6-.1-.6-.2-1.2-.3-1.7-.1-.5.1-1 .6-1.2l3.9-2.3c.1-.1.2-.2.2-.3v-.3l-2.8-4.9c-.1-.1-.2-.2-.3-.2h-.3l-4 2.3c-.4.2-1 .2-1.3-.2-.8-.8-1.8-1.5-2.8-2.1-1-.6-2.1-1.1-3.2-1.4-.5-.1-.8-.5-.8-1v-4.6c0-.1 0-.2-.1-.3-.2.1-.3.1-.4.1zm-9.3 13.6c3.5-3.5 9.3-3.5 12.8 0s3.5 9.3 0 12.8-9.3 3.5-12.8 0c-1.7-1.7-2.7-4-2.7-6.4.1-2.4 1-4.7 2.7-6.4z"/><path id="Path_74" class="st0" d="M685.7 2457.7c-7.8-2.5-14.9-6.6-21-12.1l-12.5 7.2-.1.1c-3.3 1.8-7.5.7-9.5-2.6l-.1-.1-9.6-16.7c-1.9-3.3-.8-7.6 2.6-9.6l.1-.1 12.4-7.2c-.4-1.8-.7-3.5-.9-5.3-.5-4.5-.5-9 0-13.5.2-1.8.5-3.6.9-5.3l-12.5-7.2c-3.3-1.9-4.5-6.2-2.6-9.6l9.6-16.6c0-.1.1-.2.2-.3 1.9-3.2 6.1-4.3 9.4-2.5.1 0 .2.1.3.2l12.4 7.1c6-5.5 13.2-9.7 21-12.1V2337c0-3.9 3.1-7 7-7h19.4c3.9 0 7 3.1 7 7v14.4c7.8 2.5 14.9 6.6 21 12.1l12.4-7.1c.1-.1.2-.1.3-.2 3.3-1.8 7.4-.7 9.3 2.5.1.1.1.2.2.3l9.6 16.6c1.9 3.4.8 7.6-2.6 9.6l-12.5 7.2c.4 1.8.7 3.5.9 5.3.5 4.5.5 9 0 13.5-.2 1.8-.5 3.6-.9 5.3l12.5 7.2c3.4 1.9 4.5 6.2 2.6 9.6l-.1.1-9.6 16.7c-1.9 3.3-6.2 4.5-9.6 2.6l-12.5-7.2c-3 2.8-6.3 5.2-9.8 7.2-3.5 2-7.2 3.7-11.1 4.9v14.4c0 3.9-3.1 7-7 7h-19.4c-3.9 0-7-3.1-7-7v-14.3zm-57.2-116.6c-3.5-1.2-6.8-3.1-9.6-5.5l-5.6 3.2c-2.1 1.2-4.8.5-6-1.6l-4.8-8.3c-1.2-2.1-.5-4.8 1.6-6l.1-.1 5.5-3.2-.3-2.1c-.3-2.3-.3-4.6 0-6.9l.3-2.1-5.6-3.2 24.4 35.8zm-3.2-5.4c1.7 1 3.6 1.8 5.5 2.3.8.2 1.4.9 1.4 1.8v7.8c0 .2.1.4.2.5.1.1.3.2.5.2h9.6c.2 0 .4-.1.5-.2.1-.1.2-.3.2-.5v-7.8c0-.8.5-1.5 1.3-1.7 1.9-.6 3.8-1.3 5.5-2.4 1.7-1 3.4-2.2 4.8-3.6.6-.6 1.5-.7 2.2-.3l6.8 3.9c.2.1.4.1.6.1.2 0 .4-.2.5-.3l4.8-8.3c.1-.2.1-.4.1-.6-.1-.2-.2-.4-.4-.5l-6.7-3.8c-.8-.4-1.2-1.2-1-2.1.2-1 .4-2 .5-3 .2-2 .2-4 0-6.1-.1-1-.3-2-.5-3-.2-.8.2-1.6.9-2l6.8-3.9c.2-.1.3-.3.3-.5.1-.2 0-.4-.1-.6l-4.8-8.3c-.1-.2-.3-.3-.5-.3h-.5l-6.8 3.9c-.7.4-1.6.3-2.2-.3-1.5-1.4-3.1-2.6-4.8-3.6-1.7-1-3.6-1.8-5.5-2.3-.8-.2-1.4-.9-1.4-1.8v-7.8c0-.2-.1-.4-.2-.5-.1-.1-.3-.2-.5-.2h-9.6c-.2 0-.4.1-.5.2-.1.1-.2.3-.2.5v7.8c0 .8-.5 1.5-1.3 1.7-3.9 1.1-7.5 3.2-10.4 6-.6.6-1.5.7-2.1.3l-6.8-3.9c-.2-.1-.4-.1-.6-.1-.2 0-.4.2-.5.3l-4.8 8.3c-.2.4-.1.8.3 1.1l6.7 3.8c.8.4 1.2 1.2 1 2.1-1 3.9-1 8.1 0 12 .2.8-.2 1.6-.9 2l-6.6 3.8c-.1 0-.1.1-.2.1-.1.1-.2.3-.3.4v.5c0 .1.1.1.1.2l4.7 8.2c.1.2.3.3.5.3.2.1.4 0 .6-.1l6.7-3.9c.7-.5 1.6-.4 2.2.2 1.5 1.7 3.1 3 4.9 4zm-21.1-30.3l24.4 35.7v6.5c0 1.1.4 2.2 1.2 3l.1.1c.8.8 1.9 1.3 3.1 1.3h9.6c1.2 0 2.3-.5 3.1-1.3.8-.8 1.3-1.9 1.3-3.1v-6.5c1.8-.6 3.4-1.4 5-2.3 1.6-.9 3.1-2 4.5-3.2l5.6 3.2c2.1 1.2 4.8.5 6-1.6l4.8-8.3c1.2-2.1.5-4.8-1.6-6l-5.6-3.2.3-2.1c.3-2.3.3-4.6 0-6.9l-.3-2.1 5.6-3.2c2.1-1.2 2.8-3.9 1.6-6l-4.8-8.3c-1.2-2-3.8-2.8-5.9-1.7 0 0-.1 0-.1.1l-5.6 3.2c-1.4-1.2-2.9-2.3-4.5-3.2-1.6-.9-3.3-1.7-5-2.3v-6.5c0-2.4-2-4.4-4.4-4.4H633c-1.1 0-2.2.4-3 1.2l-.1.1c-.8.8-1.3 1.9-1.3 3.1v6.5c-3.5 1.2-6.8 3.1-9.6 5.5l-5.6-3.2c-2.1-1.2-4.8-.5-6 1.6l-4.8 8.3c-1.2 2.1-.5 4.8 1.6 6zm0 0zm33.5 24.3c8.6 0 15.5-6.9 15.5-15.5s-6.9-15.5-15.5-15.5-15.5 6.9-15.5 15.5c0 4.1 1.6 8 4.5 11 3 2.8 6.9 4.5 11 4.5zm-8.4-7.1c4.6 4.6 12.2 4.6 16.8 0 4.6-4.6 4.6-12.2 0-16.8s-12.2-4.6-16.8 0c-2.2 2.2-3.5 5.2-3.5 8.4 0 3.1 1.3 6.1 3.5 8.4zm73.1 48.9c-18.2 0-33 14.8-33 33s14.8 33 33 33 33-14.8 33-33c0-8.8-3.5-17.2-9.7-23.4-6.1-6.1-14.5-9.6-23.3-9.6zm-25.2 7.8c-14 14-14 36.6 0 50.5s36.6 14 50.5 0 14-36.6 0-50.5c-6.7-6.7-15.8-10.5-25.3-10.5-9.4 0-18.5 3.8-25.2 10.5zm-.8 70.4c3.6 2.1 7.5 3.8 11.5 4.9.8.2 1.4.9 1.4 1.8v15.8c0 1.9 1.5 3.4 3.4 3.4h19.4c1.9 0 3.4-1.5 3.4-3.4v-15.8c0-.8.5-1.5 1.3-1.7 4.1-1.2 8-2.8 11.6-4.9 3.7-2.1 7-4.7 10.1-7.6.6-.6 1.5-.7 2.2-.3l13.7 7.9c1.6.9 3.7.4 4.6-1.2l9.6-16.7.1-.1c.9-1.6.4-3.7-1.2-4.6l-13.6-7.8c-.8-.4-1.2-1.2-1-2.1.5-2 .9-4.1 1.1-6.2.5-4.2.5-8.5 0-12.7-.3-2.1-.6-4.2-1.1-6.2-.2-.8.2-1.6.9-2l13.7-7.9c1.6-.9 2.2-3 1.2-4.6l-9.6-16.7-.1-.1c-.9-1.6-3-2.2-4.6-1.2l-13.6 7.8c-.7.5-1.6.4-2.2-.2-3.1-2.9-6.5-5.5-10.1-7.6-3.6-2.1-7.5-3.8-11.5-4.9-.8-.2-1.4-.9-1.4-1.8v-16c0-1.9-1.5-3.4-3.4-3.4h-19.4c-1.9 0-3.4 1.5-3.4 3.4v15.8c0 .8-.5 1.5-1.3 1.7-4.1 1.2-8 2.8-11.6 4.9-3.7 2.1-7.1 4.7-10.1 7.6-.6.6-1.5.7-2.1.3l-13.6-7.8-.1-.1c-1.6-.9-3.7-.4-4.6 1.2l-9.7 16.8c-.9 1.6-.4 3.7 1.2 4.6l13.6 7.8c.8.4 1.2 1.2 1 2.1-2 8.3-2 16.9 0 25.1.2.8-.2 1.6-.9 2l-13.6 7.8-.1.1c-1.6.9-2.2 3-1.2 4.6l9.6 16.7.1.1c.9 1.6 2.9 2.2 4.6 1.3h.1l13.7-7.9c.7-.4 1.6-.3 2.2.3 2.7 3 6.2 5.6 9.8 7.7zm26-15.7c16.3 0 29.5-13.2 29.5-29.5s-13.2-29.5-29.5-29.5-29.5 13.2-29.5 29.5c0 7.8 3.1 15.3 8.6 20.8 5.6 5.6 13.1 8.7 20.9 8.7zm-18.2-11.2c10.1 10.1 26.5 10.1 36.5 0 10.1-10.1 10.1-26.5 0-36.5-10.1-10.1-26.5-10.1-36.5 0-4.8 4.8-7.6 11.4-7.6 18.3 0 6.8 2.7 13.4 7.6 18.2z"/><path id="Path_75" class="st0" d="M1314.8 2398.3v2c.1.6.7 1.1 1.3 1 .2 0 .4-.1.6-.3.2-.2.3-.4.3-.7v-3.9c-.1-.6-.7-1.1-1.3-1-.2 0-.4.1-.6.3-.2.2-.3.4-.3.7v1.9zm187.7-236.6c-.1-.6-.7-1.1-1.3-1-.2 0-.4.1-.6.3-.2.2-.3.4-.3.7v1.9c.1.6.7 1.1 1.3 1 .2 0 .4-.1.6-.3.2-.2.3-.4.3-.7v-1.9zm-88.4 189.4c-.5-.1-1 .3-1.1.8 0 .3.1.6.3.8.2.2.5.3.8.3h2.2c.5.1 1-.3 1.1-.8 0-.3-.1-.6-.3-.8-.2-.2-.5-.3-.8-.3h-2.2zm8.9 0c-.5-.1-1 .3-1.1.8 0 .3.1.6.3.8.2.2.5.3.8.3h2.2c.5.1 1-.3 1.1-.8 0-.3-.1-.6-.3-.8-.2-.2-.5-.3-.8-.3h-2.2zm8.8 0c-.5-.1-1 .3-1.1.8 0 .3.1.6.3.8.2.2.5.3.8.3h2.2c.5.1 1-.3 1.1-.8 0-.3-.1-.6-.3-.8-.2-.2-.5-.3-.8-.3h-2.2zm8.9 0c-.5-.1-1 .3-1.1.8 0 .3.1.6.3.8.2.2.5.3.8.3h2.2c.5.1 1-.3 1.1-.8 0-.3-.1-.6-.3-.8-.2-.2-.5-.3-.8-.3h-2.2zm8.9 0c-.5-.1-1 .3-1.1.8 0 .3.1.6.3.8.2.2.5.3.8.3h2.2c.5.1 1-.3 1.1-.8 0-.3-.1-.6-.3-.8-.2-.2-.5-.3-.8-.3h-2.2zm8.9 0c-.5-.1-1 .3-1.1.8 0 .3.1.6.3.8.2.2.5.3.8.3h2.2c.5.1 1-.3 1.1-.8 0-.3-.1-.6-.3-.8-.2-.2-.5-.3-.8-.3h-2.2zm8.8 0c-.5-.1-1 .3-1.1.8 0 .3.1.6.3.8.2.2.5.3.8.3h2.2c.5.1 1-.3 1.1-.8 0-.3-.1-.6-.3-.8-.2-.2-.5-.3-.8-.3h-2.2zm8.9 0c-.5-.1-1 .3-1.1.8 0 .3.1.6.3.8.2.2.5.3.8.3h2.2c.5.1 1-.3 1.1-.8 0-.3-.1-.6-.3-.8-.2-.2-.5-.3-.8-.3h-2.2zm8.5-.6c-.5.1-.9.5-.8 1.1.1.4.4.8.9.8h.5c.8-.2 1.5-.4 2.2-.6 1.2-.4.8-1.9-.4-1.9-.1 0-.2 0-.3.1-.7.2-1.4.3-2.1.5zm7.5-3.3c-.4.3-.5.8-.3 1.2.4.5 1.1.7 1.7.3.6-.4 1.2-.9 1.8-1.3.9-.8 0-2-1.2-1.6-.1 0-.2.1-.4.2-.5.4-1 .9-1.6 1.2zm5.5-5.5c-.5.8.5 1.8 1.5 1.3.2-.1.4-.2.5-.4.4-.6.7-1.2 1-1.8.5-.9-.8-1.8-1.7-1.1-.1.1-.2.2-.3.4-.4.5-.7 1-1 1.6zm2.5-7c-.1 1.1 1.5 1.5 2.1.5.1-.1.1-.2.1-.3.1-.7.1-1.4.1-2-.1-.6-.7-1.1-1.3-1-.2 0-.4.1-.6.3-.2.2-.3.4-.3.7 0 .5 0 1.1-.1 1.8zm.1-7.7c.1.6.7 1.1 1.3 1 .2 0 .4-.1.6-.3.2-.2.3-.4.3-.7v-1.9c-.1-.6-.7-1.1-1.3-1-.2 0-.4.1-.6.3-.2.2-.3.4-.3.7v1.9zm0-7.8c.1.6.7 1.1 1.3 1 .2 0 .4-.1.6-.3.2-.2.3-.4.3-.7v-1.9c-.1-.6-.7-1.1-1.3-1-.2 0-.4.1-.6.3-.2.2-.3.4-.3.7v1.9zm0-7.8c.1.6.7 1.1 1.3 1 .2 0 .4-.1.6-.3.2-.2.3-.4.3-.7v-1.9c-.1-.6-.7-1.1-1.3-1-.2 0-.4.1-.6.3-.2.2-.3.4-.3.7v1.9zm0-7.8c.1.6.7 1.1 1.3 1 .2 0 .4-.1.6-.3.2-.2.3-.4.3-.7v-1.9c-.1-.6-.7-1.1-1.3-1-.2 0-.4.1-.6.3-.2.2-.3.4-.3.7v1.9zm0-7.7c.1.6.7 1.1 1.3 1 .2 0 .4-.1.6-.3.2-.2.3-.4.3-.7v-1.9c-.1-.6-.7-1.1-1.3-1-.2 0-.4.1-.6.3-.2.2-.3.4-.3.7v1.9zm0-7.8c.1.6.7 1.1 1.3 1 .2 0 .4-.1.6-.3.2-.2.3-.4.3-.7v-1.9c-.1-.6-.7-1.1-1.3-1-.2 0-.4.1-.6.3-.2.2-.3.4-.3.7v1.9zm0-7.8c.1.6.7 1.1 1.3 1 .2 0 .4-.1.6-.3.2-.2.3-.4.3-.7v-1.9c-.1-.6-.7-1.1-1.3-1-.2 0-.4.1-.6.3-.2.2-.3.4-.3.7v1.9zm0-7.8c.1.6.7 1.1 1.3 1 .2 0 .4-.1.6-.3.2-.2.3-.4.3-.7v-1.9c-.1-.6-.7-1.1-1.3-1-.2 0-.4.1-.6.3-.2.2-.3.4-.3.7v1.9zm0-7.7c.1.6.7 1.1 1.3 1 .2 0 .4-.1.6-.3.2-.2.3-.4.3-.7v-1.9c-.1-.6-.7-1.1-1.3-1-.2 0-.4.1-.6.3-.2.2-.3.4-.3.7v1.9zm0-7.8c.1.6.7 1.1 1.3 1 .2 0 .4-.1.6-.3.2-.2.3-.4.3-.7v-1.9c-.1-.6-.7-1.1-1.3-1-.2 0-.4.1-.6.3-.2.2-.3.4-.3.7v1.9zm0-7.8c.1.6.7 1.1 1.3 1 .2 0 .4-.1.6-.3.2-.2.3-.4.3-.7v-1.9c-.1-.6-.7-1.1-1.3-1-.2 0-.4.1-.6.3-.2.2-.3.4-.3.7v1.9zm0-7.8c.1.6.7 1.1 1.3 1 .2 0 .4-.1.6-.3.2-.2.3-.4.3-.7v-1.9c-.1-.6-.7-1.1-1.3-1-.2 0-.4.1-.6.3-.2.2-.3.4-.3.7v1.9zm0-7.8c.1.6.7 1.1 1.3 1 .2 0 .4-.1.6-.3.2-.2.3-.4.3-.7v-1.9c-.1-.6-.7-1.1-1.3-1-.2 0-.4.1-.6.3-.2.2-.3.4-.3.7v1.9zm0-7.7c.1.6.7 1.1 1.3 1 .2 0 .4-.1.6-.3.2-.2.3-.4.3-.7v-1.9c-.1-.6-.7-1.1-1.3-1-.2 0-.4.1-.6.3-.2.2-.3.4-.3.7v1.9zm0-7.8c.1.6.7 1.1 1.3 1 .2 0 .4-.1.6-.3.2-.2.3-.4.3-.7v-1.9c-.1-.6-.7-1.1-1.3-1-.2 0-.4.1-.6.3-.2.2-.3.4-.3.7v1.9zm0-7.8c.1.6.7 1.1 1.3 1 .2 0 .4-.1.6-.3.2-.2.3-.4.3-.7v-1.9c-.1-.6-.7-1.1-1.3-1-.2 0-.4.1-.6.3-.2.2-.3.4-.3.7v1.9zm0-7.8c.1.6.7 1.1 1.3 1 .2 0 .4-.1.6-.3.2-.2.3-.4.3-.7v-1.9c-.1-.6-.7-1.1-1.3-1-.2 0-.4.1-.6.3-.2.2-.3.4-.3.7v1.9zm0-7.7c.1.6.7 1.1 1.3 1 .2 0 .4-.1.6-.3.2-.2.3-.4.3-.7v-1.9c-.1-.6-.7-1.1-1.3-1-.2 0-.4.1-.6.3-.2.2-.3.4-.3.7v1.9zm0-7.8c.1.6.7 1.1 1.3 1 .2 0 .4-.1.6-.3.2-.2.3-.4.3-.7v-1.9c-.1-.6-.7-1.1-1.3-1-.2 0-.4.1-.6.3-.2.2-.3.4-.3.7v1.9zm0-7.8c.1.6.7 1.1 1.3 1 .2 0 .4-.1.6-.3.2-.2.3-.4.3-.7v-1.9c-.1-.6-.7-1.1-1.3-1-.2 0-.4.1-.6.3-.2.2-.3.4-.3.7v1.9zm0-7.8c.1.6.7 1.1 1.3 1 .2 0 .4-.1.6-.3.2-.2.3-.4.3-.7v-1.9c-.1-.6-.7-1.1-1.3-1-.2 0-.4.1-.6.3-.2.2-.3.4-.3.7v1.9zm-92.5 181.6c.5.1 1-.3 1.1-.8 0-.3-.1-.6-.3-.8-.2-.2-.5-.3-.8-.3h-2.2c-.5-.1-1 .3-1.1.8 0 .3.1.6.3.8.2.2.5.3.8.3h2.2zm-8.8 0c.5.1 1-.3 1.1-.8 0-.3-.1-.6-.3-.8-.2-.2-.5-.3-.8-.3h-2.2c-.5-.1-1 .3-1.1.8 0 .3.1.6.3.8.2.2.5.3.8.3h2.2zm-8.9 0c.5.1 1-.3 1.1-.8 0-.3-.1-.6-.3-.8-.2-.2-.5-.3-.8-.3h-2.2c-.5-.1-1 .3-1.1.8 0 .3.1.6.3.8.2.2.5.3.8.3h2.2zm-8.9 0c.5.1 1-.3 1.1-.8 0-.3-.1-.6-.3-.8-.2-.2-.5-.3-.8-.3h-2.2c-.5-.1-1 .3-1.1.8 0 .3.1.6.3.8.2.2.5.3.8.3h2.2zm-8.9 0c.5.1 1-.3 1.1-.8 0-.3-.1-.6-.3-.8-.2-.2-.5-.3-.8-.3h-2.2c-.5-.1-1 .3-1.1.8 0 .3.1.6.3.8.2.2.5.3.8.3h2.2zm-8.8 0c.5.1 1-.3 1.1-.8 0-.3-.1-.6-.3-.8-.2-.2-.5-.3-.8-.3h-2.2c-.5-.1-1 .3-1.1.8 0 .3.1.6.3.8.2.2.5.3.8.3h2.2zm-8.9 0c.5.1 1-.3 1.1-.8 0-.3-.1-.6-.3-.8-.2-.2-.5-.3-.8-.3h-2.2c-.5-.1-1 .3-1.1.8 0 .3.1.6.3.8.2.2.5.3.8.3h2.2zm-8.9 0c.5.1 1-.3 1.1-.8 0-.3-.1-.6-.3-.8-.2-.2-.5-.3-.8-.3h-2.2c-.5-.1-1 .3-1.1.8 0 .3.1.6.3.8.2.2.5.3.8.3h2.2zm-8.8 0c.5 0 .9-.3 1-.8.1-.6-.4-1.1-.9-1.1h-.2c-.8 0-1.5.1-2.3.2-.4 0-.8.3-.9.7-.1.6.2 1.1.8 1.2h.4c.7 0 1.4-.1 2.1-.2zm-.1-1.9l-2 2.1 2-2.1zm-8 3.8c.5-.2.7-.8.5-1.2-.2-.4-.6-.7-1-.6-.2 0-.3 0-.5.1-.7.3-1.4.6-2 1-.5.2-.6.8-.4 1.3.1.3.4.5.7.5.3.1.6 0 .8-.1.6-.5 1.2-.8 1.9-1zm-6.7 4.4c.8-.8-.2-1.9-1.3-1.5-.1.1-.3.1-.4.2-.5.5-1 1-1.4 1.6-.7.8.4 1.9 1.5 1.4l.3-.3c.4-.4.9-.9 1.3-1.4zm-4.1 6.4c.4-1-1-1.7-1.9-.9-.1.1-.2.2-.2.4-.2.6-.4 1.3-.6 2-.2 1 1.2 1.6 2 .8.1-.1.1-.2.2-.4.1-.7.3-1.3.5-1.9zm-1 7.4c-.1-.6-.7-1.1-1.3-1-.2 0-.4.1-.6.3-.2.2-.3.4-.3.7v1.9c.1.6.7 1.1 1.3 1 .2 0 .4-.1.6-.3.2-.2.3-.4.3-.7v-1.9zm0 7.8c-.1-.6-.7-1.1-1.3-1-.2 0-.4.1-.6.3-.2.2-.3.4-.3.7v1.9c.1.6.7 1.1 1.3 1 .2 0 .4-.1.6-.3.2-.2.3-.4.3-.7v-1.9zm0 7.7c-.1-.6-.7-1.1-1.3-1-.2 0-.4.1-.6.3-.2.2-.3.4-.3.7v1.9c.1.6.7 1.1 1.3 1 .2 0 .4-.1.6-.3.2-.2.3-.4.3-.7v-1.9zm-194.8 105.5c-.5-.1-1 .3-1.1.8 0 .3.1.6.3.8.2.2.5.3.8.3h.4c.5.1 1-.3 1.1-.8 0-.3-.1-.6-.3-.8-.2-.2-.5-.3-.8-.3h-.4zm7 0c-.5-.1-1 .3-1.1.8 0 .3.1.6.3.8.2.2.5.3.8.3h2.2c.5.1 1-.3 1.1-.8 0-.3-.1-.6-.3-.8-.2-.2-.5-.3-.8-.3h-2.2zm8.9 0c-.5-.1-1 .3-1.1.8 0 .3.1.6.3.8.2.2.5.3.8.3h2.2c.5.1 1-.3 1.1-.8 0-.3-.1-.6-.3-.8-.2-.2-.5-.3-.8-.3h-2.2zm8.9 0c-.5-.1-1 .3-1.1.8 0 .3.1.6.3.8.2.2.5.3.8.3h2.2c.5.1 1-.3 1.1-.8 0-.3-.1-.6-.3-.8-.2-.2-.5-.3-.8-.3h-2.2zm8.8 0c-.5-.1-1 .3-1.1.8 0 .3.1.6.3.8.2.2.5.3.8.3h2.2c.5.1 1-.3 1.1-.8 0-.3-.1-.6-.3-.8-.2-.2-.5-.3-.8-.3h-2.2zm8.9 0c-.5-.1-1 .3-1.1.8 0 .3.1.6.3.8.2.2.5.3.8.3h2.2c.5.1 1-.3 1.1-.8 0-.3-.1-.6-.3-.8-.2-.2-.5-.3-.8-.3h-2.2zm8.9 0c-.5-.1-1 .3-1.1.8 0 .3.1.6.3.8.2.2.5.3.8.3h2.2c.5.1 1-.3 1.1-.8 0-.3-.1-.6-.3-.8-.2-.2-.5-.3-.8-.3h-2.2zm8.9 0c-.5-.1-1 .3-1.1.8 0 .3.1.6.3.8.2.2.5.3.8.3h2.2c.5.1 1-.3 1.1-.8 0-.3-.1-.6-.3-.8-.2-.2-.5-.3-.8-.3h-2.2zm8.8 0c-.5-.1-1 .3-1.1.8 0 .3.1.6.3.8.2.2.5.3.8.3h2.2c.5.1 1-.3 1.1-.8 0-.3-.1-.6-.3-.8-.2-.2-.5-.3-.8-.3h-2.2zm8.9 0c-.5-.1-1 .3-1.1.8 0 .3.1.6.3.8.2.2.5.3.8.3h2.2c.5.1 1-.3 1.1-.8 0-.3-.1-.6-.3-.8-.2-.2-.5-.3-.8-.3h-2.2zm8.9 0c-.5-.1-1 .3-1.1.8 0 .3.1.6.3.8.2.2.5.3.8.3h2.2c.5.1 1-.3 1.1-.8 0-.3-.1-.6-.3-.8-.2-.2-.5-.3-.8-.3h-2.2zm8.9 0c-.5-.1-1 .3-1.1.8 0 .3.1.6.3.8.2.2.5.3.8.3h2.2c.5.1 1-.3 1.1-.8 0-.3-.1-.6-.3-.8-.2-.2-.5-.3-.8-.3h-2.2zm8.8 0c-.5-.1-1 .3-1.1.8 0 .3.1.6.3.8.2.2.5.3.8.3h2.2c.5.1 1-.3 1.1-.8 0-.3-.1-.6-.3-.8-.2-.2-.5-.3-.8-.3h-2.2zm8.9 0c-.5-.1-1 .3-1.1.8 0 .3.1.6.3.8.2.2.5.3.8.3h2.2c.5.1 1-.3 1.1-.8 0-.3-.1-.6-.3-.8-.2-.2-.5-.3-.8-.3h-2.2zm8.9 0c-.5-.1-1 .3-1.1.8 0 .3.1.6.3.8.2.2.5.3.8.3h2.2c.5.1 1-.3 1.1-.8 0-.3-.1-.6-.3-.8-.2-.2-.5-.3-.8-.3h-2.2zm8.9 0c-.5-.1-1 .3-1.1.8 0 .3.1.6.3.8.2.2.5.3.8.3h2.2c.5.1 1-.3 1.1-.8 0-.3-.1-.6-.3-.8-.2-.2-.5-.3-.8-.3h-2.2zm8.8 0c-.5-.1-1 .3-1.1.8 0 .3.1.6.3.8.2.2.5.3.8.3h2.2c.5.1 1-.3 1.1-.8 0-.3-.1-.6-.3-.8-.2-.2-.5-.3-.8-.3h-2.2zm8.9 0c-.5-.1-1 .3-1.1.8 0 .4.1.7.5.9.2.1.4.2.7.2.8 0 1.5 0 2.3-.1.5 0 1-.4 1-.9s-.3-.9-.8-1h-.3c-.9.1-1.6.1-2.3.1zm8.6-.9c-.3.1-.6.3-.8.5-.4.7.4 1.5 1.3 1.4.7-.1 1.5-.3 2.2-.5.5-.1.9-.6.8-1.1-.1-.5-.5-.8-1-.8h-.3c-.8.2-1.5.3-2.2.5zm8.2-2.4c-.4.1-.7.6-.7 1 .1.6.7 1 1.3.8.1 0 .1 0 .2-.1.7-.3 1.4-.5 2.1-.8 1.1-.5.6-2-.7-1.8-.1 0-.2 0-.3.1-.6.3-1.3.6-1.9.8zm7.5-3.7c-.4.3-.6.9-.3 1.3.2.3.5.5.9.5.3 0 .5 0 .7-.2l1.8-1.2c.4-.3.5-.9.3-1.3-.2-.3-.5-.4-.8-.4-.3 0-.6 0-.8.2-.6.4-1.2.7-1.8 1.1zm6.6-4.9c-.3.2-.4.6-.3.9.2.6.9.9 1.5.7.1-.1.2-.1.4-.2l1.5-1.5c.3-.2.3-.6.2-.9-.3-.6-1-.9-1.6-.6-.1.1-.2.1-.3.2-.4.5-.9 1-1.4 1.4zm5.4-5.9c-.2.3-.2.7 0 1 .4.5 1.2.6 1.7.2l.2-.2c.4-.6.8-1.1 1.2-1.7.6-1-.8-2-1.7-1.2l-.2.2c-.4.6-.8 1.2-1.2 1.7zm4-6.7c-.5 1 1 1.8 1.9 1 .1-.1.2-.2.2-.3.3-.6.6-1.2.8-1.9.4-1.1-1.2-1.8-2-.9-.1.1-.1.1-.1.2-.2.7-.5 1.3-.8 1.9zm2.5-7.3c-.2 1 1.4 1.6 2 .7.1-.1.1-.2.1-.3.1-.7.3-1.3.4-2 .2-1.1-1.6-1.6-2.1-.5 0 .1-.1.2-.1.3l-.3 1.8zm.8-7.5c.1.6.7 1.1 1.3 1 .2 0 .4-.1.6-.3.2-.2.3-.4.3-.7v-1.9c-.1-.6-.7-1.1-1.3-1-.2 0-.4.1-.6.3-.2.2-.3.4-.3.7v1.9zm0-7.8c.1.6.7 1.1 1.3 1 .2 0 .4-.1.6-.3.2-.2.3-.4.3-.7v-1.9c-.1-.6-.7-1.1-1.3-1-.2 0-.4.1-.6.3-.2.2-.3.4-.3.7v1.9zm0-7.8c.1.6.7 1.1 1.3 1 .2 0 .4-.1.6-.3.2-.2.3-.4.3-.7v-1.9c-.1-.6-.7-1.1-1.3-1-.2 0-.4.1-.6.3-.2.2-.3.4-.3.7v1.9zm0-7.8c.1.6.7 1.1 1.3 1 .2 0 .4-.1.6-.3.2-.2.3-.4.3-.7v-1.9c-.1-.6-.7-1.1-1.3-1-.2 0-.4.1-.6.3-.2.2-.3.4-.3.7v1.9zm0-7.8c.1.6.7 1.1 1.3 1 .2 0 .4-.1.6-.3.2-.2.3-.4.3-.7v-1.9c-.1-.6-.7-1.1-1.3-1-.2 0-.4.1-.6.3-.2.2-.3.4-.3.7v1.9zm0-7.7c.1.6.7 1.1 1.3 1 .2 0 .4-.1.6-.3.2-.2.3-.4.3-.7v-1.9c-.1-.6-.7-1.1-1.3-1-.2 0-.4.1-.6.3-.2.2-.3.4-.3.7v1.9zm0-7.8c.1.6.7 1.1 1.3 1 .2 0 .4-.1.6-.3.2-.2.3-.4.3-.7v-1.9c-.1-.6-.7-1.1-1.3-1-.2 0-.4.1-.6.3-.2.2-.3.4-.3.7v1.9z"/></g></g></svg>