<svg xmlns="http://www.w3.org/2000/svg" width="524.944" height="267.479" viewBox="0 0 524.944 267.479"><g data-name="Group 3139" fill-rule="evenodd"><g data-name="Group 2285"><path data-name="Path 75" d="M417.802 171.874v.762a.443.443 0 00.735.27.355.355 0 00.129-.27v-1.516a.443.443 0 00-.736-.269.353.353 0 00-.128.269zm73.093-92.144a.444.444 0 00-.736-.27.356.356 0 00-.128.27v.757a.442.442 0 00.735.268.356.356 0 00.129-.268zm-34.433 73.742a.375.375 0 00-.307.644.459.459 0 00.307.113h.864a.375.375 0 00.307-.644.458.458 0 00-.307-.113h-.864zm3.457 0a.376.376 0 00-.308.644.464.464 0 00.308.113h.866a.375.375 0 00.306-.644.455.455 0 00-.306-.113h-.864zm3.454 0a.375.375 0 00-.306.644.46.46 0 00.306.113h.864a.375.375 0 00.308-.644.459.459 0 00-.308-.113h-.864zm3.457 0a.375.375 0 00-.307.644.463.463 0 00.307.113h.864a.375.375 0 00.307-.644.454.454 0 00-.307-.113h-.864zm3.455 0a.375.375 0 00-.306.644.46.46 0 00.306.113h.864a.375.375 0 00.308-.644.457.457 0 00-.308-.113h-.864zm3.457 0a.375.375 0 00-.306.644.458.458 0 00.306.113h.864a.375.375 0 00.307-.644.454.454 0 00-.307-.113h-.864zm3.457 0a.375.375 0 00-.307.644.461.461 0 00.307.113h.863a.375.375 0 00.308-.644.459.459 0 00-.308-.113h-.863zm3.455 0a.375.375 0 00-.307.644.463.463 0 00.307.113h.864a.376.376 0 00.308-.644.461.461 0 00-.308-.113h-.864zm3.322-.231a.37.37 0 00.018.735.506.506 0 00.2 0 9.75 9.75 0 00.867-.243c.457-.16.314-.745-.173-.731a.477.477 0 00-.136.023 7.887 7.887 0 01-.779.219zm2.918-1.27a.347.347 0 00-.116.473.468.468 0 00.65.122q.357-.245.686-.52c.336-.293-.015-.771-.463-.623a.443.443 0 00-.137.079c-.2.165-.406.323-.62.47zm2.122-2.171c-.208.319.2.692.575.519a.407.407 0 00.181-.153 7.691 7.691 0 00.4-.714c.176-.356-.32-.7-.679-.436a.4.4 0 00-.117.139 6.487 6.487 0 01-.36.644zm.975-2.723c-.045.411.594.581.816.206a.346.346 0 00.044-.133 7.03 7.03 0 00.045-.793.443.443 0 00-.736-.269.352.352 0 00-.128.269 6.566 6.566 0 01-.04.72zm.04-2.991a.442.442 0 00.735.268.358.358 0 00.129-.268v-.757a.443.443 0 00-.736-.27.354.354 0 00-.128.27zm0-3.029a.442.442 0 00.735.269.36.36 0 00.129-.269v-.757a.443.443 0 00-.736-.269.354.354 0 00-.128.269zm0-3.029a.443.443 0 00.735.27.362.362 0 00.129-.27v-.756a.443.443 0 00-.736-.27.357.357 0 00-.128.27zm0-3.028a.442.442 0 00.735.269.359.359 0 00.129-.269v-.757a.443.443 0 00-.736-.269.355.355 0 00-.128.269zm0-3.029a.443.443 0 00.735.27.359.359 0 00.129-.27v-.751a.443.443 0 00-.736-.269.353.353 0 00-.128.269zm0-3.028a.443.443 0 00.735.269.357.357 0 00.129-.269v-.757a.443.443 0 00-.736-.269.355.355 0 00-.128.269zm0-3.029a.443.443 0 00.735.27.361.361 0 00.129-.27v-.757a.443.443 0 00-.736-.268.353.353 0 00-.128.268zm0-3.028a.443.443 0 00.735.269.358.358 0 00.129-.269v-.757a.443.443 0 00-.736-.269.355.355 0 00-.128.269zm0-3.029a.442.442 0 00.735.269.357.357 0 00.129-.269v-.756a.443.443 0 00-.736-.269.352.352 0 00-.128.269zm0-3.027a.442.442 0 00.735.268.356.356 0 00.129-.268v-.757a.443.443 0 00-.736-.27.354.354 0 00-.128.27zm0-3.029a.442.442 0 00.735.268.356.356 0 00.129-.268v-.757a.443.443 0 00-.736-.269.352.352 0 00-.128.269zm0-3.029a.442.442 0 00.735.269.36.36 0 00.129-.269v-.757a.443.443 0 00-.736-.269.354.354 0 00-.128.269zm0-3.028a.442.442 0 00.735.268.357.357 0 00.129-.268v-.757a.444.444 0 00-.736-.27.355.355 0 00-.128.27zm0-3.029a.442.442 0 00.735.269.36.36 0 00.129-.269v-.757a.443.443 0 00-.736-.269.355.355 0 00-.128.269zm0-3.028a.443.443 0 00.735.269.362.362 0 00.129-.269v-.757a.443.443 0 00-.736-.27.357.357 0 00-.128.27zm0-3.029a.443.443 0 00.735.27.362.362 0 00.129-.27v-.757a.443.443 0 00-.736-.269.355.355 0 00-.128.269zm0-3.029a.443.443 0 00.735.27.359.359 0 00.129-.27v-.756a.443.443 0 00-.736-.269.355.355 0 00-.128.269zm.735-2.759a.357.357 0 00.129-.269v-.757a.443.443 0 00-.736-.268.351.351 0 00-.128.268v.757s.466.505.735.269zm-.735-3.3a.443.443 0 00.735.269.359.359 0 00.129-.269v-.758a.443.443 0 00-.736-.268.353.353 0 00-.128.268zm0-3.029a.443.443 0 00.735.27.361.361 0 00.129-.27v-.757a.443.443 0 00-.736-.268.351.351 0 00-.128.268zm0-3.029a.442.442 0 00.735.27.359.359 0 00.129-.27v-.756a.443.443 0 00-.736-.269.354.354 0 00-.128.269zm-36 70.715a.376.376 0 00.308-.644.459.459 0 00-.308-.113h-.864a.375.375 0 00-.306.644.46.46 0 00.306.113h.864zm-3.455 0a.375.375 0 00.307-.644.454.454 0 00-.307-.113h-.864a.375.375 0 00-.307.644.463.463 0 00.307.113h.864zm-3.457 0a.375.375 0 00.308-.644.459.459 0 00-.308-.113h-.864a.375.375 0 00-.306.644.458.458 0 00.306.113h.864zm-3.454 0a.375.375 0 00.306-.644.455.455 0 00-.306-.113h-.864a.375.375 0 00-.308.644.462.462 0 00.308.113h.864zm-3.457 0a.375.375 0 00.306-.644.453.453 0 00-.306-.113h-.864a.375.375 0 00-.307.644.459.459 0 00.307.113zm-3.457 0a.375.375 0 00.307-.644.456.456 0 00-.307-.113h-.863a.375.375 0 00-.303.65.462.462 0 00.308.113h.863zm-3.455 0a.375.375 0 00.306-.644.453.453 0 00-.306-.113h-.864a.376.376 0 00-.308.644.464.464 0 00.308.113h.864zm-3.457 0a.375.375 0 00.307-.644.456.456 0 00-.307-.113h-.863a.375.375 0 00-.308.644.462.462 0 00.308.113h.863zm-3.432.007a.415.415 0 00.4-.319.4.4 0 00-.45-.438c-.3.012-.6.037-.9.076a.417.417 0 00-.35.273.4.4 0 00.48.476c.28-.026.533-.056.818-.069zm-.046-.756l-.771.825.771-.825zm-3.114 1.459a.374.374 0 00-.194-.718.457.457 0 00-.185.038 8.481 8.481 0 00-.8.384.365.365 0 00.129.689.48.48 0 00.329-.047 9.1 9.1 0 01.717-.346zm-2.588 1.738c.3-.3-.067-.757-.507-.592a.435.435 0 00-.145.1 7.6 7.6 0 00-.56.625c-.267.331.174.758.588.534a.423.423 0 00.118-.1 7.33 7.33 0 01.506-.565zm-1.604 2.487c.138-.377-.4-.672-.732-.37a.366.366 0 00-.091.139 7.19 7.19 0 00-.235.767c-.1.388.487.635.774.3a.351.351 0 00.07-.142 7.143 7.143 0 01.213-.694zm-.389 2.876a.444.444 0 00-.736-.27.355.355 0 00-.128.27v.757a.442.442 0 00.735.268.353.353 0 00.129-.268zm0 3.027a.443.443 0 00-.736-.268.353.353 0 00-.128.268v.755a.443.443 0 00.735.27.357.357 0 00.129-.27zm0 3.029a.442.442 0 00-.736-.268.351.351 0 00-.128.268v.757a.443.443 0 00.735.269.353.353 0 00.129-.269zm-73.122 41.069a.375.375 0 00-.307.644.463.463 0 00.307.113h.864a.376.376 0 00.308-.645.465.465 0 00-.308-.112h-.864zm3.457 0a.375.375 0 00-.307.644.461.461 0 00.307.113h.864a.376.376 0 00.307-.645.462.462 0 00-.307-.112h-.864zm3.455 0a.375.375 0 00-.307.644.463.463 0 00.307.113h.864a.376.376 0 00.308-.645.465.465 0 00-.308-.112h-.864zm3.457 0a.376.376 0 00-.308.644.466.466 0 00.308.113h.864a.375.375 0 00.306-.645.459.459 0 00-.306-.112h-.864zm3.457 0a.375.375 0 00-.308.644.46.46 0 00.307.113h.863a.375.375 0 00.307-.645.46.46 0 00-.307-.112h-.863zm3.455 0a.375.375 0 00-.307.644.459.459 0 00.307.113h.86a.375.375 0 00.306-.645.457.457 0 00-.306-.112h-.86zm3.457 0a.375.375 0 00-.308.644.462.462 0 00.311.113h.864a.375.375 0 00.306-.645.459.459 0 00-.306-.112h-.864zm3.454 0a.375.375 0 00-.306.644.458.458 0 00.306.113h.865a.376.376 0 00.307-.645.462.462 0 00-.307-.112h-.865zm3.457 0a.375.375 0 00-.308.644.463.463 0 00.307.113h.864a.376.376 0 00.307-.645.46.46 0 00-.307-.112h-.864zm3.455 0a.375.375 0 00-.306.644.458.458 0 00.306.113h.864a.376.376 0 00.308-.645.463.463 0 00-.308-.112h-.864zm3.457 0a.375.375 0 00-.307.644.463.463 0 00.306.113h.864a.376.376 0 00.307-.645.46.46 0 00-.307-.112h-.864zm3.455 0a.375.375 0 00-.306.644.46.46 0 00.306.113h.864a.376.376 0 00.308-.645.463.463 0 00-.308-.112h-.864zm3.457 0a.376.376 0 00-.308.644.468.468 0 00.307.113h.869a.376.376 0 00.307-.645.458.458 0 00-.307-.112h-.864zm3.455 0a.375.375 0 00-.307.644.465.465 0 00.307.113h.864a.376.376 0 00.308-.645.465.465 0 00-.308-.112h-.864zm3.457 0a.376.376 0 00-.308.644.464.464 0 00.307.113h.864a.376.376 0 00.307-.645.462.462 0 00-.307-.112h-.864zm3.455 0a.375.375 0 00-.307.644.463.463 0 00.308.113h.864a.375.375 0 00.307-.645.46.46 0 00-.307-.112h-.864zm3.445 0a.373.373 0 00-.231.692.473.473 0 00.254.066c.292-.006.591-.019.884-.038a.374.374 0 00.062-.746.5.5 0 00-.128-.017c-.28.017-.562.03-.841.035zm3.34-.357a.419.419 0 00-.3.212c-.146.287.139.592.488.526q.431-.085.86-.189a.374.374 0 00-.1-.742.436.436 0 00-.132.007q-.406.1-.818.179zm3.2-.921a.375.375 0 00-.254.39.437.437 0 00.605.3c.27-.1.539-.213.8-.329.428-.195.235-.768-.262-.712a.425.425 0 00-.128.036c-.252.11-.507.214-.763.314zm2.934-1.445a.37.37 0 00.214.687.476.476 0 00.284-.068q.362-.222.713-.459a.368.368 0 00-.208-.68.481.481 0 00-.323.076c-.222.151-.448.3-.68.438zm2.568-1.92a.346.346 0 00-.107.358.455.455 0 00.728.168c.206-.187.405-.374.6-.57a.339.339 0 00.087-.361.459.459 0 00-.736-.138q-.28.278-.573.542zm2.106-2.3a.34.34 0 00-.009.4.466.466 0 00.733.012c.162-.217.316-.436.466-.658.249-.381-.311-.767-.677-.462a.43.43 0 00-.069.079 14.5 14.5 0 01-.444.628zm1.561-2.614c-.176.388.394.71.725.392a.355.355 0 00.077-.109c.109-.24.214-.481.312-.726.158-.428-.487-.7-.767-.333a.374.374 0 00-.048.085c-.093.232-.192.463-.3.691zm.954-2.826c-.086.406.541.627.8.261a.356.356 0 00.053-.124c.055-.254.1-.507.145-.762.061-.435-.612-.6-.823-.207a.332.332 0 00-.032.1c-.041.245-.087.487-.14.731zm.311-2.942a.442.442 0 00.735.269.355.355 0 00.129-.269v-.757a.443.443 0 00-.736-.269.353.353 0 00-.128.269zm0-3.028a.442.442 0 00.735.268.354.354 0 00.129-.268v-.757a.444.444 0 00-.736-.27.354.354 0 00-.128.27zm0-3.029a.442.442 0 00.735.269.356.356 0 00.129-.269v-.761a.443.443 0 00-.736-.269.353.353 0 00-.128.269zm0-3.029a.443.443 0 00.735.27.357.357 0 00.129-.27v-.756a.443.443 0 00-.736-.27.356.356 0 00-.128.27zm0-3.028a.442.442 0 00.735.269.356.356 0 00.129-.269v-.757a.444.444 0 00-.736-.27.358.358 0 00-.128.27zm0-3.028a.443.443 0 00.735.269.355.355 0 00.129-.269v-.758a.443.443 0 00-.736-.268.353.353 0 00-.128.268zm0-3.029a.443.443 0 00.735.269.353.353 0 00.129-.269v-.757a.442.442 0 00-.736-.268.351.351 0 00-.128.268z" fill="#d1d4eb"/><path data-name="Path 48" d="M488.192 9.056a23.55 23.55 0 00-8.845 5.116l-5.287-3.051-.05-.027a2.958 2.958 0 00-3.989 1.108l-.023.043-4.066 7.043a2.958 2.958 0 001.081 4.037l.043.022 5.241 3.026q-.249 1.113-.388 2.254a23.59 23.59 0 000 5.716q.139 1.141.388 2.254l-5.283 3.05a2.958 2.958 0 00-1.081 4.037l4.054 7.021a.707.707 0 00.066.116 2.963 2.963 0 003.952 1.062.858.858 0 00.118-.07l5.224-3.016a23.58 23.58 0 004.15 3.05 23.314 23.314 0 004.7 2.067v6.1a2.967 2.967 0 002.96 2.959h8.177a2.965 2.965 0 002.959-2.959v-6.1a23.288 23.288 0 004.7-2.067 23.589 23.589 0 004.151-3.05l5.225 3.018a.724.724 0 00.132.075 2.96 2.96 0 003.936-1.068.717.717 0 00.065-.116l4.053-7.02a2.958 2.958 0 00-1.083-4.041l-5.28-3.048q.248-1.112.388-2.255a23.744 23.744 0 000-5.717q-.139-1.139-.388-2.253l5.28-3.048a2.958 2.958 0 001.083-4.039l-.023-.04-4.075-7.044a2.956 2.956 0 00-4.036-1.081l-5.285 3.051a23.506 23.506 0 00-8.846-5.116v-6.1a2.965 2.965 0 00-2.959-2.959h-8.177a2.967 2.967 0 00-2.96 2.959v6.1zm-24.141 49.207a11.992 11.992 0 00-4.038 2.337l-2.375-1.371a1.844 1.844 0 00-2.522.679l-2.024 3.506a1.846 1.846 0 00.678 2.518l.043.024 2.329 1.344q-.087.434-.141.877a12.063 12.063 0 000 2.917q.054.441.141.878l-2.369 1.367 10.28-15.076zm-1.365 2.288a10.366 10.366 0 012.306-.984.764.764 0 00.587-.744v-3.3a.325.325 0 01.075-.207l.02-.02a.324.324 0 01.226-.1h4.045a.32.32 0 01.226.1.321.321 0 01.094.227v3.3a.766.766 0 00.555.734 10.408 10.408 0 014.363 2.516.764.764 0 00.928.126l2.858-1.65a.335.335 0 01.442.119l2.023 3.5a.324.324 0 01.028.247.316.316 0 01-.148.2l-2.812 1.623a.764.764 0 00-.4.866 10.441 10.441 0 01.231 1.253 10.6 10.6 0 010 2.561 10.382 10.382 0 01-.231 1.251.763.763 0 00.36.842l2.856 1.649a.313.313 0 01.145.2.324.324 0 01-.028.247l-2.023 3.5a.326.326 0 01-.2.146.332.332 0 01-.223-.019l-2.879-1.661a.76.76 0 00-.91.11 10.563 10.563 0 01-2.04 1.538 10.4 10.4 0 01-2.307.984.765.765 0 00-.588.744v3.3a.319.319 0 01-.1.226.315.315 0 01-.226.1h-4.045a.325.325 0 01-.206-.073l-.021-.022a.319.319 0 01-.1-.226v-3.3a.765.765 0 00-.555-.734 10.393 10.393 0 01-2.338-.993 10.535 10.535 0 01-2.042-1.538.761.761 0 00-.907-.11l-2.859 1.649a.331.331 0 01-.443-.116l-2.023-3.5a.33.33 0 01.12-.444l2.811-1.624a.762.762 0 00.4-.867 10.6 10.6 0 01-.23-1.251 10.738 10.738 0 010-2.56 10.64 10.64 0 01.23-1.254.758.758 0 00-.361-.842l-2.791-1.612a.678.678 0 00-.085-.051.332.332 0 01-.125-.181.339.339 0 01.013-.213.877.877 0 00.052-.1l1.987-3.442a.318.318 0 01.2-.146.322.322 0 01.246.028l2.818 1.627a.764.764 0 00.95-.086 10.5 10.5 0 012.04-1.539zm-8.917 12.788l10.283-15.076v-2.737a1.839 1.839 0 01.494-1.254l.048-.055a1.852 1.852 0 011.307-.542h4.045a1.853 1.853 0 011.308.542 1.847 1.847 0 01.543 1.3v2.737a11.919 11.919 0 012.129.967 12.137 12.137 0 011.908 1.368l2.373-1.369a1.844 1.844 0 012.522.679l2.022 3.5a1.844 1.844 0 01-.674 2.521l-2.371 1.369q.087.434.14.877a12.072 12.072 0 010 2.918c-.035.293-.082.586-.14.877l2.368 1.367a1.842 1.842 0 01.678 2.521l-2.022 3.5a1.845 1.845 0 01-2.469.707.544.544 0 01-.056-.03l-2.373-1.369a12.071 12.071 0 01-4.037 2.337v2.736a1.853 1.853 0 01-1.851 1.849h-4.045a1.832 1.832 0 01-1.253-.493c-.019-.015-.036-.032-.055-.049a1.843 1.843 0 01-.542-1.307v-2.736a12.039 12.039 0 01-4.038-2.338l-2.375 1.371a1.845 1.845 0 01-2.522-.678l-2.026-3.512a1.847 1.847 0 01.679-2.514zm0 0zm14.154-10.238a6.538 6.538 0 11-4.622 1.915 6.52 6.52 0 014.622-1.915zm-3.54 3a5.007 5.007 0 11-1.467 3.541 4.987 4.987 0 011.467-3.541zm30.857-20.675a13.935 13.935 0 119.854-4.082 13.891 13.891 0 01-9.854 4.082zm-10.665-3.27a15.087 15.087 0 1110.665 4.415 15.041 15.041 0 01-10.665-4.415zm-.315-29.707a21.858 21.858 0 014.873-2.075.763.763 0 00.587-.743V2.96a1.437 1.437 0 011.431-1.431h8.177a1.437 1.437 0 011.431 1.431v6.665a.764.764 0 00.555.734 21.946 21.946 0 019.163 5.291.763.763 0 00.928.127l5.778-3.336a1.442 1.442 0 011.955.527l4.065 7.042.023.043a1.443 1.443 0 01-.522 1.955l-5.73 3.308a.763.763 0 00-.4.867 22.163 22.163 0 010 10.611.762.762 0 00.361.843l5.772 3.331a1.445 1.445 0 01.522 1.956l-4.066 7.044-.025.039a1.442 1.442 0 01-1.956.525l-5.738-3.313a.762.762 0 00-.949.087 21.922 21.922 0 01-9.149 5.3.763.763 0 00-.587.744v6.665a1.437 1.437 0 01-1.431 1.43h-8.177a1.437 1.437 0 01-1.431-1.43V53.35a.766.766 0 00-.556-.734 21.833 21.833 0 01-4.905-2.084 22.111 22.111 0 01-4.274-3.223.761.761 0 00-.907-.111l-5.739 3.303-.043.023a1.441 1.441 0 01-1.955-.525l-4.088-7.08a1.446 1.446 0 01.525-1.96l5.728-3.308a.762.762 0 00.4-.866 22.108 22.108 0 010-10.611.757.757 0 00-.36-.84l-5.73-3.309-.039-.024a1.444 1.444 0 01-.525-1.959l4.064-7.041.025-.039a1.444 1.444 0 011.925-.544l.031.02 5.777 3.336a.764.764 0 00.911-.11 22.039 22.039 0 014.276-3.223zm10.98 6.608a12.433 12.433 0 11-8.793 3.642 12.392 12.392 0 018.793-3.642zm-7.712 4.723a10.907 10.907 0 11-3.194 7.712 10.872 10.872 0 013.194-7.719z" fill="#d1d4eb"/><path data-name="Path 51" d="M352.069 32.295a.882.882 0 01-1.248-1.248l4.95-4.949-4.95-4.95a.882.882 0 011.248-1.247l5.572 5.572a.882.882 0 010 1.249l-5.572 5.573zm-8.7-11.146l4.948 4.95-4.948 4.949a.882.882 0 001.248 1.248l5.572-5.572a.885.885 0 000-1.249l-5.57-5.574a.882.882 0 00-1.248 1.248zm31.064 11.146a.882.882 0 01-1.248-1.248l4.948-4.949-4.948-4.95a.882.882 0 011.248-1.248l5.574 5.572a.881.881 0 010 1.249l-5.574 5.572zm-7.454 0l5.574-5.572a.884.884 0 000-1.249l-5.574-5.572a.882.882 0 10-1.248 1.248l4.949 4.95-4.949 4.949a.882.882 0 101.248 1.248zm-7.454 0l5.574-5.572a.887.887 0 000-1.249l-5.574-5.572a.882.882 0 00-1.248 1.248l4.949 4.95-4.949 4.949a.882.882 0 001.248 1.248z" fill="#f6cccf"/><path data-name="Path 10989" d="M430.848 140.372a4.931 4.931 0 01-3.5-1.449 4.952 4.952 0 010-7l.05-.051a4.95 4.95 0 113.45 8.5zm-2.25-2.7a3.184 3.184 0 10.04-4.548l-.04.048a3.189 3.189 0 000 4.5z" fill="#f6cccf"/><path data-name="Path 10990" d="M350.748 190.751a.883.883 0 11-1.765 0v-2.845h-2.846a.883.883 0 110-1.765h2.845v-2.847a.883.883 0 011.765 0v2.847h2.847a.883.883 0 110 1.765h-2.846z" fill="#f6cccf"/></g><path data-name="Path 58" d="M247.903 40.907a.78.78 0 011.56 0v2.513h2.513a.78.78 0 110 1.56h-2.518v2.515a.78.78 0 01-1.56 0V44.98h-2.515a.78.78 0 110-1.56h2.515z" fill="#f6cccf"/><path data-name="Path 53" d="M184.591 110.744a4.356 4.356 0 013.09 1.28 4.375 4.375 0 010 6.185l-.046.043a4.373 4.373 0 11-3.046-7.509zm1.992 2.381a2.813 2.813 0 10-.035 4.018l.034-.036a2.817 2.817 0 000-3.98z" fill="#f6cccf"/><path data-name="Path 49" d="M.961 267.476a1 1 0 11.072-1.99c.84.03 1.473-.711 2.123-1.476.988-1.158 2-2.352 3.967-2.352s2.979 1.194 3.965 2.352c.648.763 1.279 1.5 2.119 1.476h.083c.839.027 1.471-.713 2.117-1.476.988-1.158 2.006-2.352 3.965-2.352s2.983 1.194 3.967 2.352c.65.763 1.28 1.5 2.119 1.476h.084c.839.027 1.467-.713 2.119-1.476.984-1.158 2-2.352 3.965-2.352s2.977 1.194 3.965 2.352c.648.763 1.279 1.5 2.117 1.476h.083c.84.027 1.473-.713 2.119-1.476.988-1.158 2-2.352 3.967-2.352s2.979 1.194 3.965 2.352c.648.763 1.279 1.5 2.119 1.476h.083c.839.027 1.469-.713 2.117-1.476.988-1.158 2-2.352 3.967-2.352s2.979 1.194 3.965 2.352c.65.763 1.279 1.5 2.119 1.476h.083c.84.027 1.469-.713 2.117-1.476.986-1.158 2-2.352 3.965-2.352s2.981 1.194 3.967 2.352c.65.763 1.279 1.5 2.119 1.476h.083c.84.027 1.469-.713 2.119-1.476.988-1.158 2-2.352 3.967-2.352s2.979 1.194 3.965 2.352c.648.763 1.279 1.5 2.117 1.476h.083c.84.027 1.471-.713 2.119-1.476.988-1.158 2-2.352 3.965-2.352s2.981 1.194 3.967 2.352c.648.763 1.28 1.5 2.119 1.476h.084c.837.027 1.467-.713 2.115-1.476.988-1.158 2-2.352 3.967-2.352s2.979 1.194 3.965 2.352c.65.763 1.279 1.5 2.119 1.476h.084c.839.027 1.469-.713 2.117-1.476.986-1.158 2-2.352 3.967-2.352s2.979 1.194 3.965 2.352c.648.763 1.277 1.5 2.117 1.476h.083c.84.027 1.471-.713 2.119-1.476.988-1.158 2-2.352 3.967-2.352s2.979 1.194 3.965 2.352c.648.763 1.28 1.5 2.117 1.476h.083c.84.027 1.473-.713 2.121-1.476.986-1.158 2-2.352 3.965-2.352s2.979 1.194 3.965 2.352c.648.763 1.28 1.5 2.119 1.476h.084c.837.027 1.467-.713 2.117-1.476.986-1.158 2-2.352 3.965-2.352s2.979 1.194 3.965 2.352c.65.763 1.279 1.5 2.119 1.476h.084c.839.027 1.469-.713 2.117-1.476.986-1.158 2-2.352 3.967-2.352s2.979 1.194 3.965 2.352c.648.763 1.279 1.5 2.117 1.476h.084c.839.027 1.471-.713 2.119-1.476.986-1.158 2-2.352 3.965-2.352s2.979 1.194 3.965 2.352c.65.765 1.282 1.507 2.124 1.476a1 1 0 01.072 1.99c-1.8.065-2.742-1.042-3.71-2.176-.69-.81-1.4-1.645-2.451-1.645s-1.765.835-2.451 1.645c-.964 1.13-1.9 2.225-3.674 2.178-1.78.047-2.712-1.049-3.674-2.178-.688-.81-1.4-1.645-2.451-1.645s-1.763.835-2.455 1.645c-.961 1.13-1.894 2.225-3.672 2.178-1.778.047-2.71-1.049-3.672-2.178-.69-.81-1.4-1.645-2.453-1.645s-1.762.835-2.451 1.645c-.963 1.13-1.9 2.225-3.674 2.178-1.776.047-2.712-1.049-3.674-2.178-.69-.81-1.4-1.645-2.451-1.645s-1.763.835-2.451 1.645c-.963 1.13-1.9 2.225-3.674 2.178-1.778.047-2.713-1.049-3.674-2.178-.69-.81-1.4-1.645-2.451-1.645s-1.765.835-2.453 1.645c-.963 1.13-1.9 2.225-3.672 2.178-1.78.047-2.712-1.049-3.674-2.178-.69-.81-1.4-1.645-2.451-1.645s-1.765.835-2.455 1.645c-.961 1.13-1.895 2.225-3.672 2.178-1.776.047-2.71-1.049-3.674-2.178-.688-.81-1.4-1.645-2.451-1.645s-1.763.835-2.451 1.645c-.963 1.13-1.9 2.225-3.674 2.178-1.778.047-2.713-1.049-3.674-2.178-.69-.81-1.4-1.645-2.453-1.645s-1.762.835-2.451 1.645c-.961 1.13-1.9 2.225-3.672 2.178-1.778.047-2.713-1.049-3.674-2.178-.69-.81-1.4-1.645-2.451-1.645s-1.765.835-2.453 1.645c-.963 1.13-1.9 2.225-3.672 2.178-1.78.047-2.713-1.049-3.674-2.178-.69-.81-1.4-1.645-2.455-1.645s-1.762.835-2.451 1.645c-.961 1.13-1.895 2.225-3.672 2.178-1.778.047-2.712-1.049-3.674-2.178-.688-.81-1.4-1.645-2.451-1.645s-1.763.835-2.453 1.645c-.961 1.13-1.9 2.225-3.672 2.178-1.778.047-2.712-1.049-3.674-2.178-.69-.81-1.4-1.645-2.451-1.645s-1.765.835-2.453 1.645c-.961 1.13-1.9 2.225-3.674 2.178-1.776.047-2.712-1.049-3.672-2.178-.69-.81-1.4-1.645-2.451-1.645s-1.765.835-2.453 1.645c-.963 1.13-1.9 2.225-3.672 2.178-1.78.047-2.712-1.049-3.674-2.178-.69-.81-1.4-1.645-2.455-1.645s-1.762.835-2.451 1.645c-.961 1.13-1.895 2.225-3.672 2.178-1.778.047-2.712-1.049-3.674-2.178-.688-.81-1.4-1.645-2.451-1.645s-1.763.835-2.453 1.645c-.977 1.135-1.918 2.241-3.717 2.176z" fill="#f6cccf"/></g></svg>