<svg xmlns="http://www.w3.org/2000/svg" xmlns:xlink="http://www.w3.org/1999/xlink" width="1636.28" height="674.944" viewBox="0 0 1636.28 674.944"><defs><linearGradient id="c" x1=".5" x2=".5" y2="1" gradientUnits="objectBoundingBox"><stop offset="0" stop-color="#ea6667"/><stop offset=".478" stop-color="#c43133"/><stop offset="1" stop-color="#a00002"/></linearGradient><linearGradient id="a" x1=".351" y1="-.454" x2=".536" y2=".611" gradientUnits="objectBoundingBox"><stop offset="0" stop-color="#3e62ac"/><stop offset="1" stop-color="#1b2f59"/></linearGradient><linearGradient id="d" x1=".183" y1="-.147" x2=".603" y2=".55" xlink:href="#a"/><clipPath id="b"><path data-name="Rectangle 9" d="M5.651 0h81.955a5.652 5.652 0 015.652 5.652v64.666a5.652 5.652 0 01-5.652 5.652H5.651A5.651 5.651 0 010 70.318V5.651A5.651 5.651 0 015.651 0z" fill="none"/></clipPath></defs><g data-name="Group 2311"><g data-name="Group 3"><g data-name="Group 1"><path data-name="Path 1" d="M348.027 671.288c-32.525-33.049-47.272-82.654-38.084-128.1s42.048-85.434 84.858-103.25c18.517-7.708 38.555-11.461 56.73-19.947 63.428-29.614 87.05-105.349 122.908-165.468 52.117-87.385 144.654-151.653 245.92-161.473s208.1 38.773 260.415 126.032c28.233 47.09 40.8 103.189 74.762 146.327a181.732 181.732 0 0094.714 62.539c32.673 8.81 67.185 8.278 100.225 15.592 51.079 11.31 99.3 44.073 119.5 92.333s6.02 111.37-38.361 139.071z" fill="#e8e9f5" opacity=".34"/></g><g data-name="Group 2307"><g data-name="Group 11" transform="translate(286.832 411.086)"><rect data-name="Rectangle 4" width="381.982" height="184.897" rx="5.658" transform="rotate(180 193.173 97.176)" fill="#d1d4eb" opacity=".5" style="mix-blend-mode:multiply;isolation:isolate"/><rect data-name="Rectangle 5" width="379.592" height="207.6" rx="5.658" transform="rotate(180 189.796 103.8)" fill="#263f74"/><path data-name="Rectangle 6" d="M371.582 205.712H6.815a5.62 5.62 0 01-5.62-5.62v-176.7h376.007v176.7a5.62 5.62 0 01-5.62 5.62z" fill="#fff"/></g><g data-name="Group 12"><path data-name="Path 32" d="M328.546 422.634a5.52 5.52 0 105.52-5.52 5.52 5.52 0 00-5.52 5.52z" fill="#ff005c"/><path data-name="Path 33" d="M316.059 417.114a5.52 5.52 0 11-5.52 5.52 5.52 5.52 0 015.52-5.52z" fill="#ffc136"/><path data-name="Path 34" d="M298.055 417.114a5.52 5.52 0 11-5.52 5.52 5.52 5.52 0 015.52-5.52z" fill="#00ead9"/></g><g data-name="Group 16" transform="translate(308.341 448.041)"><g data-name="Group 13"><path data-name="Path 35" d="M334.183 37.162a37.125 37.125 0 10-2.513 13.454 36.972 36.972 0 002.513-13.454zm-15.348 0a21.506 21.506 0 01-1.528 8.017 21.782 21.782 0 01-20.285 13.8c-.189 0-.376-.011-.554-.023a21.806 21.806 0 1119.434-32.71 21.554 21.554 0 012.933 10.916z" fill="#e4e5fb" opacity=".45"/><path data-name="Path 36" d="M297.022 74.313V58.977c-.189 0-.376-.011-.554-.023a21.8 21.8 0 01-14.141-37.9L272.117 9.6a37.147 37.147 0 0024.9 64.713z" fill="#e4e5fb"/><path data-name="Path 37" d="M334.178 37.16a37.029 37.029 0 00-5.088-18.783l-13.194 7.865a21.808 21.808 0 011.414 18.934l14.357 5.438a37.041 37.041 0 002.511-13.454z" fill="#9a9ae5"/><path data-name="Path 38" d="M329.093 18.377A37.153 37.153 0 00272.114 9.6l10.214 11.447a21.8 21.8 0 0133.568 5.2z" fill="#ff7171"/></g><path data-name="Path 39" d="M112.253 9.586h120.949a4.5 4.5 0 014.5 4.5 4.5 4.5 0 01-4.5 4.5H112.253a4.5 4.5 0 01-4.5-4.5 4.5 4.5 0 014.5-4.5zm0 24.385h120.949a4.5 4.5 0 004.5-4.5 4.5 4.5 0 00-4.5-4.5H112.253a4.5 4.5 0 00-4.5 4.5 4.5 4.5 0 004.5 4.502zm0 15.384h120.949a4.5 4.5 0 004.5-4.5 4.5 4.5 0 00-4.5-4.5H112.253a4.5 4.5 0 00-4.5 4.5 4.5 4.5 0 004.5 4.5zm0 15.384h120.949a4.5 4.5 0 004.5-4.5 4.5 4.5 0 00-4.5-4.5H112.253a4.5 4.5 0 00-4.5 4.5 4.5 4.5 0 004.5 4.5z" fill="#e4e5fb"/><path data-name="Path 40" d="M0 92.919v-.133a4.423 4.423 0 014.422-4.435h84.415a4.423 4.423 0 014.422 4.433v.135a4.433 4.433 0 01-4.433 4.433H4.433A4.434 4.434 0 010 92.919zm88.825 10.817H4.433A4.433 4.433 0 000 108.169v.134a4.433 4.433 0 004.433 4.433h84.392a4.433 4.433 0 004.433-4.433v-.135a4.433 4.433 0 00-4.433-4.432zM0 123.553v.133a4.434 4.434 0 004.433 4.434h84.392a4.434 4.434 0 004.433-4.434v-.133a4.434 4.434 0 00-4.433-4.433H4.433A4.434 4.434 0 000 123.553zm4.5 19.952h84.256a4.5 4.5 0 004.5-4.5 4.5 4.5 0 00-4.5-4.5H4.501a4.5 4.5 0 00-4.5 4.5 4.5 4.5 0 004.5 4.5z" fill="#e4e5fb"/><rect data-name="Rectangle 7" width="82.996" height="61.488" rx="8.107" transform="rotate(180 167.259 73.606)" fill="#e4e5fb"/><g data-name="Group 15"><g data-name="Group 14" clip-path="url(#b)" transform="translate(0 3.657)"><path data-name="Rectangle 8" d="M5.651 0h81.955a5.652 5.652 0 015.652 5.652v64.666a5.652 5.652 0 01-5.652 5.652H5.651A5.651 5.651 0 010 70.318V5.651A5.651 5.651 0 015.651 0z" fill="#e4e5fb"/><path data-name="Path 41" d="M25.711 66.805l44.94-23.483a7.774 7.774 0 017.815.359l41.782 26.975v7.713H25.393z" fill="#9a9ae5"/><path data-name="Path 42" d="M-4.225 58.827l29.991-24.215a7.772 7.772 0 019.4-.275l59.5 42.542h-100.7z" fill="#b6b9ff"/><circle data-name="Ellipse 2" cx="8.748" cy="8.748" r="8.748" transform="translate(49.276 11.069)" fill="#b6b9ff"/></g></g><path data-name="Path 43" d="M182.483 111.377h8.4a4.417 4.417 0 014.416 4.416v26.833a4.416 4.416 0 01-4.416 4.416h-8.4a4.416 4.416 0 01-4.416-4.416v-26.833a4.417 4.417 0 014.416-4.416zm26.093-10.9h8.853a4.19 4.19 0 014.19 4.19v38.187a4.19 4.19 0 01-4.19 4.19h-8.854a4.19 4.19 0 01-4.19-4.19v-38.189a4.19 4.19 0 014.19-4.191zm-57.625 3.069v39.3a4.2 4.2 0 004.2 4.2h8.831a4.2 4.2 0 004.2-4.2v-39.3a4.2 4.2 0 00-4.2-4.2h-8.831a4.2 4.2 0 00-4.199 4.197zm-14.082-22.917h-8.832a4.2 4.2 0 00-4.2 4.2v58.014a4.2 4.2 0 004.2 4.2h8.832a4.2 4.2 0 004.2-4.2V84.828a4.2 4.2 0 00-4.199-4.202z" fill="#e4e5fb"/><path data-name="Path 44" d="M283.919 131.334v-29.735a3 3 0 014.639-2.5l22.352 14.679a2.994 2.994 0 01.03 4.987l-22.351 15.054a3 3 0 01-4.67-2.485z" fill="#fff"/></g></g></g><g data-name="Group 19"><g data-name="Group 17"><g data-name="Group 12"><path data-name="Path 14" d="M683.102 616.78c-5.214 7.392-13.364 10.618-18.2 7.2s-4.535-12.172.68-19.564 21.285-21.069 26.123-17.656-3.389 22.626-8.603 30.02z" fill="#74d3c5"/><path data-name="Line 1" fill="none" stroke="#3f2f7c" stroke-miterlimit="10" stroke-width=".368" opacity=".39" d="M684.47 596.24l-19.571 27.744"/></g><g data-name="Group 13"><path data-name="Path 15" d="M619.852 622.318c7.263 5.394 16.012 5.911 19.542 1.158s.5-12.98-6.758-18.374-26.8-13.366-30.33-8.613 10.283 20.435 17.546 25.829z" fill="#74d3c5"/><path data-name="Line 2" fill="none" stroke="#3f2f7c" stroke-miterlimit="10" stroke-width=".368" opacity=".39" d="M612.137 603.233l27.258 20.243"/></g><g data-name="Group 14"><path data-name="Path 16" d="M674.076 608.303c-3.59 11.681-12.7 19.248-20.345 16.9s-10.934-13.723-7.346-25.4 18.474-35.994 26.121-33.644 5.158 30.463 1.57 42.144z" fill="#14b59d"/><path data-name="Line 3" fill="none" stroke="#3f2f7c" stroke-miterlimit="10" stroke-width=".497" opacity=".39" d="M667.202 581.36l-13.47 43.843"/></g><g data-name="Group 15"><path data-name="Path 17" d="M650.815 598.875c5.829 10.742 4.855 22.542-2.175 26.359s-17.454-1.8-23.285-12.538-12.772-38.39-5.741-42.2 25.37 17.637 31.201 28.379z" fill="#14b59d"/><path data-name="Line 4" fill="none" stroke="#3f2f7c" stroke-miterlimit="10" stroke-width=".497" opacity=".39" d="M626.762 584.92l21.879 40.31"/></g><g data-name="Group 16"><path data-name="Path 18" d="M663.635 603.635c0 12.22-6.486 22.127-14.485 22.127s-14.483-9.906-14.483-22.127 7.089-39.829 15.087-39.829 13.881 27.609 13.881 39.829z" fill="#74d3c5"/><path data-name="Line 5" fill="none" stroke="#3f2f7c" stroke-miterlimit="10" stroke-width=".497" opacity=".39" d="M649.151 579.898v45.865"/></g></g><g data-name="Group 18" fill="#6455bc"><path data-name="Path 19" d="M622.976 627.299a29.713 29.713 0 1049.755 0z"/><path data-name="Path 20" d="M677.531 642.568a29.522 29.522 0 00-4.8-15.269h-49.755a29.522 29.522 0 00-4.8 15.269z" style="mix-blend-mode:multiply;isolation:isolate"/><path data-name="Path 21" d="M676.907 632.292H617.48a4.636 4.636 0 01-4.622-4.622 4.636 4.636 0 014.622-4.622h59.427a4.636 4.636 0 014.622 4.622 4.636 4.636 0 01-4.622 4.622z"/></g></g><g data-name="Group 24" transform="translate(1007.22 236.139)"><path data-name="Path 11034" d="M16.461 71.766h.029c0-.2-.029-.388-.029-.585V24.819A21.881 21.881 0 0138.278 3h89.995a21.881 21.881 0 0121.819 21.819V71.18a21.883 21.883 0 01-21.819 21.819H4c8.615-.786 12.461-21.233 12.461-21.233z" fill="#e4e5fb"/><path data-name="Path 25" d="M12.461 68.766h.029c0-.2-.029-.388-.029-.585V21.819A21.881 21.881 0 0134.278 0h89.995a21.881 21.881 0 0121.819 21.819V68.18a21.883 21.883 0 01-21.819 21.819H0c8.615-.786 12.461-21.233 12.461-21.233z" fill="#fff"/><path data-name="Path 26" d="M128.469 22.839H25.875a1.964 1.964 0 01-1.959-1.957 1.964 1.964 0 011.959-1.959h102.594a1.964 1.964 0 011.959 1.959 1.964 1.964 0 01-1.959 1.957z" fill="#ff7171"/><path data-name="Path 27" d="M128.469 48.161H25.875a1.964 1.964 0 01-1.959-1.957 1.964 1.964 0 011.959-1.959h102.594a1.964 1.964 0 011.959 1.959 1.964 1.964 0 01-1.959 1.957z" fill="#ff7171"/><rect data-name="Rectangle 8" width="73.618" height="3.133" rx=".6" transform="translate(23.917 31.976)" fill="#e4e5fb"/><rect data-name="Rectangle 9" width="73.618" height="3.133" rx=".6" transform="translate(23.917 57.298)" fill="#e4e5fb"/></g><g data-name="Group 31"><g data-name="Group 28"><g data-name="Group 27" fill="none" stroke-miterlimit="10"><path data-name="Path 41" d="M963.414 159.081q-4.475 3.918-9.045 7.715" stroke="#a793f7" stroke-width=".816"/><path data-name="Path 42" d="M935.13 181.937a468.978 468.978 0 01-165.59 78.668c-10.5 2.631-21.452 4.906-32.073 2.821s-20.877-9.586-23-20.2c-2.884-14.451 9.681-27.376 22.535-34.586 10.429-5.85 23.3-9.958 34.173-4.986 9.579 4.379 15.085 14.864 16.833 25.249 3.251 19.3-4.166 38.941-14.5 55.562s-23.608 31.26-33.981 47.855c-24.7 39.5-31.423 89.767-17.981 134.371 10.055 33.377 32.461 64.022 62.66 80.559" stroke="#ea6667" stroke-linecap="round" stroke-width="2" stroke-dasharray="2.09 10.085"/><path data-name="Path 43" d="M795.268 552.513a102.688 102.688 0 0011.243 3.845" stroke="#a793f7" stroke-width=".816"/></g></g><g data-name="Group 30"><path data-name="Path 44" d="M967.929 132.297s-25.305-9.353-58.038 3.641c0 0 27.885 25.273 38.742 30.723 0 .001 30.856-29.751 19.296-34.364z" fill="#263f74"/><path data-name="Path 46" d="M994.125 179.827s-7.892 25.8-38.064 43.963c0 0-3.212-37.5-.969-49.435 0 .001 42.366-6.52 39.033 5.472z" fill="#263f74"/><path data-name="Path 48" d="M1018.675 166.536c-34.328 19.391-68.295 24.244-75.866 10.842s14.124-39.987 48.452-59.378 75.867-10.842 75.867-10.842-14.122 39.987-48.453 59.378z" fill="#f26868"/><path data-name="Path 49" d="M1064.891 112.588c-13.776 16.891-31.872 30.306-51.341 39.895a118.3 118.3 0 01-35.03 10.49c-9.829 1.457-21.511 1.978-30.2-3.671a11.167 11.167 0 01-2.277-1.952c-4.736 7.843-6.135 14.9-3.238 20.027 7.572 13.4 41.538 8.55 75.866-10.842 26.584-15.014 41.043-42.36 46.22-53.947z" fill="#e25f97" opacity=".38" style="mix-blend-mode:multiply;isolation:isolate"/><path data-name="Path 50" d="M1053.163 133.555a129.052 129.052 0 0013.966-26.4 129.056 129.056 0 00-29.961-1.66 71.123 71.123 0 0115.995 28.06z" fill="#263f74"/><g data-name="Group 29" transform="translate(1001.249 117.884)"><path data-name="Path 51" d="M25.391 31.691a16.625 16.625 0 116.3-22.652 16.624 16.624 0 01-6.3 22.652z" fill="#263f74"/><circle data-name="Ellipse 15" cx="12.656" cy="12.656" r="12.656" transform="rotate(-29.128 23.712 6.16)" fill="#fff"/></g><path data-name="Path 52" d="M962.134 161.37l4.074 7.213-40.286 18.838z" fill="#3f2f7c"/></g></g><g data-name="Group 36"><path data-name="Rectangle 11" fill="#9a9ae5" d="M1087.773 598.611h23.595v73.501h-23.595z"/><path data-name="Rectangle 12" fill="#9a9ae5" d="M1130.083 568.227h23.964v103.885h-23.964z"/><path data-name="Rectangle 13" fill="#9a9ae5" d="M1172.392 544.563h23.412v127.549h-23.412z"/><path data-name="Rectangle 14" fill="#9a9ae5" d="M1214.702 513.02h23.742v159.092h-23.742z"/><path data-name="Path 64" d="M1237.421 451.038a244.885 244.885 0 00-21.975 11.008c-3.573 2.035-7.106 4.161-10.569 6.448a116.394 116.394 0 00-10.131 7.435 116.707 116.707 0 0012.306-2.54c4.018-1.036 7.963-2.235 11.871-3.523 3.623-1.205 7.2-2.514 10.749-3.885a426.841 426.841 0 01-31.193 30.014c-6.615 5.167-12.781 10.805-19.624 15.66-6.552 5.2-13.432 9.988-20.249 14.846-6.906 4.752-13.8 9.513-20.909 13.989-3.483 2.341-7.013 4.619-10.609 6.8s-7.1 4.5-10.718 6.654c-14.388 8.75-28.948 17.263-43.748 25.688 16.347-4.884 32.04-11.7 47.271-19.349 3.848-1.85 7.594-3.892 11.323-5.964a276.41 276.41 0 0011.127-6.342c7.388-4.293 14.448-9.128 21.593-13.827 6.884-5.087 13.866-10.038 20.415-15.583 3.3-2.736 6.608-5.446 9.712-8.418 3.164-2.892 6.309-5.808 9.361-8.813a202.2 202.2 0 0026.494-32.85c-.824 2.822-1.654 5.642-2.374 8.5-.956 3.882-1.836 7.79-2.547 11.761a112.72 112.72 0 00-1.581 12.113 112.11 112.11 0 006.523-10.332c1.989-3.51 3.812-7.079 5.555-10.676 3.447-7.209 6.5-14.56 9.218-22.035l4.323-11.9z" fill="#ff7171"/></g><g data-name="Group 40"><g data-name="Group 38"><path data-name="Path 65" d="M987.836 372.115c-11.2-4.064-17.925-27.092-28.378-75.859-10.288-47.981-57.4-41.548-58.924-41.327-1.52-.221-48.639-6.654-58.924 41.327-10.456 48.767-17.177 71.8-28.378 75.859s-23.9 34.544 11.2 55.543c16.117 9.64 45.765 15.4 74.861 15.5v.012c.413 0 .828-.007 1.241-.007s.825.01 1.238.007v-.012c29.1-.095 58.747-5.855 74.861-15.5 35.1-20.999 22.404-51.477 11.203-55.543z" fill="#3b5ea6"/><path data-name="Path 66" d="M945.412 371.926c-20.248-30.17-16.262-65.486-17.229-99.909-13.454-6.285-30.976-4.826-45.422-3.78a208.747 208.747 0 011.493 46.954c-1.612 20.819-6.346 44.133-20.278 60.481-8.256 9.686-19.607 13.565-30.665 19-8.22 4.037-14.439 11.257-18.678 19.3a50.925 50.925 0 00-2.1 4.549 60.451 60.451 0 0011.9 9.14c16.117 9.64 45.764 15.4 74.861 15.5v.012c.413 0 .828-.007 1.241-.007s.825.01 1.238.007v-.012c28.9-.095 58.318-5.78 74.507-15.3a32.471 32.471 0 00-3.2-17.879c-6.706-14.477-18.914-25.011-27.668-38.056z" fill="#f6cccf" opacity=".43" style="mix-blend-mode:multiply;isolation:isolate"/></g><path data-name="Path 67" d="M878.618 372.991s.146 27.631-5.185 31.753c0 0 9.907 13.648 31.384 12.577 0 0 16.534-1.466 21.154-7.482 0 0-1.661-33.34-1.4-40.424.006 0-39.874-10.227-45.953 3.576z" fill="#f6cccf"/><path data-name="Path 68" d="M877.873 388.972c9.111 6.722 19.464 10.485 31.466 7.29a46.741 46.741 0 0015.68-7.773c-.316-8.055-.561-16.015-.447-19.073 0 0-39.875-10.227-45.954 3.576 0-.001.042 7.964-.745 15.98z" fill="#e68379" opacity=".47" style="mix-blend-mode:multiply;isolation:isolate"/><path data-name="Path 69" d="M493.9 219.192c-.932-3.731-40.286-16.76-48.593-19.469a43.763 43.763 0 01-30.57 8.118c-8.538-.784-17.255-4.115-22.62-10.6l-.4.051s-52.149 16.69-53.193 20.86 29.2 87.611 27.118 109.513-17.731 40.676-14.6 51.108c0 0 25.786 3.891 50.11 5.36l-.073.9c25.031 3.129 80.309-5.214 80.309-5.214 3.129-10.431-12.517-29.2-14.6-51.108s28.151-105.346 27.112-109.519z" transform="translate(480.894 203.775)" fill="url(#c)"/><path data-name="Path 71" d="M876.92 399.301l-4.314 1.762s10 23 28.808 31c0 0 23.547-12.614 27.339-28.3l-3.161-2.306s-21.175 13.225-48.672-2.156z" fill="#fff"/><path data-name="Path 72" d="M379.658 205.84s-78.258 96.093-67.639 116.368 67.588 49.243 82.071 49.243l20.278-14.483s-54.072-44.415-52.142-53.106 44.417-56.962 44.417-56.962-11.485-51.217-26.985-41.06z" transform="translate(441.687 214.153)" fill="url(#c)"/><path data-name="Path 75" d="M423.568 207.033s78.26 96.093 67.639 116.368-67.588 49.246-82.074 49.246l-20.275-14.485s54.07-44.415 52.142-53.106-44.415-56.968-44.415-56.968 11.483-51.212 26.983-41.055z" transform="translate(552.796 215.857)" fill="url(#c)"/><path data-name="Path 78" d="M947.887 308.731l-.172-.095c-1.745-23.972-22.5-42.912-47.906-42.912-26.553 0-48.078 20.671-48.078 46.17a44.385 44.385 0 001.41 10.926c2.141 19.195 11.342 58.98 50.775 66.533-.001 0 47.787-7.492 43.971-80.622z" fill="#f6cccf"/><path data-name="Path 79" d="M874.077 289.179s35.4 21.887 59.223 24.46 12.873 18.025 14.16 19.955 13.519-27.679-5.792-56.645-61.153-19.955-77.889 0c0 0 4.506 7.724 10.298 12.23z" fill="#3b5ea6"/><path data-name="Path 80" d="M878.585 288.535s-28.325 17.375-24.463 53.426c0 0-23.817-46.347 14.806-70.807 0 0 19.955 1.932 9.657 17.381z" fill="#3b5ea6"/><path data-name="Path 81" d="M860.446 339.733c2.527 6.467 1.707 12.832-1.835 14.216s-8.463-2.736-10.99-9.2-1.707-12.832 1.833-14.216 8.462 2.736 10.992 9.2z" fill="#f6cccf"/><path data-name="Path 82" d="M958.085 343.357c-1.726 6.727-6.108 11.414-9.793 10.47s-5.27-7.161-3.547-13.888 6.108-11.414 9.79-10.47 5.269 7.163 3.55 13.888z" fill="#f6cccf"/><path data-name="Path 90" d="M876.422 289.827s-23.018 36.394-12.2 62.954c0 0-2.165 4.918-3.935 2.556s-11.019-25.771-9.247-38.363 14.562-32.852 25.382-27.147z" fill="#3b5ea6"/><path data-name="Path 91" d="M943.268 315.761s.976 36.248-1.991 47.566c0 0 1.236 2.855 3.433.886s8.441-39.239 6.44-46.371-6.161-4.997-7.882-2.081z" fill="#3b5ea6"/><path data-name="Path 92" d="M872.038 402.35s13.483 23.615 29.376 29.714c0 0 20.877-11.351 27.339-28.3 0 0 3.76-.733 3.423 1.631s-12.839 25.339-30.745 31.42c0 0-14.866-3.042-35.137-33.785 0-.005 4.345-3.074 5.744-.68z" fill="#74d3c5" style="mix-blend-mode:multiply;isolation:isolate"/></g><g data-name="Group 43"><g data-name="Group 42"><g data-name="Group 41"><path data-name="Rectangle 16" fill="#3f2f7c" d="M784.916 517.037h226.907v141.937H784.916z"/><path data-name="Path 99" d="M990.887 517.038c-3.476 37.868-17.9 74.206-49.134 98.467-23.5 18.25-52.484 26.121-81.955 25.579-25.186-.464-49.918-5.474-74.883-8.268v26.157h226.908V517.038z" fill="#3f2f7c" opacity=".36" style="mix-blend-mode:multiply;isolation:isolate"/><path data-name="Path 100" d="M904.705 588.101c0 5.122-3.857 9.276-8.613 9.276s-8.615-4.154-8.615-9.276 3.857-9.276 8.615-9.276 8.613 4.154 8.613 9.276z" fill="#ddd6fe"/></g><path data-name="Path 101" d="M1015.371 673.471H784.602a7.748 7.748 0 01-7.725-7.724 7.748 7.748 0 017.725-7.725h230.77a7.748 7.748 0 017.724 7.725 7.748 7.748 0 01-7.725 7.724z" fill="#1e154a"/></g></g><g data-name="Group 2306" transform="translate(488.473 261.242)"><rect data-name="Rectangle 22" width="165.994" height="115.744" rx="9.45" transform="translate(9.412 6.387)" fill="#e8e9f5" opacity=".5" style="mix-blend-mode:multiply;isolation:isolate"/><rect data-name="Rectangle 23" width="165.994" height="115.744" rx="4" fill="#fff" stroke="#263f74"/><path data-name="Rectangle 24" d="M4.31 0h157.374a4.31 4.31 0 014.31 4.31v21.615H0V4.31A4.31 4.31 0 014.31 0z" fill="#263f74"/><g data-name="Group 24"><path data-name="Path 54" d="M18.57 13.917a2.685 2.685 0 11-2.685-2.682 2.686 2.686 0 012.685 2.682z" fill="#ff005c"/><path data-name="Path 55" d="M30.486 13.917a2.684 2.684 0 11-2.682-2.682 2.683 2.683 0 012.682 2.682z" fill="#ffc136"/><path data-name="Path 56" d="M42.404 13.917a2.684 2.684 0 11-2.682-2.682 2.683 2.683 0 012.682 2.682z" fill="#00ead9"/></g><g data-name="Group 25" transform="translate(12.207 38.722)"><rect data-name="Rectangle 25" width="141.58" height="4.836" rx=".868" transform="rotate(180 70.79 31.218)" fill="#e4e5fb"/><rect data-name="Rectangle 26" width="141.58" height="4.836" rx=".868" transform="rotate(180 70.79 24.586)" fill="#e4e5fb"/><rect data-name="Rectangle 27" width="141.58" height="4.836" rx=".868" transform="rotate(180 70.79 17.954)" fill="#ff7171"/><circle data-name="Ellipse 5" cx="12.769" cy="12.769" r="12.769" transform="translate(116.043)" fill="#e8e9f5"/><circle data-name="Ellipse 6" cx="12.769" cy="12.769" r="12.769" transform="translate(80.95)" fill="#e8e9f5"/><circle data-name="Ellipse 7" cx="12.769" cy="12.769" r="12.769" transform="translate(45.857)" fill="#e8e9f5"/></g></g><path data-name="Path 11035" d="M284.712 240.358a55.8 55.8 0 00-20.958 12.122l-12.526-7.23-.119-.065a7.008 7.008 0 00-9.452 2.626l-.054.1-9.636 16.691a7.009 7.009 0 002.561 9.566l.1.052 12.418 7.171q-.591 2.638-.919 5.34a55.9 55.9 0 000 13.544q.33 2.7.919 5.34l-12.519 7.228a7.009 7.009 0 00-2.56 9.559l9.605 16.636a1.673 1.673 0 00.155.275 7.021 7.021 0 009.364 2.517 2.035 2.035 0 00.28-.166l12.379-7.148a55.873 55.873 0 009.832 7.231 55.242 55.242 0 0011.128 4.9v14.445a7.029 7.029 0 007.013 7.01h19.376a7.025 7.025 0 007.01-7.01v-14.448a55.182 55.182 0 0011.128-4.9 55.9 55.9 0 009.836-7.228l12.381 7.15a1.715 1.715 0 00.313.179 7.015 7.015 0 009.326-2.53 1.7 1.7 0 00.155-.274l9.6-16.634a7.009 7.009 0 00-2.566-9.574l-12.5-7.217q.587-2.634.919-5.343a56.266 56.266 0 000-13.547q-.33-2.7-.919-5.337l12.511-7.223a7.009 7.009 0 002.566-9.572l-.054-.1-9.636-16.688a7.005 7.005 0 00-9.564-2.561h-.005l-12.524 7.23a55.7 55.7 0 00-20.961-12.122v-14.441a7.025 7.025 0 00-7.01-7.01h-19.381a7.029 7.029 0 00-7.013 7.01v14.446zm-57.2 116.6a28.417 28.417 0 00-9.569 5.537l-5.628-3.247a4.37 4.37 0 00-5.977 1.608l-4.8 8.308a4.374 4.374 0 001.606 5.967l.1.057 5.519 3.185q-.206 1.029-.334 2.077a28.576 28.576 0 000 6.912q.128 1.045.334 2.08l-5.614 3.24 24.359-35.722zm-3.235 5.42a24.56 24.56 0 015.464-2.331 1.811 1.811 0 001.391-1.764v-7.811a.771.771 0 01.179-.489l.047-.047a.767.767 0 01.536-.225h9.584a.758.758 0 01.536.225.762.762 0 01.223.539v7.811a1.816 1.816 0 001.315 1.74 24.661 24.661 0 0110.338 5.962 1.81 1.81 0 002.2.3l6.772-3.91a.794.794 0 011.046.282l4.794 8.3a.769.769 0 01.067.585.748.748 0 01-.35.464v.005l-6.663 3.846a1.81 1.81 0 00-.956 2.051 24.739 24.739 0 01.546 2.968 25.112 25.112 0 010 6.068 24.6 24.6 0 01-.546 2.965h.005a1.807 1.807 0 00.852 1.994l6.767 3.908a.742.742 0 01.344.464.769.769 0 01-.067.585l-4.794 8.3a.773.773 0 01-.466.347.788.788 0 01-.528-.044l-6.821-3.936a1.8 1.8 0 00-2.157.262 25.029 25.029 0 01-4.835 3.644 24.652 24.652 0 01-5.467 2.331 1.814 1.814 0 00-1.393 1.764v7.811a.756.756 0 01-.225.536.747.747 0 01-.536.225h-9.587a.771.771 0 01-.487-.173l-.049-.052a.756.756 0 01-.225-.536v-7.82a1.812 1.812 0 00-1.315-1.74 24.625 24.625 0 01-5.539-2.354 24.962 24.962 0 01-4.838-3.644 1.8 1.8 0 00-2.149-.262l-6.775 3.908a.784.784 0 01-1.049-.275l-4.794-8.3a.781.781 0 01.285-1.051l6.661-3.848a1.805 1.805 0 00.956-2.054 25.115 25.115 0 01-.544-2.965 25.448 25.448 0 010-6.065 25.2 25.2 0 01.544-2.97 1.8 1.8 0 00-.855-1.994l-6.614-3.82a1.609 1.609 0 00-.2-.122.787.787 0 01-.3-.43.8.8 0 01.031-.505 2.075 2.075 0 00.124-.225l4.708-8.155a.754.754 0 01.466-.347.763.763 0 01.583.067l6.676 3.856a1.81 1.81 0 002.25-.2 24.879 24.879 0 014.835-3.646zm-21.132 30.3l24.366-35.722v-6.485a4.358 4.358 0 011.171-2.97c.036-.041.073-.085.114-.129a4.389 4.389 0 013.1-1.284h9.584a4.39 4.39 0 013.1 1.284v.005a4.377 4.377 0 011.287 3.092v6.485a28.239 28.239 0 015.045 2.292 28.754 28.754 0 014.522 3.242l5.622-3.245h.005a4.37 4.37 0 015.977 1.608l4.791 8.3a4.369 4.369 0 01-1.6 5.974l-5.617 3.245q.206 1.029.332 2.077a28.6 28.6 0 010 6.914 26.775 26.775 0 01-.332 2.077l5.612 3.24a4.364 4.364 0 011.606 5.974l-4.791 8.3a4.371 4.371 0 01-5.85 1.676 1.285 1.285 0 01-.132-.07l-5.622-3.245a28.6 28.6 0 01-9.566 5.537v6.482a4.39 4.39 0 01-4.387 4.382h-9.59a4.342 4.342 0 01-2.968-1.168 2.275 2.275 0 01-.129-.117 4.368 4.368 0 01-1.285-3.1v-6.482a28.528 28.528 0 01-9.569-5.539l-5.628 3.247a4.372 4.372 0 01-5.977-1.606l-4.8-8.321a4.377 4.377 0 011.608-5.956zm0 .005v-.005.005zm33.537-24.272a15.491 15.491 0 11-10.952 4.537 15.449 15.449 0 0110.952-4.537zm-8.388 7.1a11.863 11.863 0 11-3.475 8.391 11.816 11.816 0 013.475-8.391zm73.115-48.989a33.02 33.02 0 1123.349-9.673 32.916 32.916 0 01-23.349 9.673zm-25.27-7.748a35.75 35.75 0 1125.27 10.462 35.641 35.641 0 01-25.27-10.462zm-.746-70.391a51.792 51.792 0 0111.547-4.918 1.809 1.809 0 001.391-1.761v-15.792a3.4 3.4 0 013.39-3.39h19.376a3.4 3.4 0 013.39 3.39v15.79a1.809 1.809 0 001.316 1.74 52 52 0 0121.712 12.537 1.807 1.807 0 002.2.3l13.692-7.9v-.005a3.416 3.416 0 014.633 1.248h.005l9.631 16.685.054.1a3.419 3.419 0 01-1.238 4.633l-13.578 7.839a1.808 1.808 0 00-.956 2.054 52.517 52.517 0 010 25.143 1.805 1.805 0 00.855 2l13.676 7.893a3.423 3.423 0 011.238 4.636l-9.634 16.691-.06.093a3.417 3.417 0 01-4.635 1.243l-13.6-7.849a1.806 1.806 0 00-2.248.207 51.944 51.944 0 01-21.668 12.546 1.809 1.809 0 00-1.391 1.764v15.792a3.4 3.4 0 01-3.39 3.387h-19.377a3.4 3.4 0 01-3.39-3.387v-15.79a1.815 1.815 0 00-1.318-1.74 51.734 51.734 0 01-11.623-4.939 52.387 52.387 0 01-10.128-7.637 1.8 1.8 0 00-2.149-.264l-13.6 7.849-.1.054a3.415 3.415 0 01-4.633-1.243l-9.685-16.776a3.425 3.425 0 011.243-4.643l13.573-7.839a1.806 1.806 0 00.956-2.051 52.387 52.387 0 010-25.143h-.005a1.793 1.793 0 00-.852-1.991l-13.578-7.842-.093-.057a3.421 3.421 0 01-1.246-4.638l9.629-16.683.06-.093a3.42 3.42 0 014.56-1.29l.073.047 13.689 7.9a1.809 1.809 0 002.16-.262 52.217 52.217 0 0110.131-7.637zm26.016 15.657a29.461 29.461 0 11-20.827 8.629 29.363 29.363 0 0120.834-8.629zm-18.273 11.19a25.843 25.843 0 11-7.567 18.273 25.761 25.761 0 017.571-18.272z" fill="#d1d4eb" fill-rule="evenodd"/><path data-name="Path 49" d="M1369.778 628.587a1.436 1.436 0 11.1-2.869c1.212.044 2.124-1.026 3.061-2.129 1.424-1.67 2.887-3.392 5.721-3.392s4.3 1.722 5.718 3.392c.935 1.1 1.844 2.168 3.056 2.129h.119c1.209.039 2.121-1.028 3.053-2.129 1.424-1.67 2.893-3.392 5.718-3.392s4.3 1.722 5.721 3.392c.938 1.1 1.847 2.168 3.056 2.129h.122c1.209.039 2.116-1.028 3.056-2.129 1.419-1.67 2.885-3.392 5.718-3.392s4.294 1.722 5.718 3.392c.935 1.1 1.844 2.168 3.053 2.129h.119c1.212.039 2.124-1.028 3.056-2.129 1.424-1.67 2.887-3.392 5.721-3.392s4.3 1.722 5.718 3.392c.935 1.1 1.844 2.168 3.056 2.129h.119c1.209.039 2.118-1.028 3.053-2.129 1.424-1.67 2.887-3.392 5.721-3.392s4.3 1.722 5.718 3.392c.938 1.1 1.844 2.168 3.056 2.129h.119c1.212.039 2.118-1.028 3.053-2.129 1.422-1.67 2.89-3.392 5.718-3.392s4.3 1.722 5.721 3.392c.938 1.1 1.844 2.168 3.056 2.129h.119c1.212.039 2.118-1.028 3.056-2.129 1.424-1.67 2.888-3.392 5.721-3.392s4.3 1.722 5.718 3.392c.935 1.1 1.844 2.168 3.053 2.129h.119c1.212.039 2.121-1.028 3.056-2.129 1.424-1.67 2.888-3.392 5.718-3.392s4.3 1.722 5.721 3.392c.935 1.1 1.846 2.168 3.056 2.129h.122c1.207.039 2.116-1.028 3.051-2.129 1.424-1.67 2.887-3.392 5.721-3.392s4.3 1.722 5.718 3.392c.937 1.1 1.844 2.168 3.056 2.129h.122c1.209.039 2.118-1.028 3.053-2.129 1.422-1.67 2.89-3.392 5.721-3.392s4.3 1.722 5.718 3.392c.935 1.1 1.841 2.168 3.053 2.129h.119c1.212.039 2.121-1.028 3.056-2.129 1.424-1.67 2.89-3.392 5.721-3.392s4.3 1.722 5.718 3.392c.935 1.1 1.846 2.168 3.053 2.129h.119c1.212.039 2.124-1.028 3.058-2.129 1.422-1.67 2.885-3.392 5.718-3.392s4.3 1.722 5.718 3.392c.935 1.1 1.846 2.168 3.056 2.129h.122c1.207.039 2.116-1.028 3.053-2.129 1.422-1.67 2.89-3.392 5.718-3.392s4.3 1.722 5.718 3.392c.938 1.1 1.844 2.168 3.056 2.129h.122c1.209.039 2.118-1.028 3.053-2.129 1.422-1.67 2.89-3.392 5.721-3.392s4.3 1.722 5.718 3.392c.935 1.1 1.844 2.168 3.053 2.129h.122c1.209.039 2.121-1.028 3.056-2.129 1.422-1.67 2.888-3.392 5.718-3.392s4.3 1.722 5.718 3.392c.937 1.1 1.849 2.173 3.064 2.129a1.436 1.436 0 01.1 2.869c-2.595.093-3.955-1.5-5.35-3.139-.994-1.168-2.015-2.372-3.535-2.372s-2.546 1.2-3.535 2.372c-1.391 1.629-2.737 3.209-5.3 3.141-2.566.067-3.91-1.512-5.3-3.141-.992-1.168-2.017-2.372-3.535-2.372s-2.543 1.2-3.54 2.372c-1.385 1.629-2.732 3.209-5.3 3.141-2.564.067-3.908-1.512-5.3-3.141-.995-1.168-2.017-2.372-3.538-2.372s-2.54 1.2-3.535 2.372c-1.388 1.629-2.737 3.209-5.3 3.141-2.561.067-3.91-1.512-5.3-3.141-.995-1.168-2.017-2.372-3.535-2.372s-2.543 1.2-3.535 2.372c-1.388 1.629-2.737 3.209-5.3 3.141-2.564.067-3.913-1.512-5.3-3.141-.994-1.168-2.015-2.372-3.535-2.372s-2.546 1.2-3.538 2.372c-1.388 1.629-2.735 3.209-5.3 3.141-2.566.067-3.91-1.512-5.3-3.141-.994-1.168-2.017-2.372-3.535-2.372s-2.546 1.2-3.54 2.372c-1.385 1.629-2.732 3.209-5.3 3.141-2.561.067-3.908-1.512-5.3-3.141-.992-1.168-2.017-2.372-3.535-2.372s-2.543 1.2-3.535 2.372c-1.388 1.629-2.737 3.209-5.3 3.141-2.564.067-3.913-1.512-5.3-3.141-.994-1.168-2.015-2.372-3.538-2.372s-2.54 1.2-3.535 2.372c-1.386 1.629-2.735 3.209-5.3 3.141-2.564.067-3.913-1.512-5.3-3.141-.995-1.168-2.017-2.372-3.535-2.372s-2.546 1.2-3.538 2.372c-1.388 1.629-2.735 3.209-5.3 3.141-2.566.067-3.913-1.512-5.3-3.141-.995-1.168-2.02-2.372-3.54-2.372s-2.541 1.2-3.535 2.372c-1.386 1.629-2.732 3.209-5.3 3.141-2.564.067-3.91-1.512-5.3-3.141-.992-1.168-2.015-2.372-3.535-2.372s-2.543 1.2-3.538 2.372c-1.385 1.629-2.735 3.209-5.3 3.141-2.564.067-3.91-1.512-5.3-3.141-.994-1.168-2.017-2.372-3.535-2.372s-2.546 1.2-3.537 2.372c-1.386 1.629-2.735 3.209-5.3 3.141-2.561.067-3.91-1.512-5.3-3.141-.994-1.168-2.017-2.372-3.535-2.372s-2.546 1.2-3.538 2.372c-1.388 1.629-2.735 3.209-5.3 3.141-2.566.067-3.91-1.512-5.3-3.141-.994-1.168-2.02-2.372-3.54-2.372s-2.541 1.2-3.535 2.372c-1.385 1.629-2.732 3.209-5.3 3.141-2.564.067-3.91-1.512-5.3-3.141-.992-1.168-2.017-2.372-3.535-2.372s-2.543 1.2-3.538 2.372c-1.317 1.637-2.676 3.232-5.271 3.139z" fill="#e88397" fill-rule="evenodd"/><path data-name="Path 11036" d="M1469.261 403.642a1.44 1.44 0 01-2.036-2.036l8.072-8.075-8.072-8.073a1.44 1.44 0 012.036-2.036l9.09 9.09a1.435 1.435 0 010 2.036l-9.09 9.092zm-14.194-18.184l8.069 8.072-8.069 8.075a1.44 1.44 0 002.035 2.036l9.09-9.092a1.439 1.439 0 000-2.036l-9.09-9.09a1.439 1.439 0 00-2.035 2.035zm50.675 18.182a1.44 1.44 0 01-2.036-2.036l8.069-8.075-8.068-8.071a1.44 1.44 0 012.036-2.036l9.09 9.09a1.435 1.435 0 010 2.036l-9.09 9.092zm-12.159 0l9.09-9.092a1.444 1.444 0 000-2.036l-9.09-9.09a1.44 1.44 0 00-2.038 2.036l8.072 8.072-8.072 8.075a1.44 1.44 0 002.038 2.036zm-12.161 0l9.087-9.092a1.435 1.435 0 000-2.036l-9.087-9.09a1.44 1.44 0 00-2.038 2.036l8.075 8.072-8.075 8.075a1.44 1.44 0 002.038 2.036z" fill="#e88397" fill-rule="evenodd"/><path data-name="Path 11037" d="M734.261 20.642a1.44 1.44 0 01-2.036-2.036l8.072-8.075-8.072-8.073a1.44 1.44 0 012.036-2.036l9.09 9.09a1.435 1.435 0 010 2.036l-9.09 9.092zM720.067 2.458l8.069 8.072-8.069 8.075a1.44 1.44 0 002.035 2.036l9.09-9.092a1.439 1.439 0 000-2.036l-9.09-9.09a1.439 1.439 0 00-2.035 2.035zm50.675 18.182a1.44 1.44 0 01-2.036-2.036l8.069-8.075-8.068-8.071a1.44 1.44 0 012.036-2.036l9.09 9.09a1.435 1.435 0 010 2.036l-9.09 9.092zm-12.159 0l9.09-9.092a1.444 1.444 0 000-2.036l-9.09-9.09a1.44 1.44 0 00-2.038 2.036l8.072 8.072-8.072 8.075a1.44 1.44 0 002.038 2.036zm-12.161 0l9.087-9.092a1.435 1.435 0 000-2.036l-9.087-9.09a1.44 1.44 0 00-2.038 2.036l8.075 8.072-8.075 8.075a1.44 1.44 0 002.038 2.036z" fill="#e88397" fill-rule="evenodd"/><path data-name="Path 52" d="M132.316 520.43a1.434 1.434 0 11.1 2.867c-2.6.093-3.954-1.5-5.35-3.141-.992-1.165-2.017-2.37-3.538-2.37s-2.541 1.2-3.535 2.37c-1.388 1.631-2.735 3.214-5.3 3.144-2.561.07-3.91-1.512-5.3-3.144-.995-1.165-2.017-2.37-3.538-2.37s-2.543 1.2-3.535 2.37c-1.391 1.631-2.735 3.214-5.3 3.144-2.564.07-3.91-1.512-5.3-3.144-.994-1.165-2.02-2.37-3.538-2.37s-2.543 1.2-3.538 2.37c-1.385 1.631-2.732 3.214-5.3 3.144-2.561.07-3.908-1.512-5.293-3.144-.994-1.165-2.02-2.37-3.54-2.37s-2.54 1.2-3.535 2.37c-1.388 1.631-2.735 3.214-5.3 3.144-2.561.07-3.91-1.512-5.3-3.144-.992-1.165-2.015-2.37-3.535-2.37s-2.54 1.2-3.535 2.37c-1.4 1.642-2.753 3.235-5.35 3.141a1.434 1.434 0 01.1-2.867c1.217.041 2.129-1.028 3.066-2.131 1.422-1.668 2.888-3.39 5.718-3.39s4.3 1.722 5.718 3.39c.935 1.1 1.846 2.168 3.058 2.131h.119c1.209.036 2.118-1.031 3.053-2.131 1.424-1.668 2.89-3.39 5.718-3.39s4.3 1.722 5.721 3.39c.937 1.1 1.844 2.168 3.056 2.131h.119c1.212.036 2.118-1.031 3.056-2.131 1.419-1.668 2.887-3.39 5.718-3.39s4.3 1.722 5.721 3.39c.932 1.1 1.841 2.168 3.053 2.131h.119c1.212.036 2.121-1.031 3.056-2.131 1.422-1.668 2.887-3.39 5.718-3.39s4.3 1.722 5.721 3.39c.935 1.1 1.844 2.168 3.056 2.131h.117c1.212.036 2.121-1.031 3.056-2.131 1.422-1.668 2.888-3.39 5.718-3.39s4.3 1.722 5.721 3.39c.958 1.103 1.87 2.173 3.084 2.131z" fill="#e88397" fill-rule="evenodd"/><path data-name="Path 53" d="M470.27 75.661a8.044 8.044 0 015.705 2.364h.005a8.078 8.078 0 010 11.421l-.086.08a8.074 8.074 0 11-5.625-13.865zm3.677 4.4a5.194 5.194 0 10-.065 7.419l.062-.067a5.2 5.2 0 000-7.35z" fill="#e88397" fill-rule="evenodd"/><path data-name="Path 58" d="M1506.187 115.107a1.44 1.44 0 112.88 0v4.641h4.641a1.44 1.44 0 110 2.88h-4.641v4.643a1.44 1.44 0 01-2.88 0v-4.643h-4.643a1.44 1.44 0 110-2.88h4.643z" fill="#e88397" fill-rule="evenodd"/><path data-name="Path 11038" d="M6.187 284.107a1.44 1.44 0 112.88 0v4.641h4.641a1.44 1.44 0 110 2.88H9.067v4.643a1.44 1.44 0 01-2.88 0v-4.643H1.544a1.44 1.44 0 110-2.88h4.643z" fill="#e88397" fill-rule="evenodd"/><path data-name="Path 54" d="M8.077 109.167a8.044 8.044 0 015.7 2.364h.008a8.081 8.081 0 010 11.423l-.088.078a8.073 8.073 0 11-5.622-13.865zm3.675 4.4a5.192 5.192 0 10-.062 7.417l.062-.067a5.2 5.2 0 000-7.35z" fill="#e88397" fill-rule="evenodd"/><g data-name="Group 2308" fill-rule="evenodd"><path data-name="Path 16" d="M1262.868 307.294h46.558a5.722 5.722 0 01.671.039c3.807-1.023 3.957-4.612 4.172-9.864a70.139 70.139 0 01.746-8.65c1.3-7.961 9.766-22.194 13.881-28.761l.06-.093v-.005a198.202 198.202 0 012.147-3.348 52.155 52.155 0 10-89.914 0c.158.241.969 1.471 2.147 3.348v.005l.062.093c4.115 6.567 12.581 20.8 13.876 28.761a70.212 70.212 0 01.748 8.65c.215 5.252.365 8.841 4.175 9.864a5.711 5.711 0 01.671-.039z" fill="#ffd893"/><path data-name="Path 17" d="M1279.261 308.016a1.141 1.141 0 01-2.282 0v-34.168c0-.438-.01-.862-.026-1.274a30.095 30.095 0 01-2.157-.59 18.468 18.468 0 01-6.508-3.387 6.487 6.487 0 01-2.574-4.783 4.621 4.621 0 01.22-1.406 4.428 4.428 0 012.9-2.9 5.548 5.548 0 013.19-.057 7.429 7.429 0 013.188 1.865c1.844 1.766 3.4 4.786 3.887 9.38a41.815 41.815 0 0014.1 0c.489-4.594 2.043-7.614 3.885-9.38a7.437 7.437 0 013.19-1.865 5.549 5.549 0 013.191.057 4.429 4.429 0 012.9 2.9 4.617 4.617 0 01.217 1.406 6.479 6.479 0 01-2.574 4.783 18.453 18.453 0 01-6.505 3.387c-.684.215-1.4.414-2.157.59-.016.412-.026.836-.026 1.274v34.169a1.141 1.141 0 01-2.282 0v-34.169c0-.277.005-.549.01-.818a44.222 44.222 0 01-13.8 0c.005.269.01.541.01.818v34.169zm19.4-45.066c-1.409 1.349-2.613 3.67-3.1 7.223.433-.114.855-.236 1.259-.365a16.2 16.2 0 005.705-2.931 4.324 4.324 0 001.779-3.064 2.4 2.4 0 00-.109-.723 2.194 2.194 0 00-1.44-1.43 3.269 3.269 0 00-1.89-.013 5.166 5.166 0 00-2.2 1.3zm-21.917 7.224c-.492-3.553-1.694-5.873-3.1-7.223a5.173 5.173 0 00-2.2-1.3 3.26 3.26 0 00-1.888.013 2.195 2.195 0 00-1.44 1.43 2.487 2.487 0 00-.111.723 4.323 4.323 0 001.779 3.064 16.217 16.217 0 005.708 2.931q.6.19 1.252.362z" fill="#fff"/><path data-name="Path 18" d="M384.866 167.753c0 5-4.884 9.059-10.91 9.059s-10.908-4.056-10.908-9.059 5.744-5.306 5.744-5.306z" transform="translate(912.191 167.442)" fill="url(#a)"/><path data-name="Path 19" d="M361.809 153.56h46.257a5.672 5.672 0 011.272 11.2 5.671 5.671 0 01-4.428 9.2h-.741a5.671 5.671 0 01-4.537 9.059h-29.386a5.662 5.662 0 01-4.54-9.059h-.738a5.663 5.663 0 01-4.428-9.2 5.672 5.672 0 011.269-11.2z" transform="translate(901.21 153.314)" fill="url(#d)"/></g></g></svg>