<svg xmlns="http://www.w3.org/2000/svg" width="1314.241" height="616.311" viewBox="0 0 1314.241 616.311"><defs><linearGradient id="b" x1=".5" x2=".5" y2="1" gradientUnits="objectBoundingBox"><stop offset="0" stop-color="#2d4e91"/><stop offset="1" stop-color="#0b2c72"/></linearGradient><linearGradient id="c" x1="1.101" y1=".255" x2="0" y2=".795" gradientUnits="objectBoundingBox"><stop offset="0" stop-color="#4a6bad"/><stop offset="1" stop-color="#0b2c72"/></linearGradient><linearGradient id="d" x1=".5" x2=".5" y2="1" gradientUnits="objectBoundingBox"><stop offset="0" stop-color="#314f8c"/><stop offset="1" stop-color="#192846"/></linearGradient><clipPath id="a"><path data-name="Rectangle 9" d="M5.651 0h144.786a5.652 5.652 0 015.652 5.652V121.5a5.652 5.652 0 01-5.652 5.652H5.651A5.651 5.651 0 010 121.5V5.651A5.651 5.651 0 015.651 0z" fill="none"/></clipPath></defs><g data-name="Group 3134"><path data-name="Path 11002" d="M159.479 530.011h955.76a14.49 14.49 0 0114.448 14.445 14.492 14.492 0 01-14.448 14.448h-53.607a16.948 16.948 0 00-16.9 16.9 16.955 16.955 0 0015.388 16.828h29.165c5 0 9.093 5.33 9.093 11.843s-4.089 11.84-9.093 11.84H383.944a6.943 6.943 0 01-.987-.067c-.541.047-1.088.067-1.639.067H220.715a19.451 19.451 0 01-19.4-19.396 19.452 19.452 0 0119.4-19.397h21.85a8.453 8.453 0 008.429-8.429 8.454 8.454 0 00-8.429-8.432h-83.086a15.372 15.372 0 01-15.328-15.323 15.371 15.371 0 0115.328-15.323zm989.773 28.893a14.334 14.334 0 0014.29-14.292v-.308a14.334 14.334 0 00-14.29-14.293 14.336 14.336 0 00-14.293 14.293v.308a14.336 14.336 0 0014.293 14.292zm-977.878 18.618a18.769 18.769 0 00-18.713 18.713v1.362a18.769 18.769 0 0018.713 18.713 18.77 18.77 0 0018.716-18.713v-1.362a18.77 18.77 0 00-18.716-18.713z" fill="#e8e9f5" fill-rule="evenodd"/><g data-name="Group 63"><g data-name="Group 61"><g data-name="Group 1" opacity=".29" fill="none" stroke="#4e01d4" stroke-linecap="round" stroke-miterlimit="10" stroke-width=".951" stroke-dasharray="4.509"><path data-name="Path 3" d="M67.468 340.75c-27.562 25.556-28.643 71.964-8.033 103.4s58.234 48.685 95.642 52.307 74.93-4.768 110.967-15.439a871.069 871.069 0 00196.681-85.843"/><path data-name="Path 5" d="M876.582 15.579c38.209-20.769 87.227-20.066 124.825 1.79s62.467 64.1 63.332 107.58-22.3 86.68-59 110.014c-47.68 30.314-108.733 25.791-164.956 20.2"/></g><g data-name="Group 5"><g data-name="Group 3" transform="translate(982.526 79.759)"><circle data-name="Ellipse 1" cx="23.618" cy="23.618" r="23.618" transform="rotate(-82.982 26.504 23.442)" fill="#fff"/><path data-name="Path 13" d="M26.895 30.567l6.633 11.415a1.707 1.707 0 002.952-1.714l-6.635-11.417a11.643 11.643 0 10-2.949 1.716zm-11.41-6.636a8.234 8.234 0 1111.256 2.98 8.244 8.244 0 01-11.256-2.98z" fill="#ff7171"/></g></g><g data-name="Group 10"><g data-name="Group 6"><path data-name="Path 16" d="M830.931 36.072c1.013-1.25 39.036-35.851 39.036-35.851l6.678 4.268z" fill="#ff7171"/><path data-name="Path 17" d="M876.643 4.489l8.431 20.583-54.145 11z" fill="#b81e57"/><path data-name="Path 18" d="M885.074 25.072l-54.145 11L884.786 9.05z" fill="#b81e57"/><path data-name="Path 19" d="M884.787 9.051l-53.856 27.022 64.9-19.115z" fill="#ff7171"/></g><g data-name="Group 9"><path data-name="Path 28" d="M55.295 310.354c1.186.929 14.4 16.682 14.4 16.682l51.478 3.959z" fill="#b6b9ff"/><path data-name="Path 29" d="M63.517 347.895l6.179-20.858 51.479 3.958z" fill="#7474e2"/><path data-name="Path 30" d="M63.517 347.897l17.242-9.316 40.416-7.585z" fill="#9a9ae5"/><path data-name="Path 31" d="M80.754 338.579l16.841 19.027 23.576-26.609z" fill="#b6b9ff"/></g></g><g data-name="Group 17"><g data-name="Group 11" transform="translate(315.728 138.58)"><rect data-name="Rectangle 4" width="639.334" height="309.467" rx="5.658" transform="rotate(180 325.319 162.646)" fill="#d1d4eb" opacity=".5" style="mix-blend-mode:multiply;isolation:isolate"/><rect data-name="Rectangle 5" width="635.334" height="347.467" rx="5.658" transform="rotate(180 319.667 173.734)" fill="#263f74"/><path data-name="Rectangle 6" d="M629.714 344.306H11.62a5.62 5.62 0 01-5.62-5.62V39.159h629.334v299.527a5.62 5.62 0 01-5.62 5.62z" fill="#fff"/></g><g data-name="Group 12"><path data-name="Path 32" d="M389.546 157.909a9.24 9.24 0 109.24-9.24 9.238 9.238 0 00-9.24 9.24z" fill="#ff005c"/><path data-name="Path 33" d="M368.65 148.669a9.24 9.24 0 11-9.24 9.24 9.239 9.239 0 019.24-9.24z" fill="#ffc136"/><path data-name="Path 34" d="M338.52 148.669a9.24 9.24 0 11-9.24 9.24 9.239 9.239 0 019.24-9.24z" fill="#00ead9"/></g><g data-name="Group 16" transform="translate(355.728 200.433)"><g data-name="Group 13"><path data-name="Path 35" d="M559.334 62.199a62.138 62.138 0 10-4.207 22.519 61.88 61.88 0 004.207-22.519zm-25.689 0a36 36 0 01-2.557 13.418 36.457 36.457 0 01-33.952 23.094c-.316 0-.63-.019-.927-.038a36.5 36.5 0 1132.527-54.748 36.076 36.076 0 014.909 18.274z" fill="#e4e5fb" opacity=".45"/><path data-name="Path 36" d="M497.135 124.38V98.71c-.316 0-.63-.019-.927-.038a36.48 36.48 0 01-23.669-63.439l-17.088-19.165a62.174 62.174 0 0041.684 108.312z" fill="#e4e5fb"/><path data-name="Path 37" d="M559.329 62.196a61.976 61.976 0 00-8.52-31.442l-22.084 13.164a36.5 36.5 0 012.367 31.69l24.03 9.1a62 62 0 004.207-22.512z" fill="#9a9ae5"/><path data-name="Path 38" d="M550.813 30.759a62.184 62.184 0 00-95.367-14.69l17.1 19.158a36.48 36.48 0 0156.183 8.7z" fill="#ff7171"/></g><path data-name="Path 39" d="M187.882 16.045h202.433a7.531 7.531 0 017.531 7.532 7.532 7.532 0 01-7.531 7.532H187.882a7.532 7.532 0 01-7.532-7.532 7.531 7.531 0 017.532-7.532zm0 40.814h202.433a7.533 7.533 0 007.531-7.534 7.532 7.532 0 00-7.531-7.532H187.882a7.532 7.532 0 00-7.532 7.532 7.533 7.533 0 007.532 7.534zm0 25.748h202.433a7.533 7.533 0 007.531-7.534 7.532 7.532 0 00-7.531-7.532H187.882a7.532 7.532 0 00-7.532 7.532 7.533 7.533 0 007.532 7.534zm0 25.748h202.433a7.532 7.532 0 007.531-7.532 7.532 7.532 0 00-7.531-7.532H187.882a7.533 7.533 0 00-7.532 7.534 7.532 7.532 0 007.532 7.53z" fill="#e4e5fb"/><path data-name="Path 40" d="M0 155.522v-.223a7.4 7.4 0 017.4-7.422h141.289a7.4 7.4 0 017.4 7.42v.226a7.419 7.419 0 01-7.42 7.42H7.42A7.421 7.421 0 010 155.522zm148.67 18.105H7.42a7.419 7.419 0 00-7.42 7.42v.223a7.419 7.419 0 007.42 7.42h141.25a7.419 7.419 0 007.42-7.42v-.223a7.419 7.419 0 00-7.42-7.42zM0 206.793v.223a7.421 7.421 0 007.42 7.422h141.25a7.421 7.421 0 007.42-7.422v-.223a7.42 7.42 0 00-7.42-7.42H7.42a7.421 7.421 0 00-7.42 7.42zm7.534 33.394h141.022a7.533 7.533 0 007.534-7.534 7.532 7.532 0 00-7.534-7.531H7.534A7.533 7.533 0 000 232.653a7.533 7.533 0 007.534 7.54z" fill="#e4e5fb"/><rect data-name="Rectangle 7" width="138.914" height="102.913" rx="8.107" transform="rotate(180 279.947 123.196)" fill="#e4e5fb"/><g data-name="Group 15"><g data-name="Group 14" clip-path="url(#a)" transform="translate(.001 6.122)"><path data-name="Rectangle 8" d="M5.651 0h144.786a5.652 5.652 0 015.652 5.652V121.5a5.652 5.652 0 01-5.652 5.652H5.651A5.651 5.651 0 010 121.5V5.651A5.651 5.651 0 015.651 0z" fill="#e4e5fb"/><path data-name="Path 41" d="M43.033 111.813l75.218-39.3a13.011 13.011 0 0113.081.6l69.936 45.146v12.91H42.501z" fill="#9a9ae5"/><path data-name="Path 42" d="M-7.071 98.459L43.121 57.93a13.008 13.008 0 0115.738-.461l99.592 71.2H-10.097z" fill="#b6b9ff"/><circle data-name="Ellipse 2" cx="14.641" cy="14.641" r="14.641" transform="translate(82.475 18.527)" fill="#b6b9ff"/></g></g><path data-name="Path 43" d="M305.427 186.415h14.063a7.393 7.393 0 017.391 7.391v44.911a7.392 7.392 0 01-7.391 7.391h-14.063a7.392 7.392 0 01-7.391-7.391v-44.913a7.393 7.393 0 017.391-7.389zm43.673-18.248h14.818a7.013 7.013 0 017.013 7.013v63.914a7.013 7.013 0 01-7.013 7.013H349.1a7.013 7.013 0 01-7.013-7.013v-63.913a7.013 7.013 0 017.013-7.013zm-96.448 5.137v65.775a7.033 7.033 0 007.032 7.03h14.78a7.032 7.032 0 007.032-7.03v-65.775a7.033 7.033 0 00-7.032-7.032h-14.78a7.033 7.033 0 00-7.032 7.032zm-23.569-38.356h-14.782a7.033 7.033 0 00-7.033 7.032v97.1a7.033 7.033 0 007.033 7.03h14.783a7.032 7.032 0 007.03-7.03v-97.1a7.033 7.033 0 00-7.031-7.033z" fill="#e4e5fb"/><path data-name="Path 44" d="M475.203 219.819v-49.767a5.013 5.013 0 017.764-4.19l37.41 24.569a5.011 5.011 0 01.05 8.347l-37.41 25.2a5.013 5.013 0 01-7.814-4.159z" fill="#fff"/></g></g><g data-name="Group 20" transform="translate(477.013 42.298)"><rect data-name="Rectangle 10" width="146.634" height="102.244" rx="9.45" transform="translate(9.299 5.915)" fill="#cbc2ff" opacity=".5" style="mix-blend-mode:multiply;isolation:isolate"/><rect data-name="Rectangle 11" width="146.634" height="102.244" rx="9.45" fill="#fff"/><path data-name="Rectangle 12" d="M9.308 0h128.017a9.308 9.308 0 019.308 9.308V22.9H0V9.308A9.308 9.308 0 019.308 0z" fill="#263f74"/><g data-name="Group 18"><path data-name="Path 46" d="M16.402 12.296a2.371 2.371 0 11-2.37-2.372 2.368 2.368 0 012.37 2.372z" fill="#ff005c"/><path data-name="Path 47" d="M26.93 12.296a2.371 2.371 0 11-2.369-2.372 2.368 2.368 0 012.369 2.372z" fill="#ffc136"/><path data-name="Path 48" d="M37.459 12.296a2.371 2.371 0 11-2.369-2.372 2.37 2.37 0 012.369 2.372z" fill="#00ead9"/></g><g data-name="Group 19" transform="translate(10.783 30.318)"><rect data-name="Rectangle 13" width="125.067" height="4.272" rx=".868" transform="rotate(180 62.533 29.521)" fill="#e4e5fb"/><rect data-name="Rectangle 14" width="125.067" height="4.272" rx=".868" transform="rotate(180 62.533 23.662)" fill="#ff7171"/><rect data-name="Rectangle 15" width="125.067" height="4.272" rx=".868" transform="rotate(180 62.533 17.803)" fill="#ff7171"/><path data-name="Path 49" d="M90.933 13.428A13.429 13.429 0 1177.505 0a13.428 13.428 0 0113.428 13.428zM110.987 0a13.429 13.429 0 1013.43 13.428A13.426 13.426 0 00110.987 0z" fill="#e8e9f5"/></g></g><g data-name="Group 23" transform="translate(528.346 450.911)"><rect data-name="Rectangle 16" width="146.633" height="102.244" rx="9.45" transform="translate(8.314)" fill="#cbc2ff" opacity=".5" style="mix-blend-mode:multiply;isolation:isolate"/><rect data-name="Rectangle 17" width="146.634" height="102.244" rx="9.45" fill="#fff"/><path data-name="Rectangle 18" d="M9.308 0h128.017a9.308 9.308 0 019.308 9.308V22.9H0V9.308A9.308 9.308 0 019.308 0z" fill="#d2d5f7"/><g data-name="Group 21"><path data-name="Path 50" d="M16.402 12.293a2.371 2.371 0 11-2.369-2.372 2.37 2.37 0 012.369 2.372z" fill="#ff005c"/><path data-name="Path 51" d="M26.93 12.293a2.371 2.371 0 11-2.369-2.372 2.37 2.37 0 012.369 2.372z" fill="#ffc136"/><path data-name="Path 52" d="M37.459 12.293a2.371 2.371 0 11-2.372-2.372 2.372 2.372 0 012.372 2.372z" fill="#00ead9"/></g><g data-name="Group 22" transform="translate(10.783 34.205)"><rect data-name="Rectangle 19" width="125.068" height="4.272" rx=".868" transform="rotate(180 62.534 27.577)" fill="#e4e5fb"/><rect data-name="Rectangle 20" width="125.068" height="4.272" rx=".868" transform="rotate(180 62.534 21.718)" fill="#e4e5fb"/><rect data-name="Rectangle 21" width="125.068" height="4.272" rx=".868" transform="rotate(180 62.534 15.86)" fill="#ff7171"/><circle data-name="Ellipse 3" cx="11.279" cy="11.279" r="11.279" transform="translate(102.509)" fill="#e8e9f5"/><path data-name="Path 53" d="M94.068 11.279A11.279 11.279 0 1182.788 0a11.28 11.28 0 0111.28 11.279z" fill="#e8e9f5"/><circle data-name="Ellipse 4" cx="11.279" cy="11.279" r="11.279" transform="translate(40.508)" fill="#e8e9f5"/></g></g><g data-name="Group 26" transform="translate(187.826 231.735)"><rect data-name="Rectangle 22" width="146.633" height="102.244" rx="9.45" transform="translate(8.314 5.642)" fill="#e8e9f5" opacity=".5" style="mix-blend-mode:multiply;isolation:isolate"/><rect data-name="Rectangle 23" width="146.634" height="102.244" rx="4" fill="#fff"/><path data-name="Rectangle 24" d="M9.308 0h128.017a9.308 9.308 0 019.308 9.308V22.9H0V9.308A9.308 9.308 0 019.308 0z" fill="#263f74"/><g data-name="Group 24"><path data-name="Path 54" d="M16.405 12.295a2.372 2.372 0 11-2.372-2.37 2.372 2.372 0 012.372 2.37z" fill="#ff005c"/><path data-name="Path 55" d="M26.93 12.295a2.371 2.371 0 11-2.37-2.37 2.37 2.37 0 012.37 2.37z" fill="#ffc136"/><path data-name="Path 56" d="M37.459 12.295a2.371 2.371 0 11-2.37-2.37 2.37 2.37 0 012.37 2.37z" fill="#00ead9"/></g><g data-name="Group 25" transform="translate(10.783 34.205)"><rect data-name="Rectangle 25" width="125.067" height="4.272" rx=".868" transform="rotate(180 62.533 27.577)" fill="#e4e5fb"/><rect data-name="Rectangle 26" width="125.067" height="4.272" rx=".868" transform="rotate(180 62.533 21.718)" fill="#e4e5fb"/><rect data-name="Rectangle 27" width="125.067" height="4.272" rx=".868" transform="rotate(180 62.533 15.86)" fill="#ff7171"/><circle data-name="Ellipse 5" cx="11.279" cy="11.279" r="11.279" transform="translate(102.508)" fill="#e8e9f5"/><circle data-name="Ellipse 6" cx="11.279" cy="11.279" r="11.279" transform="translate(71.508)" fill="#e8e9f5"/><circle data-name="Ellipse 7" cx="11.279" cy="11.279" r="11.279" transform="translate(40.508)" fill="#e8e9f5"/></g></g><g data-name="Group 34"><path data-name="Path 59" d="M386.691 537.334c9.561-.944 15.6.328 15.218 4.416-.578 6.234-22.114 7.57-25.392 1.49-1.196-2.217.133-4.915 10.174-5.906z" fill="#11025f"/><g data-name="Group 33"><path data-name="Path 60" d="M364.873 380.569c-5.521 15.859-3.981 21.516 8.8 25.81 7.482 2.514 27.783 2.994 41.981 2.108 36.7-2.286 29.888-25.556 11.239-24.477-3.8.219-7.631 2.992-16.491.62s-21.827-6.785-21.827-6.785z" transform="translate(-51.265 143.326)" fill="url(#b)"/><g data-name="Group 28"><path data-name="Path 61" d="M329.332 469.561a8.644 8.644 0 00-6.11 6.346c-1.742 11.767.409 41.168 2.6 45.127 3.018 5.442 36.8 7.779 39.915 8 1.963.14 4.706-.789 6.462-1.493a5.2 5.2 0 013.563-.114c2.4.784 4.513.687 5.4.216 1.288-.687-5.338-5.428-8.525-6.053-1.861-.366-7.41.753-9.107 1.4-1.4.535-25.059-6.018-27.5-9.922-2.134-3.413 1.074-31.573-.532-38.95-1.56-7.179-6.166-4.557-6.166-4.557z" fill="#f6cccf"/><path data-name="Path 62" d="M333.472 462.168c-10.987-.423-12.95 22.2-12.95 22.2 4.154 3.135 10.146 4.3 17.078 4.454-.335-5.647 5.773-26.271-4.128-26.654z" fill="#00ebd5"/></g><path data-name="Path 63" d="M381.995 381.807s30.33 3.677 35.2 8.135c1.73 1.58 2.938 8.282-2.146 9.2-21.261 3.836-34.112 4.3-34.112 4.3z" transform="translate(-24.983 148.78)" fill="url(#b)"/><path data-name="Path 64" d="M426.18 397.657c0 14.7-19.113 14.288-29.784 14.288s-41.144 2.068-39.865-26.338c.97-21.52 27.814 2.728 38.485 2.728s31.164-2.397 31.164 9.322z" transform="translate(-58.642 141.752)" fill="url(#b)"/><path data-name="Path 65" d="M334.883 463.488c-8.48-7.215-32.453-7.529-37.322 14.616-8.05 36.6-2.315 47.718-2.315 47.718 14.576 3.418 47.765 7.215 57.6 1.5a55.212 55.212 0 01-10.039-23.7c-2.072-11.849-1.067-34.299-7.924-40.134z" fill="#b81e57"/><g data-name="Group 29"><path data-name="Path 66" d="M304.056 469.561a8.641 8.641 0 00-6.108 6.346c-1.744 11.767.406 41.168 2.6 45.127 3.018 5.442 36.8 7.779 39.915 8 1.963.14 4.708-.789 6.462-1.493a5.2 5.2 0 013.563-.114c2.4.784 4.513.687 5.4.216 1.29-.687-5.338-5.428-8.523-6.053-1.861-.366-7.413.753-9.107 1.4-1.4.535-25.061-6.018-27.5-9.922-2.134-3.413 1.077-31.573-.53-38.95-1.566-7.179-6.172-4.557-6.172-4.557z" fill="#f6cccf"/><path data-name="Path 67" d="M308.196 462.168c-10.985-.423-12.95 22.2-12.95 22.2 4.157 3.135 10.146 4.3 17.081 4.454-.335-5.647 5.77-26.271-4.131-26.654z" fill="#b81e57"/></g><path data-name="Path 68" d="M317.109 451.642s-.692 2.572 0 9.167c.185 1.773 10.034 5.618 8.848 1.269-1.516-5.561-1.115-8.019-1.333-7.992z" fill="#f6cccf"/><path data-name="Path 69" d="M314.83 445.812a5.664 5.664 0 01.224.978 15.908 15.908 0 002.5 6.935 9.062 9.062 0 006.557 4.01 8.933 8.933 0 006.53-2.508 15.251 15.251 0 003.777-6.042c1.29-3.534 2.768-7.929.715-11.078-.99-1.52-6.166-4.043-9.849-5.7a5.625 5.625 0 00-6.511 1.4l-3.6 4.043a5.646 5.646 0 00-1.142 5.524z" fill="#f6cccf"/><path data-name="Path 70" d="M318.463 446.958c-2-6.555-4.39-1.25-1.878 2.151a5.738 5.738 0 00.568 2.983 11.952 11.952 0 01-4.152-3.81c-2.1-2.643-4.908-14.26 3.068-17.223 8.589-11.215 20.85 5.906 22.78 5.027-.086 2.286-1.994 7.028-6.738 7.574-2.061.238-6.2.694-8.109-.124-3.707-1.588-5.275 4.289-5.539 3.422z" fill="#0d041f"/><g data-name="Group 32"><g data-name="Group 30"><path data-name="Path 71" d="M392.31 530.587h-36.955a1.307 1.307 0 010-2.614l6.593-34.86s35.92-.143 36.638 0a1.31 1.31 0 011.022 1.542z" fill="#b6b9ff"/></g><g data-name="Group 31"><path data-name="Path 72" d="M355.674 530.587h-36.957a1.307 1.307 0 010-2.614h34.82l6.871-33.838a1.307 1.307 0 112.562.52z" fill="#9594f9"/></g></g><path data-name="Path 73" d="M347.147 545.661c9.637.392 16.758 1.7 15.755 5.276-1.331 4.756-25.832 6.293-25.753.746.044-3.175-.082-6.431 9.998-6.022z" fill="#11025f"/></g></g><g data-name="Group 37"><g data-name="Group 36" transform="translate(899.428 428.485)"><rect data-name="Rectangle 28" width="107.393" height="124.671" rx="1.934" fill="#9594f9"/><g data-name="Group 35" transform="translate(6.989 7.618)" fill="#b6b9ff"><rect data-name="Rectangle 29" width="93.415" height="33.296" rx="1.934"/><rect data-name="Rectangle 30" width="93.415" height="33.296" rx="1.934" transform="translate(0 38.07)"/><rect data-name="Rectangle 31" width="93.415" height="33.296" rx="1.934" transform="translate(0 76.139)"/></g></g></g><g data-name="Group 44"><g data-name="Group 39"><path data-name="Path 74" d="M286.944 530.401c4.219-10.288 8.47-20.693 10.208-31.676s.758-22.768-4.95-32.31a11.86 11.86 0 00-2.888-3.506 5.123 5.123 0 00-4.292-1.029c-1.87.5-3.09 2.277-3.947 4.012-4.62 9.347-3.384 20.5-.81 30.6s6.4 20.051 6.666 30.475" fill="#ff7171"/><g data-name="Group 38"><path data-name="Path 75" d="M288.347 528.685a1.04 1.04 0 001.039-.974 268.906 268.906 0 00-2.4-55.917 1.046 1.046 0 00-1.179-.875 1.035 1.035 0 00-.875 1.179 267.067 267.067 0 012.381 55.487 1.038 1.038 0 00.975 1.1z" fill="#60c6bc" opacity=".35"/></g></g><g data-name="Group 41"><path data-name="Path 76" d="M290.082 530.503c-2.5-7.173-1.935-14.987-2.215-22.576s-1.718-15.731-7.137-21.055a12.1 12.1 0 00-5.461-3.256 7.436 7.436 0 00-6.143 1.048c-2.358 1.749-3.149 4.922-3.308 7.852-.447 8.259 2.854 16.37 7.65 23.108s11.032 12.294 17.228 17.77" fill="#ff7171"/><g data-name="Group 40"><path data-name="Path 77" d="M289.661 532.528a1.038 1.038 0 001.013-1.69 72.34 72.34 0 01-16.857-39.507 1.04 1.04 0 10-2.07.2 74.432 74.432 0 0017.349 40.654 1.045 1.045 0 00.565.343z" fill="#60c6bc" opacity=".35"/></g></g><g data-name="Group 43"><path data-name="Path 78" d="M289.157 531.199c4.074-1.25 7.467-4.095 10.412-7.175a61.6 61.6 0 0013.088-20.836 23.014 23.014 0 001.747-7.786 10.312 10.312 0 00-2.657-7.348c-2.821-2.866-7.61-3.161-11.2-1.35s-6.065 5.357-7.432 9.138a48.081 48.081 0 00-2.141 11.838l-1.984 20.855" fill="#ff7171"/><g data-name="Group 42"><path data-name="Path 79" d="M288.262 529.041a1.041 1.041 0 00.715-.285 59.59 59.59 0 0017.319-31.861 1.04 1.04 0 10-2.042-.387 57.5 57.5 0 01-16.71 30.742 1.04 1.04 0 00.718 1.792z" fill="#60c6bc" opacity=".35"/></g></g><path data-name="Path 80" d="M280.49 553.246h19.193l6.893-26.332h-32.98z" fill="#3f60a3"/><path data-name="Rectangle 32" fill="#0f3075" d="M307.971 532.807H272.2v-8.644h35.771z"/></g><g data-name="Group 45" transform="translate(441.227 239.452)"><path data-name="Path 82" d="M11.285 3.555h47.368a6.746 6.746 0 016.745 6.745v32.179a6.746 6.746 0 01-6.745 6.745h-3.441l7.441 7.565-19.393-7.565H11.285a6.746 6.746 0 01-6.745-6.745V10.3a6.746 6.746 0 016.745-6.745z" fill="#cbc2ff" opacity=".5" style="mix-blend-mode:multiply;isolation:isolate"/><rect data-name="Rectangle 33" width="60.857" height="45.666" rx="3.793" transform="rotate(180 30.428 22.833)" fill="#fff"/><path data-name="Path 83" d="M48.427 43.383l9.685 9.849-25.244-9.849" fill="#fff"/><path data-name="Path 84" d="M54.25 15.329H6.608a1.778 1.778 0 010-3.555H54.25a1.778 1.778 0 010 3.555zm1.778 7.5a1.778 1.778 0 00-1.778-1.778H6.608a1.778 1.778 0 000 3.555H54.25a1.778 1.778 0 001.777-1.774zm0 9.283a1.779 1.779 0 00-1.778-1.78H6.608a1.779 1.779 0 000 3.558H54.25a1.778 1.778 0 001.777-1.774z" fill="#e4e5fb"/></g><g data-name="Group 46" transform="translate(788.193 407.708)"><path data-name="Path 85" d="M58.067 3.721H10.699a6.744 6.744 0 00-6.745 6.742V42.64a6.746 6.746 0 006.745 6.745h3.441l-7.441 7.567 19.393-7.567h31.975a6.746 6.746 0 006.745-6.745V10.463a6.744 6.744 0 00-6.745-6.742z" fill="#cbc2ff" opacity=".5" style="mix-blend-mode:multiply;isolation:isolate"/><rect data-name="Rectangle 34" width="60.857" height="45.666" rx="3.793" fill="#fff"/><path data-name="Path 86" d="M12.43 43.383l-9.685 9.849 25.244-9.849" fill="#fff"/><path data-name="Path 87" d="M4.829 13.551a1.778 1.778 0 011.778-1.778h47.644a1.778 1.778 0 010 3.555H6.607a1.778 1.778 0 01-1.778-1.777zm1.778 11.061h47.644a1.779 1.779 0 000-3.558H6.607a1.779 1.779 0 000 3.558zm0 9.281h47.644a1.778 1.778 0 000-3.555H6.607a1.778 1.778 0 100 3.555z" fill="#e4e5fb"/></g><g data-name="Group 52"><g data-name="Group 50"><g data-name="Group 47"><path data-name="Path 88" d="M498.347 553.155a2.272 2.272 0 01-2.208-2.819l62.557-252a2.271 2.271 0 114.409 1.093l-62.555 252a2.271 2.271 0 01-2.203 1.726z" fill="#243c6e"/></g><g data-name="Group 48"><path data-name="Path 89" d="M548.211 553.155a2.312 2.312 0 01-.551-.067 2.272 2.272 0 01-1.657-2.752l62.555-252a2.272 2.272 0 114.411 1.093l-62.555 252a2.273 2.273 0 01-2.203 1.726z" fill="#243c6e"/></g><g data-name="Group 49"><path data-name="Path 90" d="M558.141 509.917l-49.534-.174.014-4.542 49.536.171zm7.94-32.084l-49.531-.173.017-4.544 49.534.173zm7.945-32.089l-49.531-.171.014-4.544 49.536.173zm7.943-32.087l-49.531-.174.017-4.544 49.534.174zm7.945-32.084l-49.534-.173.017-4.544 49.536.173zm7.945-32.089l-49.534-.173.017-4.542 49.536.171zm7.943-32.087l-49.531-.171.017-4.544 49.534.174z" fill="#243c6e"/></g></g><g data-name="Group 51" transform="translate(508.29 278.865)"><path data-name="Path 91" d="M64.415 54.782c3.045-1.219 4.668-4.475 7.85-4.007 1.747.259 1.022 5.328-1.621 8.083-.627.654-5.58 2.172-5.58 2.172z" fill="#c6c9fa"/><path data-name="Path 92" d="M41.475 157.787l9.125-.726-.576 3.13 11.525 5.623-22.6-1.6z" fill="#11025f"/><path data-name="Path 93" d="M12.179 189.221l9.125-.726-.576 3.13 11.522 5.626-22.6-1.6z" fill="#11025f"/><path data-name="Path 94" d="M66.611 52.178s-12.655 5.633-19.564 5.633c-4.684 0-9.119-25.123-19.089-25.123-.974 6.11.537 11.579-1.188 17.53 3.705 9.464 9.411 19.919 14.54 21.309 5.737 1.559 25.3-10.246 25.3-10.246z" fill="#214286"/><path data-name="Path 95" d="M451.6 328.409c-9.526 2.838-22.3 8.149-32.263 8.3a368.857 368.857 0 00-.009 6.075c-.081 10.55 12.651 52.317 12.651 52.317L419.537 435.3l10.49.758 17.5-39.152s-.863-21.444-4.019-43.708c4.1 3.558 19.405 14.367 21.52 16.32-2.208 5.984-16.192 34.649-16.192 34.649l11.5.606s22.347-35.742 22.11-39.609c-6.968-12.673-25.72-31.921-30.846-36.755z" transform="translate(-408.439 -245.595)" fill="url(#c)"/><path data-name="Path 96" d="M37.321 65.047c-1.8.608-4.2-.727-3.465-3.049 2.992-9.44.936-24.058-4.159-28.17-5.478-4.42-13.352-3.41-19.586-1.809-16.762 11.389-7.969 62.933-2.512 79.075 22.269-4.834 32.227-7.648 44.792-19.847-2.614-8.354-15.968-18.816-15.07-26.2z" fill="#214286"/><path data-name="Path 97" d="M32.012 77.686C10.112 78.437 9.42 61.069.584 56.622c.364 2.918-.1 18.74 7.322 30.266 3.434 5.331 39.053 4.582 44.089 3.323-1.443-3.563-4.582-7.455-7.593-11.3-4.107-.144-8.179-1.37-12.39-1.225z" fill="#f7c90b" opacity=".47" style="mix-blend-mode:multiply;isolation:isolate"/><path data-name="Path 98" d="M20.02 25.552a12.719 12.719 0 01-.787 5.267c1.913 2.664 5.369 5.169 6.626 4.92s-.247-2.308-.247-2.538c-.014-2.74.54-3.978 1.184-6.64" fill="#f6cccf"/><rect data-name="Rectangle 35" width="73.409" height="81.991" rx="2.703" transform="rotate(-169.623 66.066 42.629)" fill="#ff7171"/><path data-name="Path 99" d="M39.405 15.081c-.111 8.419-5.241 21.851-13.882 15.767a23.17 23.17 0 01-9.378-15.861s15.097-20.653 23.26.094z" fill="#f6cccf"/><path data-name="Path 100" d="M54.112 79.418c3.273.211 6.018-1.73 7.919-.654s6.555 6.781-2.531 6.569-7.494 0-7.494 0z" fill="#f6cccf"/><path data-name="Path 101" d="M14.693 32.686c-2.175-2.831-9-.185-11.306 3.068C-5.345 48.077 5.35 75.741 7.14 79.812c3.893 8.853 46.919 6.89 46.919 6.89l2.415-7.843s-33.273-4.28-37.242-7.192c-1.547-1.133 3.161-28.975-4.539-38.981z" fill="#214286"/><path data-name="Path 102" d="M41.295 7.558a3.131 3.131 0 00-4.547-.254 2.531 2.531 0 00-3.777-3.358c.352-1.138-.822-2.281-2.011-2.37A6.029 6.029 0 0027.63 2.7a2.857 2.857 0 00-4.988-1.146 1.551 1.551 0 00-1.272-1.5 3.616 3.616 0 00-2.089.316 6.153 6.153 0 00-3.054 2.327 3.214 3.214 0 00.095 3.655 1.478 1.478 0 00-1.965-.271 2.413 2.413 0 00-.972 1.882 7.092 7.092 0 00.3 2.167 1.916 1.916 0 00-2.638-.454 2.906 2.906 0 00-1.112 2.636 6.365 6.365 0 001.051 2.778 28.146 28.146 0 011.549 2.562c-2.11 5.2 6.129 7.94 7.629 8.67 1.131-.568.723-4.28.585-4.482-2.709-4 1.927-7.655 1.847-1.328 0 0 .413 1.854 1.34-1.445 0 0 .753-3.674 7.715-2.79.119.014.223 0 .34 0a2.1 2.1 0 00.8.371 2.228 2.228 0 001.939-.616 7.452 7.452 0 00.87-.264 5.133 5.133 0 002.515.594 3.228 3.228 0 002.638-1.485 2.313 2.313 0 00-.418-2.871 3.13 3.13 0 00.96-4.448z" fill="#0d041f"/></g></g><g data-name="Group 59"><g data-name="Group 58"><path data-name="Path 103" d="M889.912 490.952l4.863-10.536 18.148-2.03-12.707 9.7-4.232 5.07z" fill="#11025f"/><path data-name="Path 104" d="M907.641 492.602l4.863-10.537 18.148 5.4-12.707 2.266-4.232 5.071z" fill="#11025f"/><path data-name="Path 105" d="M604.079 421.9c4.984-16.922 6.716-25.615 18.345-38.879 1.552-1.768 10.181-.444 11.531 1.483-12.884 18.027-15.412 56.59-21.344 59.446s-50.047-.4-72.5-.178c2.671-.026 16.584-17.858 16.632-19.674.481-17.961 37.136-6.586 47.336-2.198z" transform="translate(266.138 107.313)" fill="url(#d)"/><path data-name="Path 106" d="M605.965 429.938c4.984-16.922 12.456-32.99 24.085-46.254 1.552-1.768 10.7-1.4 12.052.535-12.884 18.027-15.707 57.612-21.637 60.468s-50.463.834-72.912 1.055c2.669-.026-.761-20.337-.425-22.122 3.3-17.543 48.636 1.926 58.837 6.318z" transform="translate(275.758 107.794)" fill="url(#d)"/><g data-name="Group 53"><path data-name="Path 107" d="M759.714 519.031c2.716.5 4.356 3.51 4.055 6.258-1.4 12.8-.58 21.715-9.587 26.083-5.6 2.714-41.508 1.041-44.619 1.259-1.963.138-4.706-.789-6.462-1.492a5.2 5.2 0 00-3.562-.116c-2.4.787-4.513.689-5.4.216-1.29-.687 5.338-5.426 8.525-6.053 1.861-.364 7.41.756 9.107 1.4 1.4.535 29.734-.723 33.907-2.678 5.473-2.562 5.008-9.623 9.4-18.015 3.41-6.506 4.636-6.862 4.636-6.862z" fill="#f6cccf"/><path data-name="Path 108" d="M761.314 517.5c8.34 2.895-.927 19.75-.927 19.75-4.024 1.127-7.441-1.05-12.672-2.961 1.901-4.126 6.084-19.396 13.599-16.789z" fill="#ff7171"/></g><path data-name="Path 109" d="M762.742 546.298c-7.784-4.406-14.975-31.043 6.987-34.549 15.36-2.453 22.069 6.412 33.342 10.571 15.888 5.861 23.888 1.561 23.888 1.561 3.574 14.538 5.982 23.167-2.562 29.846 0 0-6.479-1.072-24.717-.242-12.019.547-22.719.867-36.938-7.187z" fill="#ff7171"/><g data-name="Group 54"><path data-name="Path 110" d="M779.35 518.506a5.465 5.465 0 014.057 6.258c-2.657 13.87-3.487 20.634-14.029 27.338-5.253 3.337-37.066-.216-40.179 0-1.963.138-4.706-.792-6.462-1.493a5.189 5.189 0 00-3.563-.116c-2.4.787-4.511.689-5.4.216-1.288-.687 5.338-5.428 8.525-6.053 1.861-.366 7.41.753 9.107 1.4 1.4.535 26.518.984 30.692-.97 5.473-2.562 5.9-12.634 10.3-21.024 3.408-6.502 6.952-5.556 6.952-5.556z" fill="#f6cccf"/><path data-name="Path 111" d="M780.352 516.16c10.388 3.605 1.217 24.981 1.217 24.981-5.012 1.4-8.948-.682-15.462-3.063 2.369-5.139 4.886-25.167 14.245-21.918z" fill="#ff7171"/></g><path data-name="Path 112" d="M764.279 506.494a44.862 44.862 0 012.907 7.351c1.293 3.836-6.438 11.645-6.928 4.5-.395-5.751-1.466-5.887-1.262-5.972z" fill="#f6cccf"/><path data-name="Path 113" d="M765.706 504.459a5.665 5.665 0 00.086 1.021 16.135 16.135 0 01-.259 7.5 9.232 9.232 0 01-5.1 5.936 9.093 9.093 0 01-7.117-.395 15.482 15.482 0 01-5.547-4.68c-2.354-3.023-5.158-6.824-4.15-10.52.484-1.783 4.714-5.843 7.772-8.6a5.736 5.736 0 016.75-.673l4.754 2.8a5.737 5.737 0 012.832 5z" fill="#f6cccf"/><path data-name="Path 114" d="M763.058 502.737c-.1-6.852 3.8-2.536 2.446 1.471a5.742 5.742 0 01.373 3.014 11.978 11.978 0 002.783-4.9c1.193-3.159.3-15.075-8.2-15.453-11.612-8.042-18.039 12.011-20.144 11.767.784 2.148 4.052 6.077 8.736 5.143 2.032-.4 6.118-1.241 7.679-2.6 3.045-2.651 6.341 2.463 6.327 1.558z" fill="#0d041f"/><g data-name="Group 57"><g data-name="Group 55"><path data-name="Path 115" d="M670.778 553.155h36.954a1.306 1.306 0 100-2.612l-6.593-34.863s-35.92-.143-36.638 0a1.311 1.311 0 00-1.02 1.542z" fill="#b6b9ff"/></g><g data-name="Group 56"><path data-name="Path 116" d="M707.416 553.158h36.954a1.306 1.306 0 100-2.612h-34.818l-6.871-33.841a1.307 1.307 0 10-2.562.52z" fill="#9594f9"/></g></g><path data-name="Path 117" d="M759.94 487.743a18.862 18.862 0 015.982-11.227 14.928 14.928 0 0112.028-3.627 12.39 12.39 0 019.592 7.81c1.8 5.136-.271 11.137 2 16.08 1.376 3 4.116 5.088 6.481 7.387s4.549 5.278 4.247 8.563c-.357 3.874-4.342 6.721-8.233 6.743s-7.5-2.213-10.141-5.067c-2.6-2.812-4.551-6.609-3.9-10.386.7-4.04 4.171-7.192 4.813-11.241.718-4.551-2.736-9.178-7.185-10.386s-11.011 2.51-14.084 5.949" fill="#0d041f"/></g></g><g data-name="Group 60"><path data-name="Path 118" d="M936.268 403.463l.038-5.421c0-8.354-3.3-16.812-9.542-24.465a33.477 33.477 0 01-7.063-27.284 33.945 33.945 0 1159.705 27.379c-6.184 7.524-9.457 15.954-9.457 24.365l.071 5.428z" fill="#ffd893"/><path data-name="Path 119" d="M958.547 401.799c.04-.8.081-1.607.1-2.412.014-.692 7.729-26.54 4.829-31.768a4.071 4.071 0 00-2.405-2.006 4.993 4.993 0 00-3.641.561 6.032 6.032 0 00-4.656-2.465 4.972 4.972 0 00-4.394 2.536 5.662 5.662 0 00-.582-.278 4.568 4.568 0 00-4.817.654c-3.517 2.968 4.4 31.733 4.4 32.446v2.733zm-13.181-32.683c.178-.145.4-.349 1.081-.055a3.691 3.691 0 01.637.375c-.375 1.73-.342 3.7.846 4.758a2.8 2.8 0 003.09.368 2.579 2.579 0 001.526-2.507 6.316 6.316 0 00-1.454-3.458 5.149 5.149 0 01.456-.772c.219-.3.646-.791 1.074-.772a2.559 2.559 0 012.053 1.264 7.726 7.726 0 00-1.645 2.6 2.967 2.967 0 001.982 4.057 2.838 2.838 0 002.873-.684c1.131-1.141 1.3-3.168.922-5a2.832 2.832 0 011.2-.494.77.77 0 01.307.345c2.027 3.665-1.443 18.219-4.694 28.679h-5.136c-3.747-12.924-6.604-26.739-5.118-28.705z" fill="#fff"/><path data-name="Path 120" d="M932.798 406.262a4.464 4.464 0 004.463 4.463h31.726a4.464 4.464 0 004.463-4.463 4.464 4.464 0 00-4.463-4.463h-31.726a4.464 4.464 0 00-4.463 4.463z" fill="#243c6e"/><path data-name="Path 121" d="M932.798 415.186a4.464 4.464 0 004.463 4.463h31.726a4.464 4.464 0 004.463-4.463 4.462 4.462 0 00-4.463-4.461h-31.726a4.462 4.462 0 00-4.463 4.461z" fill="#243c6e"/><path data-name="Path 122" d="M932.798 424.113a4.462 4.462 0 004.463 4.461h31.726a4.462 4.462 0 004.463-4.461 4.464 4.464 0 00-4.463-4.463h-31.726a4.464 4.464 0 00-4.463 4.463z" fill="#243c6e"/></g></g></g><path data-name="Path 50" d="M1148.157 476.136a1.44 1.44 0 01-2.036-2.036l8.072-8.075-8.072-8.073a1.44 1.44 0 012.036-2.036l9.09 9.09a1.435 1.435 0 010 2.036l-9.09 9.092zm-14.194-18.184l8.069 8.072-8.069 8.075a1.44 1.44 0 002.035 2.036l9.09-9.092a1.439 1.439 0 000-2.036l-9.09-9.09a1.439 1.439 0 00-2.035 2.035zm50.675 18.182a1.44 1.44 0 01-2.036-2.036l8.069-8.075-8.068-8.071a1.44 1.44 0 012.036-2.036l9.09 9.09a1.435 1.435 0 010 2.036l-9.09 9.092zm-12.159 0l9.09-9.092a1.444 1.444 0 000-2.036l-9.09-9.09a1.44 1.44 0 00-2.038 2.036l8.072 8.072-8.072 8.075a1.44 1.44 0 002.038 2.036zm-12.161 0l9.087-9.092a1.435 1.435 0 000-2.036l-9.087-9.09a1.44 1.44 0 00-2.038 2.036l8.075 8.072-8.075 8.075a1.44 1.44 0 002.038 2.036z" fill="#e88397" fill-rule="evenodd"/><path data-name="Path 52" d="M354.211 197.924a1.434 1.434 0 11.1 2.867c-2.6.093-3.954-1.5-5.35-3.141-.992-1.165-2.017-2.37-3.538-2.37s-2.541 1.2-3.535 2.37c-1.388 1.631-2.735 3.214-5.3 3.144-2.561.07-3.91-1.512-5.3-3.144-.995-1.165-2.017-2.37-3.538-2.37s-2.543 1.2-3.535 2.37c-1.391 1.631-2.735 3.214-5.3 3.144-2.564.07-3.91-1.512-5.3-3.144-.994-1.165-2.02-2.37-3.538-2.37s-2.543 1.2-3.538 2.37c-1.385 1.631-2.732 3.214-5.3 3.144-2.561.07-3.908-1.512-5.293-3.144-.994-1.165-2.02-2.37-3.54-2.37s-2.54 1.2-3.535 2.37c-1.388 1.631-2.735 3.214-5.3 3.144-2.561.07-3.91-1.512-5.3-3.144-.992-1.165-2.015-2.37-3.535-2.37s-2.54 1.2-3.535 2.37c-1.4 1.642-2.753 3.235-5.35 3.141a1.434 1.434 0 01.1-2.867c1.217.041 2.129-1.028 3.066-2.131 1.422-1.668 2.888-3.39 5.718-3.39s4.3 1.722 5.718 3.39c.935 1.1 1.846 2.168 3.058 2.131h.119c1.209.036 2.118-1.031 3.053-2.131 1.424-1.668 2.89-3.39 5.718-3.39s4.3 1.722 5.721 3.39c.937 1.1 1.844 2.168 3.056 2.131h.119c1.212.036 2.118-1.031 3.056-2.131 1.419-1.668 2.887-3.39 5.718-3.39s4.3 1.722 5.721 3.39c.932 1.1 1.841 2.168 3.053 2.131h.119c1.212.036 2.121-1.031 3.056-2.131 1.422-1.668 2.887-3.39 5.718-3.39s4.3 1.722 5.721 3.39c.935 1.1 1.844 2.168 3.056 2.131h.117c1.212.036 2.121-1.031 3.056-2.131 1.422-1.668 2.888-3.39 5.718-3.39s4.3 1.722 5.721 3.39c.958 1.103 1.87 2.173 3.084 2.131z" fill="#e88397" fill-rule="evenodd"/><path data-name="Path 11004" d="M1000.211 157.924a1.434 1.434 0 11.1 2.867c-2.6.093-3.954-1.5-5.35-3.141-.992-1.165-2.017-2.37-3.538-2.37s-2.541 1.2-3.535 2.37c-1.388 1.631-2.735 3.214-5.3 3.144-2.561.07-3.91-1.512-5.3-3.144-.995-1.165-2.017-2.37-3.538-2.37s-2.543 1.2-3.535 2.37c-1.391 1.631-2.735 3.214-5.3 3.144-2.564.07-3.91-1.512-5.3-3.144-.994-1.165-2.02-2.37-3.538-2.37s-2.543 1.2-3.538 2.37c-1.385 1.631-2.732 3.214-5.3 3.144-2.561.07-3.908-1.512-5.293-3.144-.994-1.165-2.02-2.37-3.54-2.37s-2.54 1.2-3.535 2.37c-1.388 1.631-2.735 3.214-5.3 3.144-2.561.07-3.91-1.512-5.3-3.144-.992-1.165-2.015-2.37-3.535-2.37s-2.54 1.2-3.535 2.37c-1.4 1.642-2.753 3.235-5.35 3.141a1.434 1.434 0 01.1-2.867c1.217.041 2.129-1.028 3.066-2.131 1.422-1.668 2.888-3.39 5.718-3.39s4.3 1.722 5.718 3.39c.935 1.1 1.846 2.168 3.058 2.131h.119c1.209.036 2.118-1.031 3.053-2.131 1.424-1.668 2.89-3.39 5.718-3.39s4.3 1.722 5.721 3.39c.937 1.1 1.844 2.168 3.056 2.131h.119c1.212.036 2.118-1.031 3.056-2.131 1.419-1.668 2.887-3.39 5.718-3.39s4.3 1.722 5.721 3.39c.932 1.1 1.841 2.168 3.053 2.131h.119c1.212.036 2.121-1.031 3.056-2.131 1.422-1.668 2.887-3.39 5.718-3.39s4.3 1.722 5.721 3.39c.935 1.1 1.844 2.168 3.056 2.131h.117c1.212.036 2.121-1.031 3.056-2.131 1.422-1.668 2.888-3.39 5.718-3.39s4.3 1.722 5.721 3.39c.958 1.103 1.87 2.173 3.084 2.131z" fill="#e88397" fill-rule="evenodd"/><path data-name="Path 53" d="M1306.166 344.155a8.044 8.044 0 015.705 2.364h.005a8.078 8.078 0 010 11.421l-.086.08a8.074 8.074 0 11-5.625-13.865zm3.677 4.4a5.194 5.194 0 10-.065 7.419l.062-.067a5.2 5.2 0 000-7.35z" fill="#e88397" fill-rule="evenodd"/><path data-name="Path 56" d="M1182.816 295.293a1.44 1.44 0 012.88 0v4.643h4.641a1.44 1.44 0 110 2.88h-4.641v4.641a1.44 1.44 0 11-2.88 0v-4.641h-4.64a1.44 1.44 0 110-2.88h4.643z" fill="#e88397" fill-rule="evenodd"/><path data-name="Path 58" d="M6.083 295.601a1.44 1.44 0 112.88 0v4.641h4.641a1.44 1.44 0 110 2.88H8.963v4.643a1.44 1.44 0 01-2.88 0v-4.643H1.44a1.44 1.44 0 110-2.88h4.643z" fill="#e88397" fill-rule="evenodd"/><path data-name="Path 62" d="M77.577 158.555zm4.563-17.369a8.778 8.778 0 11-2.569 6.2 8.751 8.751 0 012.569-6.2zm1.9-8.7a15.341 15.341 0 00-3.439 1.463 15.521 15.521 0 00-3.017 2.274.542.542 0 01-.645.08l-4.076-2.357-.023-.013a1.021 1.021 0 00-.743-.085 1 1 0 00-.611.471l-.018.028-2.872 4.967a1.041 1.041 0 00-.1.769 1.027 1.027 0 00.471.614l.029.018 4.043 2.333a.542.542 0 01.256.6 15.262 15.262 0 00-.342 1.852 15.747 15.747 0 000 3.781 15.3 15.3 0 00.342 1.854.542.542 0 01-.285.611l-4.043 2.336a1.012 1.012 0 00-.471.614 1.042 1.042 0 00.1.769l2.888 5a1.012 1.012 0 001.378.37l.031-.016 4.048-2.338a.542.542 0 01.642.078 15.524 15.524 0 006.479 3.747.542.542 0 01.391.518v4.7a.994.994 0 00.3.712 1 1 0 00.712.3h5.772a1.017 1.017 0 001.007-1.01v-4.7a.542.542 0 01.414-.526 15.424 15.424 0 003.442-1.466 15.6 15.6 0 003.017-2.274.537.537 0 01.668-.06l4.05 2.336a.99.99 0 00.767.1 1.022 1.022 0 00.614-.469l.018-.026 2.867-4.972a.99.99 0 00.1-.767 1 1 0 00-.466-.614l-4.076-2.351a.539.539 0 01-.251-.6 16.4 16.4 0 00.339-1.854 15.738 15.738 0 000-3.781 16.354 16.354 0 00-.339-1.852.535.535 0 01.282-.614l4.045-2.333a1.018 1.018 0 00.466-.614.988.988 0 00-.1-.766l-.016-.031-2.869-4.97a1.026 1.026 0 00-.614-.471 1.013 1.013 0 00-.767.1l-4.076 2.357a.54.54 0 01-.655-.091 15.456 15.456 0 00-6.466-3.734.538.538 0 01-.394-.518v-4.705a1.017 1.017 0 00-1.007-1.007h-5.772a1 1 0 00-.712.3.988.988 0 00-.3.71v4.705a.546.546 0 01-.417.522z" fill="#f6cccf" fill-rule="evenodd"/></g></svg>