<svg xmlns="http://www.w3.org/2000/svg" width="377.708" height="442.106" viewBox="0 0 377.708 442.106"><g data-name="Group 2278" fill-rule="evenodd"><path data-name="Path 10979" d="M43.637 22.837zm7.848-18.543h-3.414a.27.27 0 00-.19.08l-.019.017a.276.276 0 00-.061.173v2.783a.644.644 0 01-.5.626 8.827 8.827 0 00-3.668 2.129.645.645 0 01-.8.074l-2.377-1.373a.281.281 0 00-.374.1l-1.676 2.9a.6.6 0 01-.046.082.3.3 0 00-.011.179.281.281 0 00.107.151.668.668 0 01.071.046l2.357 1.36a.64.64 0 01.3.709 8.725 8.725 0 00-.193 1.058 9.08 9.08 0 000 2.159 8.353 8.353 0 00.2 1.057.646.646 0 01-.341.731l-2.373 1.37a.274.274 0 00-.124.165.278.278 0 00.025.209l1.706 2.956a.267.267 0 00.165.123.278.278 0 00.209-.024l2.41-1.393a.646.646 0 01.767.093 8.793 8.793 0 003.693 2.137.645.645 0 01.47.618v2.783a.27.27 0 00.08.19l.017.019a.276.276 0 00.173.061h3.414a.273.273 0 00.19-.08.27.27 0 00.08-.19v-2.783a.644.644 0 01.5-.626 8.81 8.81 0 003.668-2.129.645.645 0 01.769-.093l2.426 1.4a.271.271 0 00.192.016.267.267 0 00.165-.123l1.706-2.956a.286.286 0 00.025-.209.268.268 0 00-.123-.165l-2.41-1.392a.643.643 0 01-.3-.709 8.668 8.668 0 00.2-1.057 9.08 9.08 0 000-2.159 8.749 8.749 0 00-.2-1.058.644.644 0 01.341-.73l2.373-1.37a.273.273 0 00.124-.165.286.286 0 00-.025-.209l-1.706-2.956a.272.272 0 00-.165-.123.266.266 0 00-.208.025l-2.412 1.392a.644.644 0 01-.783-.107 8.9 8.9 0 00-1.708-1.283 8.79 8.79 0 00-1.973-.84.641.641 0 01-.469-.618V4.563a.279.279 0 00-.079-.192.273.273 0 00-.19-.08zm-5.605 8.275a5.514 5.514 0 11-1.616 3.9 5.491 5.491 0 011.615-3.9z" fill="#f6cccf"/><path data-name="Path 10987" d="M349.783 441.852a.874.874 0 01-1.236-1.236l4.9-4.9-4.9-4.9a.874.874 0 011.236-1.236l5.519 5.519a.871.871 0 010 1.236l-5.519 5.521zm-8.618-11.04l4.9 4.9-4.9 4.9a.874.874 0 001.236 1.236l5.519-5.521a.874.874 0 000-1.236l-5.519-5.519a.874.874 0 00-1.236 1.236zm30.768 11.04a.874.874 0 01-1.236-1.236l4.9-4.9-4.9-4.9a.874.874 0 011.236-1.236l5.519 5.519a.871.871 0 010 1.236l-5.519 5.521zm-7.382 0l5.519-5.521a.877.877 0 000-1.236l-5.519-5.519a.875.875 0 00-1.238 1.236l4.9 4.9-4.9 4.9a.875.875 0 001.238 1.236zm-7.384 0l5.517-5.521a.871.871 0 000-1.236l-5.517-5.519a.874.874 0 00-1.237 1.236l4.9 4.9-4.9 4.9a.874.874 0 001.237 1.236z" fill="#e88397"/><path data-name="Path 10988" d="M348.36 350.267a.874.874 0 111.748 0v2.816h2.818a.874.874 0 110 1.748h-2.816v2.818a.874.874 0 11-1.748 0v-2.818h-2.819a.874.874 0 110-1.748h2.819z" fill="#e88397"/><path data-name="Path 10983" d="M166.463 292.165a.875.875 0 011.749 0v2.818h2.818a.874.874 0 110 1.748h-2.818v2.819a.875.875 0 01-1.749 0v-2.817h-2.819a.874.874 0 110-1.748h2.819z" fill="#e88397"/><path data-name="Path 10986" d="M276.238 385.668a33.739 33.739 0 01-12.726-7.363l-7.6 4.4-.072.038a4.261 4.261 0 01-5.741-1.594l-.033-.061-5.854-10.137a4.258 4.258 0 011.554-5.807l.063-.033 7.538-4.352a33.85 33.85 0 01-.555-3.244 33.938 33.938 0 010-8.223q.2-1.641.557-3.244l-7.6-4.387a4.259 4.259 0 01-1.554-5.807l5.832-10.1a1.188 1.188 0 01.1-.168 4.257 4.257 0 015.684-1.525 1.187 1.187 0 01.168.1l7.517 4.34a33.814 33.814 0 0112.727-7.36v-8.776a4.265 4.265 0 014.258-4.256h11.761a4.268 4.268 0 014.256 4.256v8.772a33.793 33.793 0 0112.727 7.362l7.518-4.341a1.1 1.1 0 01.192-.108 4.251 4.251 0 015.659 1.536.992.992 0 01.1.167l5.832 10.1a4.256 4.256 0 01-1.558 5.811l-7.6 4.385q.356 1.6.557 3.244a33.921 33.921 0 010 8.223q-.2 1.642-.557 3.244l7.6 4.385a4.255 4.255 0 011.558 5.811l-.035.057-5.849 10.131a4.262 4.262 0 01-5.808 1.557l-7.605-4.392a33.911 33.911 0 01-5.97 4.387 33.571 33.571 0 01-6.755 2.972v8.772a4.268 4.268 0 01-4.256 4.256h-11.772a4.265 4.265 0 01-4.258-4.256v-8.772zm-34.726-70.789a17.284 17.284 0 01-5.811-3.363l-3.417 1.972a2.651 2.651 0 01-3.626-.975l-2.914-5.046a2.66 2.66 0 01.973-3.624l.061-.031 3.352-1.936a15.842 15.842 0 01-.2-1.259 17.376 17.376 0 010-4.2c.052-.423.12-.844.2-1.261l-3.409-1.967 14.791 21.69zm-1.965-3.293a14.963 14.963 0 003.321 1.415 1.1 1.1 0 01.844 1.071v4.744a.461.461 0 00.107.3l.03.028a.466.466 0 00.326.137h5.819a.466.466 0 00.325-.137.465.465 0 00.135-.327v-4.744a1.1 1.1 0 01.8-1.057 14.915 14.915 0 003.363-1.429 15.111 15.111 0 002.913-2.19 1.1 1.1 0 011.335-.182l4.112 2.374a.463.463 0 00.351.041.448.448 0 00.283-.211l2.912-5.039a.474.474 0 00.041-.355.465.465 0 00-.215-.283l-4.044-2.335a1.1 1.1 0 01-.58-1.247 14.607 14.607 0 00.33-1.8 15.453 15.453 0 000-3.681 14.685 14.685 0 00-.33-1.8 1.1 1.1 0 01.519-1.211l4.107-2.371a.456.456 0 00.211-.283.474.474 0 00-.041-.355l-2.912-5.039a.448.448 0 00-.283-.211.474.474 0 00-.322.024l-4.138 2.392a1.1 1.1 0 01-1.31-.159 15.214 15.214 0 00-2.939-2.212 14.9 14.9 0 00-3.316-1.415 1.1 1.1 0 01-.846-1.071v-4.744a.452.452 0 00-.137-.324.465.465 0 00-.325-.137h-5.819a.47.47 0 00-.3.107l-.028.03a.452.452 0 00-.137.324v4.744a1.1 1.1 0 01-.8 1.057 15.053 15.053 0 00-6.3 3.642 1.094 1.094 0 01-1.305.16l-4.112-2.373a.46.46 0 00-.355-.042.444.444 0 00-.281.211l-2.91 5.039a.476.476 0 00.171.638l4.044 2.335a1.1 1.1 0 01.58 1.245 15.247 15.247 0 000 7.286 1.1 1.1 0 01-.517 1.211l-4.017 2.319a.989.989 0 01-.123.075.47.47 0 00-.178.259.462.462 0 00.017.305 1.075 1.075 0 01.076.138l2.86 4.951a.445.445 0 00.281.211.46.46 0 00.355-.042l4.052-2.338a1.094 1.094 0 011.365.124 15.2 15.2 0 002.936 2.212zm-12.829-18.4l14.794 21.693v3.937a2.651 2.651 0 00.711 1.8c.022.027.046.052.071.077a2.65 2.65 0 001.881.781h5.819a2.648 2.648 0 001.88-.781 2.646 2.646 0 00.78-1.874v-3.937a17.455 17.455 0 003.065-1.393 17.271 17.271 0 002.747-1.969l3.412 1.97a2.652 2.652 0 003.627-.975l2.91-5.041a2.66 2.66 0 00-.97-3.629l-3.41-1.97c.08-.417.148-.838.2-1.259a17.351 17.351 0 000-4.2 20.418 20.418 0 00-.2-1.261l3.409-1.967a2.655 2.655 0 00.975-3.629l-2.91-5.041a2.652 2.652 0 00-3.554-1.016c-.025.013-.054.025-.079.041l-3.412 1.97a17.212 17.212 0 00-2.747-1.969 17.455 17.455 0 00-3.065-1.393v-3.937a2.665 2.665 0 00-2.66-2.66h-5.819a2.645 2.645 0 00-1.8.711c-.025.022-.052.044-.077.071a2.65 2.65 0 00-.781 1.879v3.937a17.279 17.279 0 00-5.811 3.363l-3.417-1.972a2.651 2.651 0 00-3.626.975l-2.917 5.052a2.656 2.656 0 00.977 3.616zm0 0zm20.364 14.733a9.4 9.4 0 10-6.648-2.753 9.38 9.38 0 006.648 2.753zm-5.094-4.308a7.21 7.21 0 10-2.109-5.1 7.182 7.182 0 002.109 5.1zm44.4 29.744a20.048 20.048 0 1014.175 5.871 19.99 19.99 0 00-14.175-5.871zm-15.343 4.7a21.694 21.694 0 1015.343-6.355 21.624 21.624 0 00-15.343 6.355zm-.453 42.738a31.446 31.446 0 007.01 2.984 1.1 1.1 0 01.846 1.069v9.588a2.064 2.064 0 002.057 2.057h11.757a2.067 2.067 0 002.057-2.057v-9.588a1.1 1.1 0 01.8-1.057 31.4 31.4 0 007.055-3 31.78 31.78 0 006.129-4.615 1.1 1.1 0 011.335-.182l8.313 4.8a2.072 2.072 0 002.813-.756l5.846-10.129.033-.06a2.074 2.074 0 00-.751-2.815l-8.245-4.76a1.1 1.1 0 01-.58-1.247 31.646 31.646 0 00.7-3.778 32.243 32.243 0 000-7.708 31.554 31.554 0 00-.7-3.78 1.1 1.1 0 01.517-1.209l8.305-4.8a2.073 2.073 0 00.751-2.813l-5.851-10.132-.034-.058a2.077 2.077 0 00-2.815-.756l-8.256 4.766a1.1 1.1 0 01-1.365-.124 31.684 31.684 0 00-6.151-4.635 31.313 31.313 0 00-7.011-2.986 1.1 1.1 0 01-.844-1.069v-9.59a2.067 2.067 0 00-2.057-2.057h-11.76a2.064 2.064 0 00-2.057 2.057v9.588a1.1 1.1 0 01-.8 1.058 31.268 31.268 0 00-7.055 3 31.652 31.652 0 00-6.153 4.635 1.1 1.1 0 01-1.3.16l-8.255-4.766-.063-.033a2.073 2.073 0 00-2.813.755l-5.888 10.195a2.077 2.077 0 00.755 2.818l8.242 4.758a1.1 1.1 0 01.579 1.247 31.878 31.878 0 000 15.266 1.1 1.1 0 01-.517 1.212l-8.244 4.759-.058.035a2.077 2.077 0 00-.755 2.818l5.848 10.129.035.057a2.076 2.076 0 002.769.783l.044-.028 8.313-4.8a1.1 1.1 0 011.31.159 31.791 31.791 0 006.153 4.638zm15.8-9.506a17.89 17.89 0 10-12.65-5.241 17.836 17.836 0 0012.65 5.241zm-11.095-6.8a15.691 15.691 0 10-4.594-11.093 15.644 15.644 0 004.582 11.102z" fill="#d1d4eb"/><g data-name="Group 2277"><path data-name="Path 16" d="M17.516 119.848h28.268a3.472 3.472 0 01.407.024c2.311-.621 2.4-2.8 2.533-5.989a42.6 42.6 0 01.453-5.252c.788-4.833 5.929-13.475 8.428-17.463l.036-.057c.717-1.14 1.208-1.887 1.3-2.033a31.666 31.666 0 10-54.592 0c.1.146.588.893 1.3 2.033l.038.057c2.5 3.987 7.638 12.629 8.425 17.463a42.609 42.609 0 01.454 5.252c.131 3.189.222 5.368 2.535 5.989a3.466 3.466 0 01.415-.024z" fill="#ffd893"/><path data-name="Path 17" d="M27.474 120.287a.693.693 0 01-1.385 0V99.541c0-.266-.006-.524-.016-.774a18.338 18.338 0 01-1.31-.358 11.213 11.213 0 01-3.951-2.057 3.939 3.939 0 01-1.563-2.9 2.806 2.806 0 01.134-.854 2.689 2.689 0 011.761-1.763 3.369 3.369 0 011.937-.035 4.511 4.511 0 011.936 1.132 9 9 0 012.36 5.7 25.389 25.389 0 008.558 0 9.012 9.012 0 012.359-5.7 4.515 4.515 0 011.937-1.132 3.369 3.369 0 011.937.035 2.689 2.689 0 011.761 1.763 2.8 2.8 0 01.132.854 3.933 3.933 0 01-1.563 2.9 11.2 11.2 0 01-3.95 2.057c-.415.131-.852.252-1.31.358-.01.25-.016.508-.016.774v20.746a.693.693 0 01-1.385 0V99.541c0-.168 0-.333.006-.5a26.848 26.848 0 01-8.376 0c0 .164.006.329.006.5v20.746zm11.777-27.362a7.316 7.316 0 00-1.884 4.385c.263-.069.519-.143.764-.222a9.838 9.838 0 003.464-1.78 2.625 2.625 0 001.08-1.86 1.454 1.454 0 00-.066-.439 1.332 1.332 0 00-.874-.868 1.985 1.985 0 00-1.148-.008 3.137 3.137 0 00-1.337.791zm-13.312 4.381a7.325 7.325 0 00-1.884-4.385 3.141 3.141 0 00-1.338-.791 1.98 1.98 0 00-1.146.008 1.332 1.332 0 00-.874.868 1.509 1.509 0 00-.068.439 2.625 2.625 0 001.08 1.86 9.846 9.846 0 003.465 1.78q.371.121.765.221z" fill="#fff"/><path data-name="Path 18" d="M38.274 136.789c0 3.038-2.965 5.5-6.624 5.5s-6.623-2.462-6.623-5.5 3.488-3.222 3.488-3.222z" fill="#355598"/><path data-name="Path 19" d="M17.607 119.594h28.085a3.444 3.444 0 01.772 6.8 3.443 3.443 0 01-2.689 5.588h-.45a3.443 3.443 0 01-2.755 5.5H22.725a3.438 3.438 0 01-2.756-5.5h-.444a3.439 3.439 0 01-2.689-5.588 3.444 3.444 0 01.77-6.8z" fill="#355598"/></g><path data-name="Path 10980" d="M126.71 13.027a33.88 33.88 0 00-12.725 7.36L106.382 16l-.072-.039a4.255 4.255 0 00-5.739 1.594l-.033.061-5.856 10.13a4.256 4.256 0 001.555 5.808l.061.031 7.539 4.354q-.359 1.6-.558 3.242a33.933 33.933 0 000 8.223q.2 1.642.558 3.242l-7.6 4.388a4.256 4.256 0 00-1.555 5.808l5.832 10.1a1.02 1.02 0 00.094.167 4.263 4.263 0 005.686 1.528 1.234 1.234 0 00.17-.1l7.516-4.34a33.925 33.925 0 005.97 4.388 33.544 33.544 0 006.756 2.973v8.772a4.268 4.268 0 004.258 4.256h11.768a4.265 4.265 0 004.256-4.256v-8.772a33.508 33.508 0 006.756-2.973 33.935 33.935 0 005.972-4.388l7.517 4.341a1.042 1.042 0 00.19.108 4.259 4.259 0 005.662-1.536 1.031 1.031 0 00.094-.167l5.83-10.1a4.256 4.256 0 00-1.558-5.813l-7.6-4.385c.238-1.066.425-2.149.558-3.244a34.157 34.157 0 000-8.225q-.2-1.639-.558-3.241l7.6-4.385a4.256 4.256 0 001.558-5.811l-.033-.058-5.851-10.132a4.253 4.253 0 00-5.807-1.555l-7.6 4.39a33.817 33.817 0 00-12.727-7.36V4.256A4.265 4.265 0 00142.732 0h-11.765a4.268 4.268 0 00-4.258 4.256v8.771zM91.982 83.819a17.254 17.254 0 00-5.81 3.362l-3.417-1.972a2.653 2.653 0 00-3.629.976l-2.912 5.044a2.656 2.656 0 00.975 3.623l.061.035 3.351 1.934q-.125.625-.2 1.261a17.354 17.354 0 000 4.2q.078.634.2 1.263l-3.409 1.967 14.79-21.693zm-1.964 3.291a14.911 14.911 0 013.318-1.415 1.1 1.1 0 00.844-1.071v-4.742a.468.468 0 01.109-.3l.028-.028a.466.466 0 01.326-.137h5.819a.46.46 0 01.325.137.463.463 0 01.135.327v4.742a1.1 1.1 0 00.8 1.057 14.973 14.973 0 016.277 3.62 1.1 1.1 0 001.335.181l4.112-2.374a.482.482 0 01.635.171l2.91 5.039a.467.467 0 01.041.355.454.454 0 01-.212.281l-4.046 2.335a1.1 1.1 0 00-.58 1.245 15.008 15.008 0 01.332 1.8 15.244 15.244 0 010 3.684 14.924 14.924 0 01-.332 1.8 1.1 1.1 0 00.517 1.211l4.109 2.373a.451.451 0 01.209.281.467.467 0 01-.041.355l-2.91 5.041a.469.469 0 01-.283.211.478.478 0 01-.321-.027l-4.142-2.39a1.094 1.094 0 00-1.31.159 15.2 15.2 0 01-2.936 2.212 14.967 14.967 0 01-3.319 1.415 1.1 1.1 0 00-.846 1.071v4.742a.459.459 0 01-.137.326.454.454 0 01-.325.137H94.64a.468.468 0 01-.3-.105l-.03-.031a.459.459 0 01-.137-.326v-4.742a1.1 1.1 0 00-.8-1.057 14.95 14.95 0 01-3.363-1.429 15.155 15.155 0 01-2.937-2.212 1.094 1.094 0 00-1.305-.159l-4.113 2.373a.476.476 0 01-.637-.167l-2.91-5.039a.474.474 0 01.173-.638l4.044-2.337a1.1 1.1 0 00.58-1.247 15.24 15.24 0 01-.33-1.8 15.454 15.454 0 010-3.682 15.3 15.3 0 01.33-1.8 1.091 1.091 0 00-.519-1.211l-4.016-2.319a.977.977 0 00-.123-.074.478.478 0 01-.179-.261.488.488 0 01.019-.307 1.261 1.261 0 00.075-.137l2.859-4.951a.458.458 0 01.283-.211.463.463 0 01.354.041l4.054 2.341a1.1 1.1 0 001.366-.124 15.105 15.105 0 012.936-2.214zm-12.83 18.4l14.794-21.691v-3.937a2.646 2.646 0 01.711-1.8c.022-.025.044-.052.069-.079a2.665 2.665 0 011.881-.78h5.819a2.666 2.666 0 011.882.78 2.658 2.658 0 01.781 1.877v3.937a17.148 17.148 0 013.063 1.392 17.462 17.462 0 012.745 1.969l3.414-1.97a2.653 2.653 0 013.629.976l2.909 5.039a2.653 2.653 0 01-.97 3.627l-3.41 1.97q.125.625.2 1.261a17.363 17.363 0 010 4.2c-.05.421-.118.843-.2 1.261l3.407 1.967a2.65 2.65 0 01.975 3.627l-2.909 5.041a2.654 2.654 0 01-3.552 1.017.787.787 0 01-.08-.042l-3.414-1.97a17.366 17.366 0 01-5.808 3.362v3.936a2.665 2.665 0 01-2.664 2.66h-5.819a2.636 2.636 0 01-1.8-.709c-.027-.022-.052-.046-.079-.071a2.652 2.652 0 01-.78-1.881v-3.936a17.32 17.32 0 01-5.81-3.363l-3.417 1.972a2.655 2.655 0 01-3.629-.975l-2.915-5.052a2.657 2.657 0 01.976-3.616zm0 0zm20.364-14.736a9.405 9.405 0 11-6.649 2.755 9.38 9.38 0 016.649-2.755zm-5.093 4.311a7.2 7.2 0 11-2.11 5.094 7.174 7.174 0 012.11-5.094zm44.392-29.744a20.048 20.048 0 1114.176-5.873 19.985 19.985 0 01-14.176 5.873zm-15.343-4.7a21.706 21.706 0 1115.343 6.352 21.639 21.639 0 01-15.343-6.352zm-.454-42.741a31.447 31.447 0 017.011-2.986 1.1 1.1 0 00.844-1.069V4.256a2.067 2.067 0 012.058-2.058h11.765a2.067 2.067 0 012.058 2.058v9.588a1.1 1.1 0 00.8 1.057 31.572 31.572 0 0113.183 7.612 1.1 1.1 0 001.335.182l8.313-4.8a2.074 2.074 0 012.813.758l5.848 10.127.033.061a2.076 2.076 0 01-.752 2.813l-8.244 4.76a1.1 1.1 0 00-.58 1.247 31.884 31.884 0 010 15.266 1.1 1.1 0 00.519 1.212l8.3 4.793a2.079 2.079 0 01.752 2.814l-5.849 10.134-.036.057a2.074 2.074 0 01-2.814.755l-8.255-4.766a1.1 1.1 0 00-1.365.126 31.539 31.539 0 01-13.162 7.621 1.1 1.1 0 00-.844 1.071v9.588a2.067 2.067 0 01-2.058 2.057h-11.76a2.067 2.067 0 01-2.058-2.057v-9.588a1.1 1.1 0 00-.8-1.057 31.409 31.409 0 01-7.057-3 31.809 31.809 0 01-6.149-4.637 1.1 1.1 0 00-1.305-.16l-8.255 4.766-.061.033a2.073 2.073 0 01-2.813-.755l-5.887-10.183a2.08 2.08 0 01.755-2.819l8.241-4.759a1.1 1.1 0 00.58-1.245 31.808 31.808 0 010-15.266 1.089 1.089 0 00-.517-1.209l-8.244-4.761-.057-.035a2.077 2.077 0 01-.755-2.818l5.846-10.129.036-.057a2.077 2.077 0 012.769-.783l.044.028 8.311 4.8a1.1 1.1 0 001.311-.159 31.705 31.705 0 016.151-4.637zm15.8 9.506a17.887 17.887 0 11-12.65 5.239 17.828 17.828 0 0112.65-5.239zM125.755 34.2a15.691 15.691 0 11-4.594 11.094 15.641 15.641 0 014.594-11.094z" fill="#d1d4eb"/><path data-name="Path 10985" d="M19.282 409.032a.872.872 0 11.063-1.742c.736.027 1.289-.623 1.859-1.293.865-1.014 1.753-2.06 3.473-2.06s2.609 1.046 3.472 2.06c.568.668 1.12 1.316 1.855 1.293h.072c.734.024 1.288-.624 1.854-1.293.865-1.014 1.756-2.06 3.472-2.06s2.612 1.046 3.473 2.06c.569.668 1.121 1.316 1.855 1.293h.074c.734.024 1.285-.624 1.855-1.293.862-1.014 1.752-2.06 3.472-2.06s2.607 1.046 3.472 2.06c.568.668 1.12 1.316 1.854 1.293h.072c.736.024 1.289-.624 1.855-1.293.865-1.014 1.753-2.06 3.473-2.06s2.609 1.046 3.472 2.06c.568.668 1.12 1.316 1.855 1.293h.072c.734.024 1.286-.624 1.854-1.293.865-1.014 1.753-2.06 3.473-2.06s2.609 1.046 3.472 2.06c.569.668 1.12 1.316 1.855 1.293h.072c.736.024 1.286-.624 1.854-1.293.863-1.014 1.755-2.06 3.472-2.06s2.61 1.046 3.473 2.06c.569.668 1.12 1.316 1.855 1.293h.072c.736.024 1.286-.624 1.855-1.293.865-1.014 1.753-2.06 3.473-2.06s2.608 1.046 3.472 2.06c.568.668 1.12 1.316 1.854 1.293h.072c.736.024 1.288-.624 1.855-1.293.865-1.014 1.753-2.06 3.472-2.06s2.61 1.046 3.473 2.06c.568.668 1.121 1.316 1.855 1.293h.074c.733.024 1.285-.624 1.852-1.293.865-1.014 1.753-2.06 3.473-2.06s2.609 1.046 3.472 2.06c.569.668 1.12 1.316 1.855 1.293h.074c.734.024 1.286-.624 1.854-1.293.863-1.014 1.755-2.06 3.473-2.06s2.609 1.046 3.472 2.06c.568.668 1.118 1.316 1.854 1.293h.072c.736.024 1.288-.624 1.855-1.293.865-1.014 1.755-2.06 3.473-2.06s2.608 1.046 3.472 2.06c.568.668 1.121 1.316 1.854 1.293h.072c.736.024 1.289-.624 1.857-1.293.863-1.014 1.752-2.06 3.472-2.06s2.609 1.046 3.472 2.06c.568.668 1.121 1.316 1.855 1.293h.074c.733.024 1.285-.624 1.854-1.293.863-1.014 1.755-2.06 3.472-2.06s2.608 1.046 3.472 2.06c.569.668 1.12 1.316 1.855 1.293h.074c.734.024 1.286-.624 1.854-1.293.863-1.014 1.755-2.06 3.473-2.06s2.609 1.046 3.472 2.06c.568.668 1.12 1.316 1.854 1.293h.074c.734.024 1.288-.624 1.855-1.293.863-1.014 1.753-2.06 3.472-2.06s2.609 1.046 3.472 2.06c.569.67 1.123 1.319 1.86 1.293a.872.872 0 01.063 1.742c-1.576.057-2.4-.912-3.249-1.906-.6-.709-1.223-1.44-2.146-1.44s-1.545.731-2.146 1.44c-.844.989-1.662 1.948-3.217 1.907-1.558.041-2.374-.918-3.217-1.907-.6-.709-1.225-1.44-2.146-1.44s-1.544.731-2.149 1.44c-.841.989-1.659 1.948-3.215 1.907-1.557.041-2.373-.918-3.216-1.907-.6-.709-1.225-1.44-2.148-1.44s-1.542.731-2.146 1.44c-.843.989-1.662 1.948-3.217 1.907-1.555.041-2.374-.918-3.217-1.907-.6-.709-1.225-1.44-2.146-1.44s-1.544.731-2.146 1.44c-.843.989-1.662 1.948-3.217 1.907-1.557.041-2.376-.918-3.217-1.907-.6-.709-1.223-1.44-2.146-1.44s-1.546.731-2.148 1.44c-.843.989-1.661 1.948-3.216 1.907-1.558.041-2.374-.918-3.217-1.907-.6-.709-1.225-1.44-2.146-1.44s-1.546.731-2.149 1.44c-.841.989-1.659 1.948-3.215 1.907-1.555.041-2.373-.918-3.217-1.907-.6-.709-1.225-1.44-2.146-1.44s-1.544.731-2.146 1.44c-.843.989-1.662 1.948-3.217 1.907-1.557.041-2.376-.918-3.217-1.907-.6-.709-1.223-1.44-2.148-1.44s-1.542.731-2.146 1.44c-.841.989-1.66 1.948-3.216 1.907-1.557.041-2.376-.918-3.217-1.907-.6-.709-1.225-1.44-2.146-1.44s-1.546.731-2.148 1.44c-.843.989-1.66 1.948-3.215 1.907-1.558.041-2.376-.918-3.217-1.907-.6-.709-1.227-1.44-2.149-1.44s-1.542.731-2.146 1.44c-.841.989-1.659 1.948-3.215 1.907-1.557.041-2.374-.918-3.217-1.907-.6-.709-1.223-1.44-2.146-1.44s-1.544.731-2.148 1.44c-.841.989-1.66 1.948-3.215 1.907-1.557.041-2.374-.918-3.217-1.907-.6-.709-1.225-1.44-2.146-1.44s-1.546.731-2.148 1.44c-.841.989-1.66 1.948-3.217 1.907-1.555.041-2.374-.918-3.215-1.907-.6-.709-1.225-1.44-2.146-1.44s-1.546.731-2.148 1.44c-.843.989-1.66 1.948-3.215 1.907-1.558.041-2.374-.918-3.217-1.907-.6-.709-1.226-1.44-2.149-1.44s-1.543.731-2.146 1.44c-.841.989-1.659 1.948-3.215 1.907-1.557.041-2.374-.918-3.217-1.907-.6-.709-1.225-1.44-2.146-1.44s-1.544.731-2.148 1.44c-.85.994-1.673 1.963-3.25 1.906z" fill="#e88397"/><path data-name="Path 10982" d="M207.862 151.433a.871.871 0 11.063 1.741c-1.577.057-2.4-.91-3.249-1.907-.6-.708-1.225-1.439-2.148-1.439s-1.542.731-2.146 1.439c-.843.991-1.66 1.951-3.217 1.909-1.555.042-2.374-.918-3.215-1.909-.6-.708-1.225-1.439-2.148-1.439s-1.544.731-2.146 1.439c-.844.991-1.66 1.951-3.217 1.909-1.557.042-2.374-.918-3.216-1.909-.6-.708-1.226-1.439-2.148-1.439s-1.544.731-2.148 1.439c-.841.991-1.659 1.951-3.217 1.909-1.555.042-2.373-.918-3.214-1.909-.6-.708-1.226-1.439-2.149-1.439s-1.542.731-2.146 1.439c-.843.991-1.66 1.951-3.217 1.909-1.555.042-2.374-.918-3.217-1.909-.6-.708-1.223-1.439-2.146-1.439s-1.542.731-2.146 1.439c-.847 1-1.671 1.964-3.249 1.907a.871.871 0 01.061-1.741c.739.025 1.292-.624 1.862-1.294.863-1.013 1.753-2.058 3.472-2.058s2.609 1.046 3.472 2.058c.568.668 1.121 1.316 1.857 1.294h.072c.734.022 1.286-.626 1.854-1.294.865-1.013 1.755-2.058 3.472-2.058s2.608 1.046 3.473 2.058c.569.668 1.119 1.316 1.855 1.294h.072c.736.022 1.286-.626 1.855-1.294.862-1.013 1.753-2.058 3.472-2.058s2.609 1.046 3.473 2.058c.566.668 1.118 1.316 1.854 1.294h.072c.736.022 1.288-.626 1.855-1.294.863-1.013 1.753-2.058 3.472-2.058s2.609 1.046 3.473 2.058c.568.668 1.119 1.316 1.855 1.294h.071c.736.022 1.288-.626 1.855-1.294.863-1.013 1.753-2.058 3.472-2.058s2.609 1.046 3.473 2.058c.571.67 1.125 1.321 1.862 1.294z" fill="#e88397"/><path data-name="Path 10984" d="M66.33 322.254a4.884 4.884 0 013.464 1.436 4.9 4.9 0 010 6.934l-.052.049a4.9 4.9 0 11-3.415-8.418zm2.233 2.67a3.154 3.154 0 10-.039 4.5l.038-.041a3.158 3.158 0 000-4.462z" fill="#e88397"/><path data-name="Path 10981" d="M93.178 254.721h-1.187a.59.59 0 100 1.181h2.36a.592.592 0 00.42-1.006.585.585 0 00-.42-.175zm143.683 99.876a.59.59 0 100-1.181h-1.181a.59.59 0 000 1.181zm-114.988-47.048a.591.591 0 00-1-.42.583.583 0 00-.176.42v1.181a.591.591 0 001 .42.583.583 0 00.176-.42v-1.181zm0 4.723a.59.59 0 10-1.181 0v1.181a.591.591 0 001 .418.579.579 0 00.176-.418v-1.181zm0 4.72a.59.59 0 00-1.181 0v1.181a.591.591 0 001 .421.584.584 0 00.176-.421v-1.176zm0 4.723a.59.59 0 00-1.181 0v1.182a.591.591 0 001 .42.577.577 0 00.176-.42v-1.181zm0 4.722a.59.59 0 00-1.181 0v1.181a.591.591 0 001 .421.581.581 0 00.176-.421v-1.181zm0 4.723a.59.59 0 00-1-.418.583.583 0 00-.176.418v1.181a.591.591 0 001 .42.577.577 0 00.176-.42v-1.181zm0 4.723a.59.59 0 00-1.181 0v1.179a.591.591 0 001 .421.584.584 0 00.176-.421v-1.179zm0 4.722a.59.59 0 00-1.181 0v1.181a.59.59 0 101.181 0v-1.181zm.36 4.539a.59.59 0 00-1.146.025.608.608 0 000 .277 11.918 11.918 0 00.379 1.184.59.59 0 001.14-.236.578.578 0 00-.036-.186 9.75 9.75 0 01-.341-1.064zm1.98 3.987a.59.59 0 10-.928.73q.382.488.811.937a.59.59 0 10.849-.819c-.258-.271-.5-.555-.733-.848zm3.385 2.9a.591.591 0 00-.81.786.584.584 0 00.239.247c.362.2.733.382 1.113.547a.591.591 0 00.679-.928.605.605 0 00-.217-.16 10.613 10.613 0 01-1-.492zm4.245 1.332a.59.59 0 10-.113 1.174c.413.041.822.061 1.236.061a.592.592 0 00.42-1.006.582.582 0 00-.42-.174c-.376 0-.747-.019-1.123-.055zm4.664.055a.59.59 0 000 1.181h1.184a.592.592 0 00.421-1.006.586.586 0 00-.421-.174zm4.723 0a.59.59 0 000 1.181h1.181a.592.592 0 00.42-1.006.585.585 0 00-.42-.174zm4.723 0a.591.591 0 00-.421 1 .6.6 0 00.421.176h1.179a.59.59 0 100-1.181zm4.722 0a.59.59 0 000 1.181h1.181a.59.59 0 100-1.181zm4.723 0a.59.59 0 100 1.181h1.179a.591.591 0 00.42-1.006.585.585 0 00-.42-.174zm4.722 0a.59.59 0 000 1.181h1.181a.59.59 0 100-1.181zm4.723 0a.59.59 0 100 1.181h1.181a.591.591 0 00.418-1.006.584.584 0 00-.418-.174zm4.722 0a.59.59 0 000 1.181h1.181a.59.59 0 100-1.181zm4.723 0a.59.59 0 000 1.181h1.179a.592.592 0 00.42-1.006.582.582 0 00-.42-.174zm4.72 0a.59.59 0 000 1.181h1.183a.592.592 0 00.421-1.006.586.586 0 00-.421-.174zm4.723 0a.59.59 0 000 1.181h1.181a.592.592 0 00.42-1.006.582.582 0 00-.42-.174zm4.723 0a.59.59 0 000 1.181h1.181a.592.592 0 00.42-1.006.585.585 0 00-.42-.174zm4.722 0a.59.59 0 000 1.181h1.181a.59.59 0 100-1.181zm4.723 0a.59.59 0 000 1.181h1.181a.59.59 0 100-1.181zm4.722 0a.591.591 0 00-.42 1 .6.6 0 00.42.176h1.181a.59.59 0 100-1.181zm4.723 0a.591.591 0 00-.421 1 .6.6 0 00.421.176h1.181a.59.59 0 100-1.181zm4.723 0a.59.59 0 100 1.181h1.179a.59.59 0 100-1.181zm4.722 0a.59.59 0 000 1.181h1.181a.591.591 0 00.418-1.006.582.582 0 00-.418-.174zm4.722 0a.59.59 0 000 1.181h1.18a.591.591 0 00.418-1.006.584.584 0 00-.418-.174zm4.723 0a.59.59 0 100 1.181h1.181a.591.591 0 00.418-1.006.581.581 0 00-.418-.174zm4.723 0a.59.59 0 100 1.181h1.179a.592.592 0 00.42-1.006.585.585 0 00-.42-.174zM120.691 304.23a.591.591 0 001 .421.584.584 0 00.176-.421v-1.181a.59.59 0 00-1.181 0v1.181zm0-4.722a.591.591 0 001 .42.577.577 0 00.176-.42v-1.181a.59.59 0 00-1.181 0v1.181zm0-4.723a.591.591 0 001 .421.583.583 0 00.176-.421v-1.181a.59.59 0 00-1-.418.582.582 0 00-.176.418v1.181zm0-4.72a.591.591 0 001 .418.579.579 0 00.176-.418v-1.181a.59.59 0 10-1.181 0v1.181zm0-4.723a.59.59 0 001 .418.576.576 0 00.176-.418v-1.181a.591.591 0 00-1-.42.583.583 0 00-.176.42v1.181zm0-4.723a.59.59 0 001 .42.58.58 0 00.176-.42v-1.179a.59.59 0 10-1.181 0v1.179zm0-4.722a.59.59 0 001 .418.576.576 0 00.176-.418v-1.181a.59.59 0 10-1.181 0v1.181zm0-4.723a.59.59 0 001 .42.58.58 0 00.176-.42v-1.177a.59.59 0 10-1.181 0v1.179zm-.011-4.69a.59.59 0 101.179-.063 12.45 12.45 0 00-.118-1.233.591.591 0 00-1.168.178c.041.382.088.728.107 1.118zm1.179-.063l-1.286-1.053 1.286 1.053zm-2.275-4.255a.59.59 0 001.12-.266.56.56 0 00-.06-.253 11.04 11.04 0 00-.6-1.086.59.59 0 10-1 .626c.2.322.374.642.539.98zm-2.711-3.536a.59.59 0 10.774-.892 11.486 11.486 0 00-.975-.766.59.59 0 00-.833.8.6.6 0 00.154.162 11.078 11.078 0 01.881.692zm-3.874-2.2a.591.591 0 00.577-1 .585.585 0 00-.217-.124 12.31 12.31 0 00-1.2-.321.592.592 0 00-.467 1.058.581.581 0 00.222.1c.368.082.722.176 1.082.291zm-4.484-.531a.59.59 0 100-1.181h-1.181a.59.59 0 00-.418 1 .583.583 0 00.418.176zm-4.72 0a.592.592 0 00.418-1.006.584.584 0 00-.418-.175h-1.181a.59.59 0 100 1.181zm-4.723 0a.591.591 0 00.418-1.006.581.581 0 00-.418-.175h-1.181a.591.591 0 00-.42 1 .584.584 0 00.42.176zm-64.04-103.672a.59.59 0 00-1.181 0v.212a.592.592 0 001.006.421.586.586 0 00.175-.421v-.212zm0 3.755a.59.59 0 00-1.181 0v1.181a.59.59 0 101.181 0v-1.181zm0 4.723a.59.59 0 00-1.181 0v1.181a.59.59 0 101.181 0v-1.181zm0 4.722a.59.59 0 00-1.181 0v1.181a.59.59 0 101.181 0v-1.181zm0 4.723a.59.59 0 10-1.181 0v1.181a.591.591 0 001.006.418.584.584 0 00.175-.418v-1.181zm0 4.723a.591.591 0 00-1-.421.584.584 0 00-.176.421v1.179a.591.591 0 001.006.42.585.585 0 00.175-.42v-1.179zm0 4.722a.591.591 0 00-1-.42.584.584 0 00-.176.42v1.181a.591.591 0 001.006.418.581.581 0 00.175-.418v-1.179zm0 4.723a.59.59 0 10-1.181 0v1.179a.591.591 0 001.006.418.584.584 0 00.175-.418v-1.181zm0 4.72a.591.591 0 00-1-.418.583.583 0 00-.176.418v1.182a.59.59 0 101.181 0v-1.182zm0 4.723a.59.59 0 00-1.181 0v1.181a.592.592 0 001.006.42.584.584 0 00.175-.42v-1.181zm0 4.722a.59.59 0 00-1-.418.583.583 0 00-.176.418v1.181a.59.59 0 101.181 0v-1.181zm0 4.723a.59.59 0 00-1.181 0v1.181a.592.592 0 001.006.42.585.585 0 00.175-.42v-1.181zm0 4.722a.59.59 0 00-1.181 0v1.181a.59.59 0 101.181 0v-1.181zm0 4.723a.59.59 0 10-1.181 0v1.181a.592.592 0 001.006.42.582.582 0 00.175-.42v-1.181zm0 4.722a.59.59 0 00-1.181 0v1.181a.59.59 0 101.181 0v-1.181zm0 4.723a.59.59 0 10-1.181 0v1.181a.59.59 0 101.181 0v-1.18zm0 4.722a.59.59 0 00-1.181 0v1.179a.591.591 0 001.006.42.585.585 0 00.175-.42v-1.181zm.008 4.708a.591.591 0 00-1.181.031c.009.4.03.808.06 1.208a.59.59 0 001.164.085.6.6 0 00.013-.175 23.245 23.245 0 01-.055-1.149zm.557 4.565a.583.583 0 00-.33-.406.591.591 0 00-.821.667q.132.59.294 1.175a.59.59 0 001.157-.132.526.526 0 00-.022-.186q-.151-.554-.278-1.118zm1.436 4.371a.59.59 0 10-1.077.48c.162.37.332.736.513 1.1a.591.591 0 001.11-.359.528.528 0 00-.057-.174 28.126 28.126 0 01-.489-1.042zm2.253 4.009a.591.591 0 00-.965.681c.231.33.469.656.715.975a.591.591 0 00.932-.726 19.99 19.99 0 01-.682-.929zm2.981 3.509a.59.59 0 00-.821.849c.291.281.583.553.888.821a.582.582 0 00.563.119.59.59 0 00.215-1.006q-.434-.382-.846-.783zm3.593 2.877a.59.59 0 10-.645.989c.338.222.679.432 1.027.637a.592.592 0 00.72-.925.653.653 0 00-.123-.094c-.332-.2-.659-.4-.98-.607zm4.076 2.134a.591.591 0 00-.612.991.558.558 0 00.17.105c.374.149.75.292 1.132.426a.59.59 0 00.519-1.049.606.606 0 00-.132-.066 24.048 24.048 0 01-1.077-.407zm4.407 1.3a.591.591 0 00-.407 1.09.6.6 0 00.193.072c.4.075.791.142 1.189.2a.591.591 0 00.322-1.124.572.572 0 00-.157-.044c-.382-.057-.759-.12-1.14-.192zm4.588.424a.59.59 0 000 1.181h1.181a.592.592 0 00.42-1.006.584.584 0 00-.42-.175zm4.722 0a.59.59 0 000 1.181h1.181a.592.592 0 00.421-1.006.585.585 0 00-.421-.175zm4.723 0a.59.59 0 000 1.181h1.181a.592.592 0 00.42-1.006.585.585 0 00-.42-.175zm4.723 0a.59.59 0 100 1.181h1.179a.59.59 0 100-1.181zm4.722 0a.59.59 0 000 1.181h1.181a.59.59 0 100-1.181zm4.722 0a.59.59 0 000 1.181h1.182a.591.591 0 00.418-1.006.584.584 0 00-.418-.175zm4.723 0a.591.591 0 00-.42 1 .584.584 0 00.42.176h1.181a.591.591 0 00.418-1.006.581.581 0 00-.418-.175z" fill="#ea6667"/></g></svg>