<svg xmlns="http://www.w3.org/2000/svg" width="1483.47" height="572.973" viewBox="0 0 1483.47 572.973"><defs><linearGradient id="a" x1=".5" x2=".5" y2="1" gradientUnits="objectBoundingBox"><stop offset="0" stop-color="#3f60a2"/><stop offset="1" stop-color="#203051"/></linearGradient><linearGradient id="b" x1=".5" x2=".5" y2="1" gradientUnits="objectBoundingBox"><stop offset="0" stop-color="#ff7171"/><stop offset=".739" stop-color="#c34747"/><stop offset="1" stop-color="#912525"/></linearGradient><linearGradient id="c" x1=".5" x2=".5" y2="1" gradientUnits="objectBoundingBox"><stop offset="0" stop-color="#214286"/><stop offset="1" stop-color="#112143"/></linearGradient><linearGradient id="d" x1=".5" x2=".5" y2="1" gradientUnits="objectBoundingBox"><stop offset="0" stop-color="#b81e57"/><stop offset=".739" stop-color="#871640"/><stop offset="1" stop-color="#5c0f2c"/></linearGradient></defs><g data-name="Group 3133"><g data-name="Group 2296"><path data-name="Path 11013" d="M194.384 463.405h809.914a12.279 12.279 0 0112.243 12.241 12.28 12.28 0 01-12.243 12.243h-45.426a14.362 14.362 0 00-14.319 14.317 14.368 14.368 0 0013.04 14.26h24.715c4.24 0 7.705 4.516 7.705 10.036 0 5.519-3.465 10.033-7.705 10.033H384.597a5.883 5.883 0 01-.836-.057 16.4 16.4 0 01-1.389.057h-136.1a16.482 16.482 0 01-16.433-16.432 16.483 16.483 0 0116.435-16.437h18.517a7.163 7.163 0 007.143-7.143 7.164 7.164 0 00-7.143-7.145h-70.407a13.026 13.026 0 01-12.989-12.985 13.025 13.025 0 0112.989-12.985zm838.737 24.484a12.147 12.147 0 0012.109-12.111v-.261a12.147 12.147 0 00-12.109-12.112 12.148 12.148 0 00-12.112 12.112v.261a12.148 12.148 0 0012.112 12.111zm-828.662 15.777a15.905 15.905 0 00-15.853 15.857v1.154a15.905 15.905 0 0015.853 15.858 15.906 15.906 0 0015.86-15.858v-1.154a15.906 15.906 0 00-15.86-15.858z" fill="#e8e9f5" fill-rule="evenodd"/><path data-name="Path 11014" d="M1212.738 572.973H402.827a12.279 12.279 0 01-12.243-12.241 12.28 12.28 0 0112.243-12.243h45.423a14.362 14.362 0 0014.319-14.316 14.368 14.368 0 00-13.04-14.26h-24.715c-4.24 0-7.705-4.516-7.705-10.036 0-5.519 3.465-10.033 7.705-10.033h597.713a5.883 5.883 0 01.836.057 16.4 16.4 0 011.389-.057h136.096a16.482 16.482 0 0116.435 16.429 16.483 16.483 0 01-16.435 16.439h-18.521a7.163 7.163 0 00-7.143 7.143 7.164 7.164 0 007.143 7.146h70.411a13.026 13.026 0 0112.989 12.985 13.025 13.025 0 01-12.989 12.987zm-838.737-24.484a12.147 12.147 0 00-12.109 12.111v.261a12.147 12.147 0 0012.109 12.112 12.148 12.148 0 0012.112-12.112v-.261a12.148 12.148 0 00-12.112-12.111zm828.657-15.777a15.905 15.905 0 0015.858-15.857v-1.154a15.905 15.905 0 00-15.858-15.858 15.906 15.906 0 00-15.86 15.858v1.154a15.906 15.906 0 0015.86 15.858z" fill="#e8e9f5" fill-rule="evenodd"/><path data-name="Path 2" d="M878.326 445.098c25.117-36.984 23.869-100.944 28.866-107.3 6.537-8.322-5.945-6.539-5.945-6.539-38.971 12.152-59.623 72.751-68.418 107.447a974.85 974.85 0 00-101.575-6.4 872.783 872.783 0 00-13.031-.029c27.6-60.975-18.666-160.462-15.465-172.541 3.734-14.094-11.086-5.03-11.086-5.03-20.724 17.787-29.75 47.676-32.66 79.293-14.242-55.978-47.5-153.06-110.088-172.575 0 0-20.107-2.873-9.576 10.533 5.353 6.812 6.262 54.666 18.167 103.485-24.663-24.092-79.018-86.825-80.732-89.395-1.851-2.778-3.7.464-1.851 6.484s-1.853 30.565 8.8 61.592 28.71 40.288 56.5 76.871c19.281 25.388 41.965 79.778 54.045 110.7q-11.809 1.728-23.4 3.707c-4.383-18.411-22.858-81.818-71.337-92.166-56.825-12.133-63.025-8.359-70.283-18.04 0 0-3.056-4.625-3.862 3.343s52.514 59.7 84.254 84.2a245.063 245.063 0 0130.412 28.359c-39.587 7.869 416.625 7 338.265-5.999zm-224.632-66.747l4.6-1.439a462.648 462.648 0 004.831 47.291 167.829 167.829 0 01-4.834-21.69c-1.044-7.022-2.67-15.43-4.597-24.162z" fill="#f3f3fd"/><path data-name="Path 3" d="M816.229 364.473l13.671 6.963c65.418-15.95 74.939-163.108 83.137-173.839s-5.6-9.584-5.6-9.584c-18.019 5.169-33.755 21.836-47.031 42.911a58.791 58.791 0 00-.537-3.042c-6.751-33.118-15.392-152.122-15.189-156.291s-3.868-1.819-6.373 5.865-23.475 31.958-35.337 72.246-1.184 61.633-.624 118.67-15.653 111.687-15.653 111.687 13.736.193 29.536-15.586z" fill="#f3f3fd"/><g data-name="Group 34"><g data-name="Group 13"><path data-name="Rectangle 3" fill="#f0bf69" d="M747.301 443.001h92.129v39.229h-92.129z"/><path data-name="Rectangle 4" fill="#d95c5c" d="M470.983 444.784h120.59v39.229h-120.59z"/><path data-name="Path 7" d="M591.573 432.434h-90.275l-30.315 12.35h120.59z" fill="#a3335d"/><path data-name="Rectangle 5" fill="#d95c5c" d="M839.134 442.709h42.796v35.064h-42.796z"/><path data-name="Rectangle 6" fill="#f2d5a3" d="M747.301 407.338h120.66v35.868h-120.66z"/><path data-name="Rectangle 7" fill="#f2d5a3" d="M747.301 337.589h120.66v37.054h-120.66z"/><path data-name="Path 8" d="M837.645 327.886h-90.344v9.7h120.66z" fill="#f0bf69"/><path data-name="Rectangle 8" fill="#4a4d79" d="M747.301 374.562h107.576v32.776H747.301z"/></g><g data-name="Group 20"><path data-name="Path 9" d="M813.501 319.518a3.622 3.622 0 00-1.673 2.787c-.11 1.894-.891 5.014-.891 6.464s.335 6.8 10.922 6.129 8.024-6.018 8.024-7.243-1.56-5.016-2.229-6.13-1.894-2.452-3.231-2.229-10.922.222-10.922.222z" fill="#fff"/><path data-name="Path 10" d="M751.652 324.757a4.361 4.361 0 00-2.006 1.114c-.892.892-1.225 3.677-.333 4.123a20.349 20.349 0 0013.374 2.452c7.243-1.225 7.02-1.225 9.362-1s7.912.333 9.139-1.114.779-7.022.223-8.024-.335-1.56-1.673-1.56-28.086 4.009-28.086 4.009z" fill="#fff"/><g data-name="Group 14"><path data-name="Path 11" d="M766.62 140.757s-2.971 9.51-2.079 15.751 47.253 8.024 47.253 8.024 3.269-1.485 2.079-8.618-5.349-11.59-9.807-14.859-5.349-8.024-8.916-13.671-12.184-22.289-27.341-16.642z" fill="#333"/></g><path data-name="Path 12" d="M768.254 308.596s1.337 8.47 0 10.03 5.127 2.9 5.127 2.9l3.343-4.012s-.892-7.355-.892-8.693-7.578-.225-7.578-.225z" fill="#f6cccf"/><g data-name="Group 15"><path data-name="Path 13" d="M767.585 315.843s-4.57 2.675-7.8 4.235-5.908 3.008-7.691 3.121-1.337 2.117-1.225 2.675 3.12 2.339 7.689 1.671 5.349-1.114 6.464-2.452 1.673-2.339 2.006-1.114.335 2.341 1.9 2.452 6.464.669 8.247-.669a8.778 8.778 0 002.34-2.34s.558-8.136-3.121-7.578c0 0-.333 2.562-3.789 2.785s-3.343-2.452-3.789-2.785-.675-.338-1.231-.001z" fill="#333"/></g><path data-name="Path 14" d="M814.393 310.715s1.337 6.018 1 7.133 6.576.892 6.576.892-.781-8.136-1.114-9.028-6.462 1.003-6.462 1.003z" fill="#f6cccf"/><g data-name="Group 16"><path data-name="Path 15" d="M817.959 316.733s-3.566-.223-4.347.669-.669 4.9-.556 6.464-1.45 3.454 0 5.014 4.123 2.564 5.46 2.006 1.9-2.117 3.9-1.448 1.783 1.56 3.454 1 3.01-2.562 2.452-5.237-3.008-5.572-3.566-6.91-1.448-2.562-6.797-1.558z" fill="#333"/></g><g data-name="Group 17"><path data-name="Path 16" d="M558.806 229.593s-10.476 25.187-10.922 44.356 6.241 51.265 6.464 53.049 6.687 4.9 14.488 2.006c0 0 4.9-16.717 5.127-26.3s-2.452-19.838-1.115-24.073 4.458-20.283 5.349-19.615 5.8 26.524 7.356 31.428 9.584 37 13.151 39.9 5.8 2.229 5.8 2.229l6.91-2.006s3.12.669 4.458-7.356.223-20.506-2.006-26.97-7.578-21.844-7.8-26.3a313.273 313.273 0 00-4.9-31.874 22.11 22.11 0 00-7.578-11.59l-18.946-.223z" transform="translate(209.894 -19.962)" fill="url(#a)"/></g><path data-name="Path 17" d="M588.151 194.471s-5.8 3.864-8.618 4.9-23.924 5.2-40.567 15.9-19.319 11.59-19.319 12.778-.148 9.214-.148 9.214 17.831 1.485 25.41-.148 28.382-9.214 28.382-9.214-1.189 18.871 1.04 23.775 13.374 8.62 23.181 7.728 18.277-2.824 21.25-8.47 2.079-10.253 1.931-12.334-14.711-43.539-14.711-43.539a16.4 16.4 0 00-9.214-2.229z" transform="translate(187.681 -46.135)" fill="url(#b)"/><g data-name="Group 18"><path data-name="Path 18" d="M808.375 192.469c.148 2.081 1.039 6.687-1.931 12.334s-11.443 7.578-21.25 8.47-20.952-2.825-23.181-7.728-1.04-23.775-1.04-23.775l6.166-13.819a14.072 14.072 0 003.121-2.9c1.114-1.56 3.343-.223 4.9.223s.669 7.355 7.578 8.916 11.813-4.681 12.259-6.91 13.378 25.189 13.378 25.189z" fill="#333" opacity=".17"/></g><path data-name="Path 19" d="M774.049 143.284s1.931 7.726 1.931 9.51c0 0 6.093 1.635 9.957-2.527 0 0-4.608-9.955-4.756-10.847s-7.132 3.864-7.132 3.864z" fill="#f6cccf"/><path data-name="Path 20" d="M575.9 213.1s2.377 4.606-1.337 8.32-12.184 6.539-14.117 8.47-2.675 7.728-1.188 11.888 9.658 7.726 20.208 5.349 20.654-13.819 22.289-18.425-1.931-17.831-8.024-23.627-3.418-10.105-20.506-11.74c0 0-1.337 8.322-1.04 10.7s3.715 9.065 3.715 9.065z" transform="translate(218.204 -45.741)" fill="url(#b)"/><path data-name="Path 21" d="M761.567 129.758a33.471 33.471 0 011.635 6.391c.148 2.229 2.377 5.2 4.9 6.389s4.458 2.081 6.091 1.931 5.647-1.337 6.539-2.229 4.458-5.349 3.418-10.995c0 0 4.271-1.821 3.825-4.643s-1.633-2.862-3.12-2.564a3.534 3.534 0 00-2.191 2.006l-4.9-7.578-7.874-2.527-4.9 1.635z" fill="#f6cccf"/><g data-name="Group 19"><path data-name="Path 22" d="M767.809 110.742s-5.052-1.189-8.024 4.16-4.756 8.768-3.268 11.293 2.823 5.2 5.349 4.458 5.5-5.349 5.8-9.807c0 0 6.091 5.5 10.549 5.8s4.458-.594 5.2-1.04 2.675-4.458 2.675-4.458-6.093-8.768-6.539-8.768-11.742-1.638-11.742-1.638z" fill="#333"/></g></g><g data-name="Group 21"><path data-name="Rectangle 9" fill="#ffd893" d="M586.818 469.96h170.588v47.339H586.818z"/><path data-name="Path 24" d="M739.573 456.997H604.651l-17.833 12.963h170.588z" fill="#deb264"/><path data-name="Rectangle 10" fill="#ffd893" d="M586.818 375.447h170.588v47.339H586.818z"/><path data-name="Path 25" d="M739.573 365.732H604.651l-17.833 9.715h170.588z" fill="#deb264"/><path data-name="Rectangle 11" fill="#ffd893" d="M586.818 289.583h170.588v43.415H586.818z"/><path data-name="Path 26" d="M739.573 280.694H604.651l-17.833 8.889h170.588z" fill="#deb264"/><path data-name="Rectangle 12" fill="#ffd893" d="M586.818 206.786h170.588v43.309H586.818z"/><path data-name="Path 27" d="M739.573 197.897H604.651l-17.833 8.889h170.588z" fill="#deb264"/><path data-name="Rectangle 13" fill="#ffd893" d="M585.035 122.972h170.588v43.951H585.035z"/><path data-name="Path 28" d="M737.79 114.084H602.868l-17.833 8.889h170.588z" fill="#deb264"/><path data-name="Rectangle 14" fill="#263f74" d="M583.251 422.62h63.23v47.339h-63.23z"/><path data-name="Path 29" d="M646.482 469.96l13.34-12.963V422.62h-13.34z" fill="#4a4d79"/><path data-name="Rectangle 15" fill="#ff7171" d="M697.742 422.62h63.23v47.339h-63.23z"/><path data-name="Path 30" d="M697.742 469.96L684.4 456.997V422.62h13.342z" fill="#b81e57"/><path data-name="Rectangle 16" fill="#ff7171" d="M543.089 332.891h53.461v42.556h-53.461z"/><path data-name="Path 31" d="M596.55 375.446l13.342-9.7v-32.855H596.55z" fill="#b81e57"/><path data-name="Rectangle 17" fill="#263f74" d="M697.742 332.891h63.23v42.556h-63.23z"/><path data-name="Path 32" d="M697.742 375.446l-13.342-9.7v-32.855h13.342z" fill="#4a4d79"/><path data-name="Rectangle 18" fill="#263f74" d="M583.251 249.826h63.23v40.024h-63.23z"/><path data-name="Path 33" d="M646.482 289.85l13.34-9.49v-30.533h-13.34z" fill="#4a4d79"/><path data-name="Rectangle 19" fill="#ff7171" d="M697.742 249.826h63.23v40.024h-63.23z"/><path data-name="Path 34" d="M697.742 289.85l-13.342-9.49v-30.533h13.342z" fill="#b81e57"/><path data-name="Rectangle 20" fill="#ff7171" d="M583.251 166.762h63.23v40.024h-63.23z"/><path data-name="Path 35" d="M646.482 206.785l13.342-9.495v-30.529h-13.342z" fill="#b81e57"/><path data-name="Rectangle 21" fill="#263f74" d="M710.225 166.762h63.23v40.024h-63.23z"/><path data-name="Path 36" d="M710.225 206.785l-13.342-9.495v-30.529h13.342z" fill="#4a4d79"/><path data-name="Path 37" d="M697.234 176.684a6.427 6.427 0 00-4.911 6.095c-.169 5.08.847 6.1 2.709 7.282s7.282 1.694 7.96 1.355 3.386-5.588 2.031-7.96-4.911-3.217-4.911-3.217 2.88-.508 2.71-2.033-.508-2.031-1.525-1.862a39.276 39.276 0 01-4.063.34z" fill="#f6cccf"/><path data-name="Path 38" d="M778.358 190.24h-5.647c-1.635 0-5.943-4.012-6.985-4.16s-2.675-.446-1.931.742a30.536 30.536 0 003.864 3.864s-4.608-.148-6.539-.446-4.458-1.337-5.349-.446-2.527 3.269-1.04 4.756 8.618 4.458 12.184 4.606 12.036-2.675 12.63-4.16.151-4.904-1.187-4.756z" fill="#f6cccf"/></g><g data-name="Group 25"><path data-name="Path 39" d="M473.212 141.3s1.783 0-3.343 7.578 1.337 27.416 1.337 27.416l41.012-.446-5.883-22.268-3.478-13.18a87.835 87.835 0 00-12.7-.892c-4.909.228-16.945 1.792-16.945 1.792z" transform="translate(147.263 -87.913)" fill="url(#c)"/><g data-name="Group 22"><path data-name="Path 40" d="M653.598 65.663l5.883 22.268-41.012.446s-6.464-19.838-1.337-27.416c0 0 0 13.151 5.349 15.6s14.488 2.229 21.621.446 9.496-11.344 9.496-11.344z" fill="#333" opacity=".17"/></g><path data-name="Path 41" d="M626.947 50.396l.123 4.224s4.349 5.093 13.914-.745l-.87-5.838z" fill="#f6cccf"/><path data-name="Path 42" d="M623.344 28.782l.621 12.671 4.348 5.838 11.677-.869 3.23-4.969.373-7.577-1.118-7.453h-14.534z" fill="#f6cccf"/><g data-name="Group 24"><g data-name="Group 23"><path data-name="Path 43" d="M645.579 27.415a9.78 9.78 0 00-3.975-8.2 10.855 10.855 0 00-6.459-1.988c-1.368 0-5.342-1.243-9.069.745s-6.211 6.459-6.086 8.572 1.366 1.863 1.366 1.863.62 9.317.5 12.174-1.615 12.794 10.31 12.794 13.415-7.577 13.664-12.919-.251-9.935-.251-13.041zm-3.6 13.044c-.5 2.111-2.857 4.347-9.192 4.845s-7.206-2.981-7.951-3.975-.621-11.305-.621-11.305l-.125-1.739s1.863 3.354 8.944 2.857 7.951-3.477 7.951-3.477 1.491 6.086 1.491 7.2a25.35 25.35 0 01-.499 5.594z" fill="#f6cccf"/></g></g><path data-name="Path 44" d="M622.476 33.503s-2.236-3.727-4.472-3.106a2.814 2.814 0 00-.993 4.845c1.614 1.366 5.588 1.616 5.588 1.616z" fill="#f6cccf"/><path data-name="Path 45" d="M644.834 32.51l-.123 4.347s6.211-1.863 5.838-4.97-3.852-1.986-5.715.623z" fill="#f6cccf"/><path data-name="Path 47" d="M485.744 140.5s-18.5 1.114-23.627 18.946-5.349 21.175-8.024 24.072-2.452 10.03 3.566 11.59 9.584-4.681 9.584-4.681l12.929-25.627s5.572-20.511 5.572-24.3z" transform="translate(135.176 -87.117)" fill="url(#c)"/><path data-name="Rectangle 22" fill="#df613d" d="M602.867 82.948h63.23v40.024h-63.23z"/><path data-name="Path 48" d="M666.097 122.968l13.342-9.495V82.948h-13.342z" fill="#a7492e"/><path data-name="Path 49" d="M595.288 101.973s-3.343 3.789-.223 9.807 16.717 1.337 17.609-.223 2.452-5.127.669-6.464-5.572-1.337-7.578-1.56 3.055-2.127 4.235-2.9c1.282-.836 1.337-2.675-.892-2.229s-8.253.672-13.82 3.569z" fill="#f6cccf"/><path data-name="Path 50" d="M486.667 139.843s15.751-1.485 32.69 19.615-10.4 37.744-13.671 38.933-8.024 1.783-8.916.892c0 0-1.188-7.133-5.645-6.539 0 0 1.188-10.847 6.389-17.163s-2.527-12.557-5.8-15.232-5.047-20.506-5.047-20.506z" transform="translate(161.967 -87.649)" fill="url(#c)"/><path data-name="Path 51" d="M654.132 103.757s-.669 2.452-2.229 2.452-7.578-.892-8.916-.223-2.006 2.006-.669 2.229 6.241.669 6.241.669a46.257 46.257 0 01-7.8 2.9c-3.121.669-4.458 1.114-4.458 4.458s1.783 4.458 8.024 4.9 12.036-2.9 13.151-4.9a12.382 12.382 0 001.262-4.606l1.635-5.424-3.566-3.343z" fill="#f6cccf"/></g><g data-name="Group 33"><path data-name="Path 52" d="M496.323 516.11s-2.452 2.9-3.789 4.681 4.012 5.349 6.018 5.8a10.979 10.979 0 003.566.223 3.928 3.928 0 001.783 3.12c1.783 1.114 16.271 7.355 19.169 6.687s2.229-5.8 2.229-5.8l-9.584-5.8-7.578-6.018z" fill="#fff"/><path data-name="Path 53" d="M533.101 524.58s-2.452 2.229-2.675 3.789-.892 3.566 1.114 4.681 7.356 2.006 9.584.892 2.006-3.566 3.343-2.229.446 2.9 2.675 2.9 15.825 1.56 18.723-.669 2.229-5.8 1.337-6.687-16.717-1.56-16.717-1.56l-8.916-2.9z" fill="#fff"/><path data-name="Path 54" d="M585.481 356.518s2.006 1.114 3.343-2.9 2.9-7.578 4.458-7.578 0 7.133 0 7.133 2.9.669 3.789-.223 2.229-3.343 3.566-3.121 3.12 3.566 1.783 8.916-5.127 5.572-7.8 6.241-9.362 0-9.362 0z" fill="#f6cccf"/><path data-name="Path 55" d="M562.745 306.291s4.16-2.823 3.269-5.943-2.675-1.783-3.417-.892a11.252 11.252 0 00-1.337 2.229z" fill="#f6cccf"/><g data-name="Group 26"><path data-name="Path 56" d="M542.091 315.061s-5.647-1.189-6.241-5.052-.6-14.265.594-16.346a7.008 7.008 0 012.823-2.823l9.957 22.289z" fill="#333"/></g><path data-name="Path 57" d="M505.091 504.222s-2.379 8.322-3.27 8.62 8.024 3.862 8.024 3.862 2.379-8.32 3.27-10.4-8.024-2.082-8.024-2.082z" fill="#f6cccf"/><g data-name="Group 27"><path data-name="Path 58" d="M502.712 508.978s-5.052 1.485-5.943 4.16-2.675 4.458-1.485 6.241a6.964 6.964 0 005.349 3.27c2.079 0 2.971-3.566 4.458-.892s-.6 3.566 1.783 5.052 9.509 4.458 13.67 4.756 5.349.892 5.945 0 .3-3.566-1.487-4.162-7.726-4.458-9.51-8.618a26.741 26.741 0 00-3.864-6.539 3.685 3.685 0 01-4.16 1.189c-2.675-.891-4.756-4.457-4.756-4.457z" fill="#333"/></g><path data-name="Path 59" d="M535.107 507.414s.669 7.8.446 8.47 5.127 2.006 7.578-.223l-1.56-10.476z" fill="#f6cccf"/><g data-name="Group 28"><path data-name="Path 60" d="M533.993 514.105a26.245 26.245 0 00-2.006 7.578 51.843 51.843 0 000 6.464s7.133 1.783 9.362.669 1.783-2.452 2.9-2.452.223 2.006 2.452 2.452a126.09 126.09 0 0017.386.892c4.681-.223 2.9-6.241 1.115-6.241s-6.241.669-10.7-2.229-8.247-7.578-11.813-8.247a7.413 7.413 0 01-7.133.669z" fill="#333"/></g><g data-name="Group 29"><path data-name="Path 61" d="M408.49 323.333A49.365 49.365 0 00403.736 348c1.188 13.374 13.67 39.823 14.265 41.606s-2.973 5.943-3.566 8.322-1.189 21.694-3.864 30.907-4.458 19.021-3.566 20.506a14.642 14.642 0 008.916 3.566s3.864-.594 7.726-6.241c0 0 5.647-8.024 7.133-13.076l5.349 20.208s8.024.892 12.482-2.081c0 0-1.188-28.826.6-43.983s.892-18.723.892-27.045-8.322-46.064-10.4-50.82-31.213-6.536-31.213-6.536z" transform="translate(96.897 56.069)" fill="url(#a)"/></g><g data-name="Group 30"><path data-name="Path 62" d="M533.621 398.72s7.133 50.224 4.754 59.14-10.7 31.8-10.7 31.8l3.864 14.265s5.647-13.969 8.322-21.4 4.16-29.126 2.971-38.933-6.835-43.389-7.429-44.875-2.08-1.484-1.782.003z" opacity=".5"/></g><path data-name="Path 63" d="M538.227 322.193s3.121-7.355 3.121-10.253l8.916 7.8s-3.343 5.349-3.789 6.464-8.248-4.011-8.248-4.011z" fill="#f6cccf"/><path data-name="Path 64" d="M540.604 309.117s.3 5.645 3.716 9.064a15.761 15.761 0 0010.4 4.31c2.229 0 4.606.148 7.133-1.933s2.527-5.349 2.229-7.874-1.189-4.756-1.337-6.391l-1.485-7.578-11.295-2.972-6.091.148-1.337 7.726s-5.053-5.2-7.876-1.485 5.943 6.985 5.943 6.985z" fill="#f6cccf"/><g data-name="Group 31"><path data-name="Path 65" d="M541.645 301.241s1.783 5.349 1.783 6.539-.446 1.931 1.337 1.783 2.079-1.933 1.931-4.162 0-7.133 0-7.133 5.5 5.349 7.726 5.349 2.379-2.525 2.379-2.525a2.578 2.578 0 003.268 1.783c2.527-.744 4.16-1.783 2.229-6.391s-3.714-9.064-9.659-9.658-13.819 1.485-15.751 5.943 4.757 8.472 4.757 8.472z" fill="#333"/></g><path data-name="Path 67" d="M442.926 290.7s-10.253-2.229-16.346 3.121-11.145 23.627-12.928 27.045-6.835 16.048-9.064 18.871-1.635 6.539 1.485 9.214 17.09 9.807 28.085 8.32a13.615 13.615 0 0012.293-11.979c.041-.8.041-7.04.041-7.04s4.9 4.606 17.088 3.121 25.114-1.933 26.3-6.985 1.487-9.213-1.931-10.4-24.666-9.362-29.124-10.105a14.465 14.465 0 00-7.728.744s3.27-1.487 3.566-2.081-1.337 0-.742-1.337.892-4.606.446-8.916-4.458-7.876-6.687-9.064-4.308-2.675-4.754-2.529z" transform="translate(96.639 30.153)" fill="url(#d)"/><g data-name="Group 32"><path data-name="Path 68" d="M526.785 336.458a28.5 28.5 0 001.933 18.723c4.606 9.659 14.413 13.226 14.413 13.226s.743 9.51-2.081 12.778a25.041 25.041 0 01-4.9-5.349c-2.971-4.012-12.778-10.7-13.522-19.317s4.157-20.061 4.157-20.061z" fill="#333" opacity=".17"/></g></g></g><path data-name="Path 11015" d="M651.791 24.294a3.422 3.422 0 00-4.164-2.726 2.869 2.869 0 001.604-3.442 2.868 2.868 0 00-3.343-1.8c.956-.885.467-2.61-.61-3.343a6.589 6.589 0 00-3.766-.755 3.122 3.122 0 00-4.094-3.808 1.7 1.7 0 00-.382-2.117 3.952 3.952 0 00-2.148-.846 6.725 6.725 0 00-4.165.537 3.512 3.512 0 00-1.91 3.51 1.615 1.615 0 00-1.71-1.334 2.637 2.637 0 00-1.946 1.253 7.752 7.752 0 00-.896 2.219 2.094 2.094 0 00-2.247-1.875 3.176 3.176 0 00-2.493 1.886 6.956 6.956 0 00-.527 3.21 30.77 30.77 0 01.067 3.271c-4.837 3.764 1.463 10.866 2.483 12.375 1.381.08 3.023-3.656 3.003-3.924-.38-5.264 1.853 1.732 4.532-.883 0 0 2.721-3.067 8.826 1.574.105.08.212.122.32.19a2.294 2.294 0 00.553.788 2.435 2.435 0 002.172.477 8.136 8.136 0 00.968.226 5.61 5.61 0 002.055 1.936 3.527 3.527 0 003.308.036 2.527 2.527 0 001.173-2.946 3.421 3.421 0 003.337-3.69z" fill="#0d041f"/><path data-name="Path 11016" d="M1202.903 70.922a47.285 47.285 0 00-17.76 10.273l-10.615-6.127-.1-.055a5.939 5.939 0 00-8.01 2.225l-.046.086-8.164 14.141a5.939 5.939 0 002.17 8.107l.086.044 10.523 6.077q-.5 2.235-.779 4.525a47.364 47.364 0 000 11.477q.28 2.291.779 4.525l-10.609 6.12a5.939 5.939 0 00-2.17 8.107l8.139 14.1a1.419 1.419 0 00.132.233 5.95 5.95 0 007.935 2.133 1.725 1.725 0 00.237-.14l10.49-6.057a47.348 47.348 0 008.333 6.125 46.812 46.812 0 009.43 4.15v12.243a5.957 5.957 0 005.943 5.941h16.419a5.953 5.953 0 005.941-5.941v-12.245a46.762 46.762 0 009.43-4.15 47.366 47.366 0 008.335-6.125l10.492 6.059a1.455 1.455 0 00.266.151 5.944 5.944 0 007.9-2.144 1.441 1.441 0 00.132-.233l8.137-14.1a5.94 5.94 0 00-2.175-8.113l-10.6-6.12q.5-2.232.779-4.527a47.68 47.68 0 000-11.48q-.28-2.288-.779-4.523l10.6-6.121a5.939 5.939 0 002.175-8.111l-.046-.081-8.163-14.131a5.936 5.936 0 00-8.1-2.17l-10.613 6.127a47.2 47.2 0 00-17.762-10.273V58.681a5.953 5.953 0 00-5.941-5.941h-16.428a5.957 5.957 0 00-5.943 5.941v12.241zm-48.473 98.8a24.081 24.081 0 00-8.109 4.692l-4.767-2.749a3.7 3.7 0 00-5.065 1.363l-4.064 7.04a3.707 3.707 0 001.361 5.056l.086.048 4.677 2.7q-.174.872-.283 1.76a24.217 24.217 0 000 5.857q.109.885.283 1.762l-4.758 2.745 20.642-30.271zm-2.741 4.593a20.812 20.812 0 014.63-1.975 1.535 1.535 0 001.178-1.494v-6.616a.653.653 0 01.151-.415l.039-.04a.65.65 0 01.454-.191h8.122a.642.642 0 01.454.191.646.646 0 01.189.456v6.619a1.539 1.539 0 001.115 1.475 20.9 20.9 0 018.761 5.052 1.534 1.534 0 001.863.252l5.739-3.314a.673.673 0 01.887.239l4.062 7.033a.652.652 0 01.057.5.634.634 0 01-.3.393l-5.646 3.259a1.533 1.533 0 00-.81 1.738 20.956 20.956 0 01.463 2.515 21.277 21.277 0 010 5.142 20.84 20.84 0 01-.463 2.513 1.531 1.531 0 00.722 1.69l5.734 3.311a.629.629 0 01.292.393.652.652 0 01-.057.5l-4.062 7.036a.655.655 0 01-.4.294.668.668 0 01-.448-.037l-5.78-3.336a1.526 1.526 0 00-1.828.222 21.212 21.212 0 01-4.1 3.088 20.891 20.891 0 01-4.633 1.975 1.537 1.537 0 00-1.181 1.494v6.619a.641.641 0 01-.191.454.633.633 0 01-.454.191h-8.104a.653.653 0 01-.413-.147l-.042-.044a.641.641 0 01-.191-.454v-6.619a1.535 1.535 0 00-1.115-1.475 20.868 20.868 0 01-4.694-1.995 21.154 21.154 0 01-4.1-3.088 1.527 1.527 0 00-1.821-.222l-5.741 3.312a.664.664 0 01-.889-.233l-4.062-7.033a.662.662 0 01.242-.891l5.644-3.261a1.53 1.53 0 00.81-1.74 21.291 21.291 0 01-.461-2.513 21.57 21.57 0 010-5.14 21.366 21.366 0 01.461-2.517 1.522 1.522 0 00-.724-1.69l-5.6-3.237a1.363 1.363 0 00-.171-.1.667.667 0 01-.25-.364.682.682 0 01.026-.428 1.747 1.747 0 00.105-.191l3.99-6.911a.639.639 0 01.4-.294.646.646 0 01.494.057l5.657 3.268a1.534 1.534 0 001.907-.173 21.082 21.082 0 014.1-3.09zm-17.907 25.678l20.648-30.271v-5.5a3.693 3.693 0 01.992-2.517c.031-.035.062-.072.1-.11a3.719 3.719 0 012.625-1.088h8.122a3.72 3.72 0 012.627 1.088 3.709 3.709 0 011.091 2.62v5.5a23.929 23.929 0 014.275 1.942 24.364 24.364 0 013.832 2.748l4.764-2.75a3.7 3.7 0 015.065 1.363l4.06 7.033a3.7 3.7 0 01-1.354 5.063l-4.76 2.75q.174.872.281 1.76a24.235 24.235 0 010 5.859 23 23 0 01-.281 1.76l4.755 2.745a3.7 3.7 0 011.361 5.063l-4.06 7.036a3.7 3.7 0 01-4.957 1.42 1.09 1.09 0 01-.112-.059l-4.764-2.75a24.239 24.239 0 01-8.107 4.692v5.493a3.72 3.72 0 01-3.718 3.713h-8.123a3.679 3.679 0 01-2.515-.99 2.433 2.433 0 01-.11-.1 3.7 3.7 0 01-1.089-2.625v-5.493a24.174 24.174 0 01-8.109-4.694l-4.767 2.762a3.705 3.705 0 01-5.065-1.361l-4.069-7.051a3.709 3.709 0 011.363-5.047zm0 0zm28.421-20.567a13.127 13.127 0 11-9.281 3.845 13.092 13.092 0 019.281-3.845zm-7.108 6.017a10.053 10.053 0 11-2.945 7.11 10.013 10.013 0 012.945-7.11zm61.959-41.503a27.981 27.981 0 1119.786-8.2 27.893 27.893 0 01-19.786 8.2zm-21.414-6.566a30.294 30.294 0 1121.414 8.866 30.2 30.2 0 01-21.414-8.866zm-.632-59.649a43.89 43.89 0 019.785-4.167 1.533 1.533 0 001.178-1.492V58.681a2.885 2.885 0 012.873-2.873h16.419a2.885 2.885 0 012.873 2.873v13.382a1.533 1.533 0 001.118 1.477 44.066 44.066 0 0118.4 10.624 1.531 1.531 0 001.863.255l11.6-6.7a2.9 2.9 0 013.926 1.058l8.161 14.139.046.086a2.9 2.9 0 01-1.049 3.926l-11.506 6.643a1.532 1.532 0 00-.81 1.74 44.5 44.5 0 010 21.307 1.53 1.53 0 00.724 1.692l11.589 6.689a2.9 2.9 0 011.049 3.928l-8.164 14.144-.05.079a2.9 2.9 0 01-3.928 1.053l-11.514-6.663a1.531 1.531 0 00-1.9.176 44.018 44.018 0 01-18.37 10.637 1.533 1.533 0 00-1.178 1.494v13.382a2.885 2.885 0 01-2.873 2.87h-16.424a2.885 2.885 0 01-2.873-2.87V159.85a1.538 1.538 0 00-1.117-1.475 43.839 43.839 0 01-9.849-4.185 44.392 44.392 0 01-8.583-6.472 1.528 1.528 0 00-1.821-.224l-11.521 6.652-.086.046a2.894 2.894 0 01-3.926-1.053l-8.216-14.214a2.9 2.9 0 011.053-3.935l11.5-6.643a1.531 1.531 0 00.81-1.738 44.393 44.393 0 010-21.307 1.519 1.519 0 00-.722-1.688l-11.506-6.645-.079-.048a2.9 2.9 0 01-1.053-3.933l8.159-14.137.051-.079a2.9 2.9 0 013.864-1.093l.062.04 11.6 6.7a1.533 1.533 0 001.83-.222 44.249 44.249 0 018.585-6.472zm22.046 13.265a24.965 24.965 0 11-17.655 7.312 24.882 24.882 0 0117.655-7.312zm-15.485 9.483a21.9 21.9 0 11-6.412 15.485 21.83 21.83 0 016.414-15.485z" fill="#d1d4eb" fill-rule="evenodd"/><path data-name="Path 11017" d="M965.686 363.469a1.217 1.217 0 11.088-2.432c1.027.037 1.8-.869 2.594-1.8 1.207-1.415 2.447-2.875 4.848-2.875s3.641 1.459 4.845 2.875c.792.933 1.562 1.837 2.59 1.8h.1c1.025.033 1.8-.871 2.587-1.8 1.207-1.415 2.451-2.875 4.845-2.875s3.645 1.459 4.848 2.875c.794.933 1.565 1.837 2.59 1.8h.1c1.025.033 1.793-.871 2.589-1.8 1.2-1.415 2.445-2.875 4.846-2.875s3.638 1.459 4.845 2.875c.792.933 1.563 1.837 2.587 1.8h.1c1.027.033 1.8-.871 2.59-1.8 1.207-1.415 2.447-2.875 4.848-2.875s3.641 1.459 4.846 2.875c.792.933 1.562 1.837 2.589 1.8h.1c1.025.033 1.8-.871 2.587-1.8 1.207-1.415 2.447-2.875 4.848-2.875s3.641 1.459 4.845 2.875c.794.933 1.563 1.837 2.59 1.8h.1c1.027.033 1.8-.871 2.587-1.8 1.2-1.415 2.449-2.875 4.846-2.875s3.643 1.459 4.848 2.875c.794.933 1.563 1.837 2.59 1.8h.1c1.027.033 1.8-.871 2.589-1.8 1.207-1.415 2.447-2.875 4.848-2.875s3.641 1.459 4.845 2.875c.792.933 1.563 1.837 2.587 1.8h.1c1.027.033 1.8-.871 2.589-1.8 1.207-1.415 2.447-2.875 4.846-2.875s3.643 1.459 4.848 2.875c.792.933 1.565 1.837 2.59 1.8h.1c1.023.033 1.793-.871 2.585-1.8 1.207-1.415 2.447-2.875 4.848-2.875s3.641 1.459 4.845 2.875c.794.933 1.562 1.837 2.589 1.8h.1c1.025.033 1.8-.871 2.587-1.8 1.2-1.415 2.449-2.875 4.848-2.875s3.641 1.459 4.846 2.875c.792.933 1.56 1.837 2.587 1.8h.1c1.027.033 1.8-.871 2.59-1.8 1.207-1.415 2.449-2.875 4.848-2.875s3.641 1.459 4.845 2.875c.792.933 1.565 1.837 2.587 1.8h.1c1.027.033 1.8-.871 2.592-1.8 1.2-1.415 2.445-2.875 4.846-2.875s3.641 1.459 4.845 2.875c.792.933 1.565 1.837 2.59 1.8h.1c1.023.033 1.793-.871 2.587-1.8 1.2-1.415 2.449-2.875 4.846-2.875s3.641 1.459 4.845 2.875c.794.933 1.563 1.837 2.59 1.8h.1c1.025.033 1.8-.871 2.587-1.8 1.2-1.415 2.449-2.875 4.848-2.875s3.641 1.459 4.845 2.875c.792.933 1.563 1.837 2.587 1.8h.1c1.025.033 1.8-.871 2.589-1.8 1.2-1.415 2.447-2.875 4.846-2.875s3.641 1.459 4.845 2.875c.794.935 1.567 1.841 2.6 1.8a1.217 1.217 0 01.088 2.432c-2.2.079-3.351-1.273-4.534-2.66-.843-.99-1.707-2.01-3-2.01s-2.157 1.02-3 2.01c-1.178 1.38-2.32 2.719-4.49 2.662-2.175.057-3.314-1.282-4.49-2.662-.841-.99-1.71-2.01-3-2.01s-2.155 1.02-3 2.01c-1.174 1.38-2.315 2.719-4.488 2.662-2.173.057-3.312-1.282-4.488-2.662-.843-.99-1.71-2.01-3-2.01s-2.153 1.02-3 2.01c-1.176 1.38-2.32 2.719-4.49 2.662-2.17.057-3.314-1.282-4.49-2.662-.843-.99-1.709-2.01-3-2.01s-2.155 1.02-3 2.01c-1.176 1.38-2.32 2.719-4.49 2.662-2.173.057-3.316-1.282-4.49-2.662-.843-.99-1.707-2.01-3-2.01s-2.157 1.02-3 2.01c-1.176 1.38-2.317 2.719-4.488 2.662-2.175.057-3.314-1.282-4.49-2.662-.843-.99-1.71-2.01-3-2.01s-2.157 1.02-3 2.01c-1.174 1.38-2.315 2.719-4.488 2.662-2.17.057-3.312-1.282-4.49-2.662-.841-.99-1.71-2.01-3-2.01s-2.155 1.02-3 2.01c-1.176 1.38-2.32 2.719-4.49 2.662-2.173.057-3.316-1.282-4.49-2.662-.843-.99-1.707-2.01-3-2.01s-2.153 1.02-3 2.01c-1.174 1.38-2.317 2.719-4.488 2.662-2.173.057-3.316-1.282-4.49-2.662-.843-.99-1.71-2.01-3-2.01s-2.157 1.02-3 2.01c-1.176 1.38-2.317 2.719-4.488 2.662-2.175.057-3.316-1.282-4.49-2.662-.843-.99-1.712-2.01-3-2.01s-2.153 1.02-3 2.01c-1.174 1.38-2.315 2.719-4.488 2.662-2.173.057-3.314-1.282-4.49-2.662-.841-.99-1.707-2.01-3-2.01s-2.155 1.02-3 2.01c-1.174 1.38-2.317 2.719-4.488 2.662-2.173.057-3.314-1.282-4.49-2.662-.843-.99-1.71-2.01-3-2.01s-2.157 1.02-3 2.01c-1.174 1.38-2.318 2.719-4.49 2.662-2.17.057-3.314-1.282-4.488-2.662-.843-.99-1.71-2.01-3-2.01s-2.157 1.02-3 2.01c-1.176 1.38-2.318 2.719-4.488 2.662-2.175.057-3.314-1.282-4.49-2.662-.843-.99-1.712-2.01-3-2.01s-2.153 1.02-3 2.01c-1.174 1.38-2.315 2.719-4.488 2.662-2.173.057-3.314-1.282-4.49-2.662-.84-.99-1.71-2.01-3-2.01s-2.155 1.02-3 2.01c-1.058 1.387-2.208 2.739-4.407 2.66z" fill="#e88397" fill-rule="evenodd"/><path data-name="Path 11018" d="M1227.095 431.308a1.22 1.22 0 01-1.725-1.725l6.84-6.842-6.84-6.84a1.22 1.22 0 111.725-1.725l7.7 7.7a1.216 1.216 0 010 1.725l-7.7 7.7zm-12.028-15.408l6.838 6.84-6.838 6.842a1.22 1.22 0 001.725 1.725l7.7-7.7a1.22 1.22 0 000-1.725l-7.7-7.7a1.22 1.22 0 10-1.725 1.725zm42.942 15.408a1.22 1.22 0 01-1.725-1.725l6.838-6.842-6.838-6.84a1.22 1.22 0 111.725-1.725l7.7 7.7a1.216 1.216 0 010 1.725l-7.7 7.7zm-10.3 0l7.7-7.7a1.224 1.224 0 000-1.725l-7.7-7.7a1.22 1.22 0 10-1.727 1.725l6.84 6.84-6.84 6.842a1.22 1.22 0 001.727 1.725zm-10.305 0l7.7-7.7a1.216 1.216 0 000-1.725l-7.7-7.7a1.221 1.221 0 10-1.727 1.725l6.843 6.84-6.843 6.842a1.221 1.221 0 001.727 1.725z" fill="#e88397" fill-rule="evenodd"/><path data-name="Path 11027" d="M699.162 42.35a1.22 1.22 0 01-1.725-1.725l6.84-6.842-6.84-6.84a1.22 1.22 0 111.725-1.725l7.7 7.7a1.216 1.216 0 010 1.725l-7.7 7.7zm-12.028-15.408l6.838 6.84-6.838 6.842a1.22 1.22 0 001.725 1.725l7.7-7.7a1.22 1.22 0 000-1.725l-7.7-7.7a1.22 1.22 0 10-1.725 1.725zm42.942 15.408a1.22 1.22 0 01-1.725-1.725l6.838-6.842-6.838-6.84a1.22 1.22 0 111.725-1.725l7.7 7.7a1.216 1.216 0 010 1.725l-7.7 7.7zm-10.3 0l7.7-7.7a1.224 1.224 0 000-1.725l-7.7-7.7a1.22 1.22 0 10-1.727 1.725l6.84 6.84-6.84 6.842a1.22 1.22 0 001.727 1.725zm-10.305 0l7.7-7.7a1.216 1.216 0 000-1.725l-7.7-7.7a1.221 1.221 0 10-1.727 1.725l6.843 6.84-6.843 6.842a1.221 1.221 0 001.727 1.725z" fill="#e88397" fill-rule="evenodd"/><path data-name="Path 11019" d="M168.107 267.481a1.22 1.22 0 01-1.725-1.725l6.843-6.84-6.847-6.843a1.22 1.22 0 011.725-1.725l7.7 7.7a1.219 1.219 0 010 1.727l-7.7 7.7zm-12.029-15.408l6.84 6.843-6.84 6.84a1.22 1.22 0 101.725 1.725l7.7-7.7a1.223 1.223 0 000-1.727l-7.7-7.7a1.22 1.22 0 10-1.725 1.725zm42.94 15.408a1.22 1.22 0 01-1.725-1.725l6.84-6.84-6.84-6.843a1.22 1.22 0 011.725-1.725l7.7 7.7a1.218 1.218 0 010 1.727l-7.7 7.7zm-10.3 0l7.7-7.7a1.222 1.222 0 000-1.727l-7.7-7.7a1.22 1.22 0 00-1.725 1.725l6.84 6.843-6.84 6.84a1.22 1.22 0 001.725 1.725zm-10.3 0l7.705-7.7a1.227 1.227 0 000-1.727l-7.705-7.7a1.22 1.22 0 00-1.725 1.725l6.84 6.843-6.84 6.84a1.22 1.22 0 001.725 1.725z" fill="#e88397" fill-rule="evenodd"/><path data-name="Path 11020" d="M360.248 427.74a1.215 1.215 0 11.088 2.429c-2.2.079-3.351-1.271-4.534-2.662-.841-.988-1.71-2.008-3-2.008s-2.153 1.02-3 2.008c-1.176 1.383-2.317 2.723-4.49 2.664-2.17.059-3.314-1.282-4.488-2.664-.843-.988-1.71-2.008-3-2.008s-2.155 1.02-3 2.008c-1.178 1.383-2.317 2.723-4.49 2.664-2.173.059-3.314-1.282-4.488-2.664-.843-.988-1.712-2.008-3-2.008s-2.155 1.02-3 2.008c-1.174 1.383-2.315 2.723-4.49 2.664-2.17.059-3.312-1.282-4.486-2.664-.843-.988-1.712-2.008-3-2.008s-2.153 1.02-3 2.008c-1.176 1.383-2.317 2.723-4.49 2.664-2.17.059-3.314-1.282-4.49-2.664-.84-.988-1.707-2.008-3-2.008s-2.153 1.02-3 2.008c-1.183 1.391-2.333 2.741-4.534 2.662a1.215 1.215 0 01.086-2.429c1.031.035 1.8-.871 2.6-1.806 1.2-1.413 2.447-2.873 4.845-2.873s3.641 1.459 4.846 2.873c.792.933 1.565 1.837 2.592 1.806h.1c1.025.031 1.8-.873 2.587-1.806 1.207-1.413 2.449-2.873 4.845-2.873s3.641 1.459 4.848 2.873c.794.933 1.562 1.837 2.589 1.806h.1c1.027.031 1.8-.873 2.59-1.806 1.2-1.413 2.447-2.873 4.845-2.873s3.641 1.459 4.848 2.873c.79.933 1.56 1.837 2.587 1.806h.1c1.027.031 1.8-.873 2.59-1.806 1.2-1.413 2.447-2.873 4.845-2.873s3.641 1.459 4.848 2.873c.792.933 1.563 1.837 2.589 1.806h.1c1.027.031 1.8-.873 2.589-1.806 1.2-1.413 2.447-2.873 4.846-2.873s3.641 1.459 4.848 2.873c.827.935 1.6 1.841 2.629 1.806z" fill="#e88397" fill-rule="evenodd"/><path data-name="Path 11026" d="M1482.21 165.892a1.215 1.215 0 11.088 2.429c-2.2.079-3.351-1.271-4.534-2.662-.841-.988-1.71-2.008-3-2.008s-2.153 1.02-3 2.008c-1.176 1.383-2.317 2.723-4.49 2.664-2.17.059-3.314-1.282-4.488-2.664-.843-.988-1.71-2.008-3-2.008s-2.155 1.02-3 2.008c-1.178 1.383-2.317 2.723-4.49 2.664-2.173.059-3.314-1.282-4.488-2.664-.843-.988-1.712-2.008-3-2.008s-2.155 1.02-3 2.008c-1.174 1.383-2.315 2.723-4.49 2.664-2.17.059-3.312-1.282-4.486-2.664-.843-.988-1.712-2.008-3-2.008s-2.153 1.02-3 2.008c-1.176 1.383-2.317 2.723-4.49 2.664-2.17.059-3.314-1.282-4.49-2.664-.84-.988-1.707-2.008-3-2.008s-2.153 1.02-3 2.008c-1.183 1.391-2.333 2.741-4.534 2.662a1.215 1.215 0 01.086-2.429c1.031.035 1.8-.871 2.6-1.806 1.2-1.413 2.447-2.873 4.845-2.873s3.641 1.459 4.846 2.873c.792.933 1.565 1.837 2.592 1.806h.1c1.025.031 1.8-.873 2.587-1.806 1.207-1.413 2.449-2.873 4.845-2.873s3.641 1.459 4.848 2.873c.794.933 1.562 1.837 2.589 1.806h.1c1.027.031 1.8-.873 2.59-1.806 1.2-1.413 2.447-2.873 4.845-2.873s3.641 1.459 4.848 2.873c.79.933 1.56 1.837 2.587 1.806h.1c1.027.031 1.8-.873 2.59-1.806 1.2-1.413 2.447-2.873 4.845-2.873s3.641 1.459 4.848 2.873c.792.933 1.563 1.837 2.589 1.806h.1c1.027.031 1.8-.873 2.589-1.806 1.2-1.413 2.447-2.873 4.846-2.873s3.641 1.459 4.848 2.873c.827.935 1.6 1.841 2.629 1.806z" fill="#e88397" fill-rule="evenodd"/><path data-name="Path 11021" d="M1020.336 233.033a6.816 6.816 0 014.834 2 6.845 6.845 0 010 9.678l-.072.068a6.842 6.842 0 11-4.766-11.749zm3.116 3.726a4.4 4.4 0 10-.055 6.287l.053-.057a4.408 4.408 0 000-6.228z" fill="#e88397" fill-rule="evenodd"/><path data-name="Path 11028" d="M283.943 112.701a6.816 6.816 0 014.834 2 6.845 6.845 0 010 9.678l-.072.068a6.842 6.842 0 11-4.766-11.749zm3.116 3.726a4.4 4.4 0 10-.055 6.287l.053-.057a4.408 4.408 0 000-6.228z" fill="#e88397" fill-rule="evenodd"/><path data-name="Path 11022" d="M1458.995 272.13a1.22 1.22 0 012.44 0v3.935h3.933a1.22 1.22 0 110 2.44h-3.933v3.933a1.22 1.22 0 11-2.44 0v-3.933h-3.935a1.22 1.22 0 110-2.44h3.935z" fill="#e88397" fill-rule="evenodd"/><path data-name="Path 11029" d="M397.198 57.737a1.22 1.22 0 012.44 0v3.935h3.933a1.22 1.22 0 110 2.44h-3.933v3.933a1.22 1.22 0 11-2.44 0v-3.933h-3.935a1.22 1.22 0 110-2.44h3.935z" fill="#e88397" fill-rule="evenodd"/><path data-name="Path 11024" d="M416.487 285.91zm3.867-14.719a7.438 7.438 0 11-2.177 5.258 7.416 7.416 0 012.177-5.258zm1.606-7.369a13 13 0 00-2.914 1.24 13.152 13.152 0 00-2.557 1.927.459.459 0 01-.546.068l-3.454-2-.02-.011a.865.865 0 00-.63-.072.847.847 0 00-.518.4l-.015.024-2.434 4.209a.882.882 0 00-.083.652.87.87 0 00.4.52l.024.015 3.426 1.977a.459.459 0 01.217.5 12.933 12.933 0 00-.29 1.569 13.342 13.342 0 000 3.2 12.968 12.968 0 00.29 1.571.459.459 0 01-.241.518l-3.426 1.979a.858.858 0 00-.4.52.883.883 0 00.083.652l2.447 4.235a.858.858 0 001.168.314l.026-.013 3.43-1.982a.459.459 0 01.544.066 13.156 13.156 0 005.491 3.175.46.46 0 01.331.439v3.985a.842.842 0 00.252.6.851.851 0 00.6.252h4.892a.862.862 0 00.854-.856v-3.985a.459.459 0 01.351-.445 13.071 13.071 0 002.917-1.242 13.218 13.218 0 002.557-1.927.455.455 0 01.566-.05l3.432 1.979a.839.839 0 00.65.083.866.866 0 00.52-.4l.015-.022 2.429-4.213a.839.839 0 00.083-.65.851.851 0 00-.395-.52l-3.454-1.993a.457.457 0 01-.213-.5 13.9 13.9 0 00.288-1.571 13.338 13.338 0 000-3.2 13.861 13.861 0 00-.288-1.569.453.453 0 01.239-.52l3.428-1.977a.863.863 0 00.395-.52.837.837 0 00-.083-.65l-.013-.026-2.431-4.211a.87.87 0 00-.52-.4.858.858 0 00-.65.083l-3.454 2a.458.458 0 01-.555-.077 13.1 13.1 0 00-5.48-3.165.456.456 0 01-.327-.426v-3.987a.862.862 0 00-.854-.854h-4.892a.851.851 0 00-.6.252.837.837 0 00-.252.6v3.989a.463.463 0 01-.356.442z" fill="#f6cccf" fill-rule="evenodd"/></g><path data-name="Path 11030" d="M180.412 114.903a90.13 90.13 0 10-6.1 32.663 89.756 89.756 0 006.1-32.663zm-37.261 0a52.212 52.212 0 01-3.714 19.463 52.881 52.881 0 01-49.247 33.5c-.458 0-.914-.028-1.344-.055A52.939 52.939 0 11136.025 88.4a52.328 52.328 0 017.125 26.503z" fill="#e4e5fb" opacity=".286"/><path data-name="Path 11031" d="M90.194 205.097v-37.234c-.458 0-.914-.028-1.344-.055a52.913 52.913 0 01-34.331-92.017l-24.786-27.8a90.182 90.182 0 0060.461 157.1z" fill="#e4e5fb" opacity=".286"/><path data-name="Path 11032" d="M181.851 114.895a89.9 89.9 0 00-12.351-45.6l-32.028 19.1a52.943 52.943 0 013.434 45.966l34.855 13.2a89.924 89.924 0 006.09-32.666z" fill="#9a9ae5" opacity=".286"/><path data-name="Path 11033" d="M169.504 69.299A90.2 90.2 0 0031.176 47.992l24.8 27.788a52.914 52.914 0 0181.493 12.613z" fill="#ff7171" opacity=".286"/></g></svg>