<svg version="1.1" id="Layer_1" xmlns="http://www.w3.org/2000/svg" x="0" y="0" viewBox="0 0 148.7 44.1" xml:space="preserve"><style>.st0{fill:#ff6761}</style><path id="Path_10927" d="M73.6 2.1h-5.3c-1.8 0-3.5 0-5.3.1-2.2 0-4.4.2-6.6.4-.7 0-1.2.4-1.5 1-.2.6-.4 1.1-.4 1.7-.1 1.6-.1 3.2.1 4.8.1.7.3 1.3.6 1.9.4.7 1.2 1.1 2 1 .7 0 1.3-.3 1.8-.8l1.4-1.4c2.1-2.1 5.4-2.4 7.9-.7.6.4 1 1 1.6 1.5.4.4.8.7 1.2.9.8.4 1.7.5 2.6.3 1-.2 1.9-.6 2.7-1.3.7-.6 1.4-1.1 2.2-1.6 2.1-1.4 4.8-1.2 6.8.4.6.5 1.2 1.1 1.7 1.7.6.8 1.6 1.1 2.6.9 1-.1 1.8-.7 2-1.7.2-.7.3-1.4.4-2.1V6.2c0-.6-.1-1.2-.2-1.8-.1-.9-.9-1.7-1.8-1.8-.6-.1-1.2-.2-1.8-.2-1.8-.1-3.6-.2-5.4-.2-3.2 0-6.3 0-9.3-.1zM73.1 0c2.2 0 4.4 0 6.6.1 2.6.1 5.1.2 7.7.3 1 0 2 .1 2.9.3 1.7.3 3.1 1.6 3.4 3.4.3 1.6.5 3.2.4 4.8-.1 1.1-.2 2.1-.5 3.1-.4 1.6-1.7 2.8-3.4 3.1-1.7.5-3.6-.1-4.8-1.4l-1.2-1.2c-.8-.8-1.9-1.2-3.1-1.1-.7.1-1.3.3-1.9.7-.6.4-1.2.9-1.7 1.4-1.1.9-2.4 1.6-3.8 1.8-2 .4-4.1-.3-5.5-1.8-.4-.5-.9-1-1.5-1.4-1.6-1.1-3.8-.9-5.2.5-.5.5-.9 1-1.4 1.5-1.6 1.5-4 1.7-5.9.5-.8-.6-1.3-1.3-1.6-2.3-.5-1.6-.7-3.4-.7-5.1 0-1.4.3-2.7.7-4.1.4-1.4 1.6-2.4 3-2.5 1.9-.2 3.8-.4 5.7-.4C64.9.1 68.4.1 72 .1c.7-.1.9-.1 1.1-.1z"/><path id="Path_10928" d="M17.6 43.6v-.3-8.2c0-.5 0-1-.2-1.4-.3-.7-.9-1.3-1.7-1.4-1.3-.4-2.7-.2-3.9.5-.1 0-.2.2-.1.3.1.5.1 1.1.2 1.6v9H9v-.2-8.6c0-.8-.3-1.6-1-2.1-.5-.3-1-.5-1.6-.6-1.1-.1-2.3 0-3.3.4-.2 0-.3.2-.2.4v10.8H0v-.2-12.2c0-.1.1-.3.2-.3 1.4-.6 2.8-1 4.3-1.2 1.1-.2 2.3-.2 3.5 0 .8.1 1.6.4 2.2.8.1 0 .2.1.3 0 1.1-.5 2.2-.8 3.4-.9 1.3-.2 2.6-.1 3.8.3 1.4.4 2.5 1.6 2.7 3.1.1.5.1.9.1 1.4v9.2l-2.9-.2z"/><path id="Path_10929" d="M31.6 24.1h2.9v6.6l.4-.2c1.2-.6 2.5-.9 3.9-.9.9 0 1.8.2 2.6.6 1.1.6 1.9 1.6 2.2 2.9.2.7.2 1.4.2 2.2V43.7h-2.9v-.3-7.8c0-.7-.1-1.4-.4-2-.4-.8-1.2-1.4-2.2-1.5-1.3-.1-2.6.1-3.7.8-.1 0-.1.2-.1.3v10.5h-2.8l-.1-19.6z"/><path id="Rectangle_841" d="M24.6 30h2.9v13.6h-2.9z"/><path id="Rectangle_842" d="M47.9 30h2.9v13.6h-2.9z"/><path id="Rectangle_843" d="M54.8 40.5H58v3.2h-3.2z"/><path id="Rectangle_844" d="M24.5 25.2h3v2.6h-3z"/><path id="Rectangle_845" d="M47.8 25.2h3v2.6h-3z"/><path id="Path_10930" class="st0" d="M95 39.4v-1.2c0-.2-.1-.3-.2-.3-1.3-.5-2.6-.6-4-.4-.5.1-1.1.3-1.5.6-.8.8-.8 2.2.1 3 .1.1.2.2.3.2.3.2.5.3.8.4 1.2.3 2.5.3 3.7 0 .5-.1.8-.5.8-1v-1.3zm0-3.3c0-.7 0-1.3-.1-2-.1-1-.9-1.8-1.9-2-2-.4-4 0-5.7 1.1h-.1V33v-2.3c0-.1.1-.2.2-.3.7-.4 1.5-.6 2.4-.8 1.2-.3 2.5-.3 3.8-.2 1 .1 1.9.5 2.8 1 .8.6 1.3 1.4 1.5 2.4.1.4.1.8.1 1.1v6.5c0 .7-.2 1.3-.6 1.9-.4.4-.9.7-1.5.9-1 .6-1.9.8-2.8.8-1.1.1-2.3.1-3.4-.1-.7-.1-1.4-.4-2-.7-.8-.4-1.4-1.2-1.6-2.1-.3-1-.3-2 0-3 .3-1.4 1.4-2.4 2.8-2.7 1.8-.5 3.7-.3 5.5.4l.6.3z"/><path id="Path_10931" class="st0" d="M132 35.3h3.1c.2 0 .2 0 .2-.2-.1-.3-.1-.6-.2-.9-.2-1-1-1.9-2-2.1-.7-.2-1.5-.2-2.3 0-.8.2-1.4.7-1.7 1.4-.2.5-.4 1-.5 1.6 0 .2 0 .2.2.2h3.2zm1.4 2.1h-4.6c-.1 0-.2 0-.2.1.1.8.3 1.5.6 2.2.5.9 1.4 1.6 2.4 1.7 1.4.2 2.9.1 4.3-.4.4-.1.8-.3 1.1-.5.1-.1.2-.1.2.1v2.3c0 .1-.1.2-.2.2-1 .4-2.1.7-3.2.8-1 .1-2.1.1-3.1-.1-2.4-.4-4.2-2.2-4.7-4.5-.6-2.1-.4-4.3.3-6.3.7-1.9 2.4-3.2 4.5-3.4 1.1-.2 2.3-.1 3.4.2 1.5.4 2.7 1.6 3.3 3.1.5 1.4.8 2.9.7 4.3 0 .2-.1.2-.2.2h-4.6z"/><path id="Path_10932" class="st0" d="M63.3 43.6h1.6V32.7c0-.1.1-.2.2-.2 1.3-.5 2.6-.6 3.9-.3 1 .2 1.8 1 2 2 0 .2.1.4.1.6v8.9H74v-.1-.1-8.8-.1c0-.5 0-1.1-.2-1.6 0-.1 0-.2.1-.2 1.1-.6 2.4-.8 3.6-.5.8.1 1.4.5 1.8 1.2.2.4.3.9.3 1.4v8.9h2.9v-9.1c0-.5 0-1-.1-1.5-.2-1.5-1.3-2.7-2.8-3.1-.9-.3-1.8-.4-2.7-.3-1.5 0-3 .4-4.3 1-.1.1-.2 0-.3 0-.8-.5-1.7-.8-2.6-.9-1.1-.1-2.2-.1-3.3.1-1.4.2-2.8.6-4.1 1.2-.1 0-.2.2-.2.3v12.4l1.2-.3z"/><path id="Path_10933" class="st0" d="M110 30.2c0-.1-.1-.3-.2-.3-.6-.2-1.1-.3-1.7-.3-1.2 0-2.4.2-3.6.6-.8.2-1.6.5-2.4.9-.1.1-.2.2-.2.3V43.7h2.9v-.2-.1-9.8-.9c0-.1 0-.2.2-.2 1.6-.3 3.3-.3 4.9-.2.2 0 .2 0 .2-.2-.1-.7-.1-1.3-.1-1.9z"/><path id="Path_10934" class="st0" d="M124.9 43.5l-3.3-3.7c-1.1-1.3-2.3-2.6-3.4-3.8-.1-.1-.1-.2 0-.3.4-.4.9-.8 1.3-1.2 1.2-1.2 2.5-2.4 3.7-3.6.3-.3.6-.7.9-1h-3.3c-.1 0-.2 0-.2.1-1.4 1.4-2.7 2.8-4.1 4.2l-.8.8V24.7h-2.9v18.9H115.8v-6.1l.8.9 4.6 5.1c.1.1.1.1.2.1h3.6c-.1 0-.1 0-.1-.1z"/><path id="Path_10935" class="st0" d="M145.4 29.9v-3.8h-3V29.9h-2.2v2.5h2.2v7.5c0 .4 0 .7.1 1.1.1 1.2.9 2.3 2.1 2.7 1.2.4 2.5.5 3.7.1.2-.1.3-.1.5-.2V41c-.5.3-1.1.4-1.7.4-.8.1-1.5-.4-1.6-1.1v-.4-7.6h3.3v-2.4h-3.4"/></svg>