<svg xmlns="http://www.w3.org/2000/svg" xmlns:xlink="http://www.w3.org/1999/xlink" width="128" height="106.47" viewBox="0 0 128 106.47"><defs><linearGradient id="a" x1="127.58" y1="106.71" x2="51.71" y2="-24.71" gradientUnits="userSpaceOnUse"><stop offset="0" stop-color="#006d69"/><stop offset=".67" stop-color="#28a8b3"/><stop offset="1" stop-color="#39c1d2"/></linearGradient><linearGradient id="b" x1="119.64" y1="101.23" x2="94.91" y2="58.41" xlink:href="#a"/><linearGradient id="c" x1="32.68" y1="102.35" x2="5.76" y2="55.71" xlink:href="#a"/><linearGradient id="d" x1="104.2" y1="28.08" x2="93.47" y2="9.5" xlink:href="#a"/><linearGradient id="e" x1="36.04" y1="94" x2="-9.95" y2="14.35" xlink:href="#a"/></defs><g data-name="Layer 2"><g data-name="Layer 1"><path d="M128 8.6v97.87h-9.68V31.9L79.55 68.86 8.92 0h14.47l56.35 54.77L128 8.6z" fill="url(#a)"/><path d="M101.77 58.29l8.8-8.93.01 57.11h-8.81V58.29z" fill="url(#b)"/><path d="M25.55 58.29l-8.8-8.93v57.11h8.8V58.29z" fill="url(#c)"/><path d="M109.65.16l12.6-.16-41.78 41.78-6.22-6.22 35.4-35.4z" fill="url(#d)"/><path d="M8.93 106.47H0V8.6l68.46 66.68H55.03L8.59 32.11l.34 74.36z" fill="url(#e)"/></g></g></svg>